<svg width="17" height="16" viewBox="0 0 17 16" fill="none" xmlns="http://www.w3.org/2000/svg">
<g id="solar:calendar-broken">
<g clip-path="url(#clip0_1_181)">
<g id="Group">
<path id="Vector" d="M9.65381 14.6666H6.98714C4.47314 14.6666 3.21581 14.6666 2.43514 13.8853C1.65381 13.1046 1.65381 11.8473 1.65381 9.33329V7.99996C1.65381 5.48596 1.65381 4.22863 2.43514 3.44796C3.21581 2.66663 4.47314 2.66663 6.98714 2.66663H9.65381C12.1678 2.66663 13.4251 2.66663 14.2058 3.44796C14.9871 4.22863 14.9871 5.48596 14.9871 7.99996V9.33329C14.9871 11.8473 14.9871 13.1046 14.2058 13.8853C13.7705 14.3213 13.1871 14.514 12.3205 14.5986M4.98714 2.66663V1.66663M11.6538 2.66663V1.66663M14.6538 5.99996H7.48714M1.65381 5.99996H4.23714" stroke="#ADADAD" stroke-width="1.5" stroke-linecap="round"/>
<path id="Vector_2" d="M12.3203 11.3333C12.3203 11.5101 12.2501 11.6797 12.1251 11.8047C12 11.9298 11.8305 12 11.6536 12C11.4768 12 11.3073 11.9298 11.1822 11.8047C11.0572 11.6797 10.987 11.5101 10.987 11.3333C10.987 11.1565 11.0572 10.987 11.1822 10.8619C11.3073 10.7369 11.4768 10.6667 11.6536 10.6667C11.8305 10.6667 12 10.7369 12.1251 10.8619C12.2501 10.987 12.3203 11.1565 12.3203 11.3333ZM12.3203 8.66667C12.3203 8.84348 12.2501 9.01305 12.1251 9.13807C12 9.2631 11.8305 9.33333 11.6536 9.33333C11.4768 9.33333 11.3073 9.2631 11.1822 9.13807C11.0572 9.01305 10.987 8.84348 10.987 8.66667C10.987 8.48986 11.0572 8.32029 11.1822 8.19526C11.3073 8.07024 11.4768 8 11.6536 8C11.8305 8 12 8.07024 12.1251 8.19526C12.2501 8.32029 12.3203 8.48986 12.3203 8.66667ZM8.98698 11.3333C8.98698 11.5101 8.91674 11.6797 8.79172 11.8047C8.66669 11.9298 8.49712 12 8.32031 12C8.1435 12 7.97393 11.9298 7.84891 11.8047C7.72388 11.6797 7.65365 11.5101 7.65365 11.3333C7.65365 11.1565 7.72388 10.987 7.84891 10.8619C7.97393 10.7369 8.1435 10.6667 8.32031 10.6667C8.49712 10.6667 8.66669 10.7369 8.79172 10.8619C8.91674 10.987 8.98698 11.1565 8.98698 11.3333ZM8.98698 8.66667C8.98698 8.84348 8.91674 9.01305 8.79172 9.13807C8.66669 9.2631 8.49712 9.33333 8.32031 9.33333C8.1435 9.33333 7.97393 9.2631 7.84891 9.13807C7.72388 9.01305 7.65365 8.84348 7.65365 8.66667C7.65365 8.48986 7.72388 8.32029 7.84891 8.19526C7.97393 8.07024 8.1435 8 8.32031 8C8.49712 8 8.66669 8.07024 8.79172 8.19526C8.91674 8.32029 8.98698 8.48986 8.98698 8.66667ZM5.65365 11.3333C5.65365 11.5101 5.58341 11.6797 5.45838 11.8047C5.33336 11.9298 5.16379 12 4.98698 12C4.81017 12 4.6406 11.9298 4.51557 11.8047C4.39055 11.6797 4.32031 11.5101 4.32031 11.3333C4.32031 11.1565 4.39055 10.987 4.51557 10.8619C4.6406 10.7369 4.81017 10.6667 4.98698 10.6667C5.16379 10.6667 5.33336 10.7369 5.45838 10.8619C5.58341 10.987 5.65365 11.1565 5.65365 11.3333ZM5.65365 8.66667C5.65365 8.84348 5.58341 9.01305 5.45838 9.13807C5.33336 9.2631 5.16379 9.33333 4.98698 9.33333C4.81017 9.33333 4.6406 9.2631 4.51557 9.13807C4.39055 9.01305 4.32031 8.84348 4.32031 8.66667C4.32031 8.48986 4.39055 8.32029 4.51557 8.19526C4.6406 8.07024 4.81017 8 4.98698 8C5.16379 8 5.33336 8.07024 5.45838 8.19526C5.58341 8.32029 5.65365 8.48986 5.65365 8.66667Z" fill="#ADADAD"/>
</g>
</g>
</g>
<defs>
<clipPath id="clip0_1_181">
<rect x="0.320312" width="16" height="16" fill="white"/>
</clipPath>
</defs>
</svg>
