<svg width="29" height="28" viewBox="0 0 29 28" fill="none" xmlns="http://www.w3.org/2000/svg">
<path d="M8.48698 23.3337H20.1536M10.8203 18.667V23.3337M17.8203 18.667V23.3337M10.8203 14.0003V9.33366M14.3203 14.0003V12.8337M17.8203 14.0003V11.667M3.82031 5.83366C3.82031 5.52424 3.94323 5.22749 4.16202 5.0087C4.38081 4.78991 4.67756 4.66699 4.98698 4.66699H23.6536C23.9631 4.66699 24.2598 4.78991 24.4786 5.0087C24.6974 5.22749 24.8203 5.52424 24.8203 5.83366V17.5003C24.8203 17.8097 24.6974 18.1065 24.4786 18.3253C24.2598 18.5441 23.9631 18.667 23.6536 18.667H4.98698C4.67756 18.667 4.38081 18.5441 4.16202 18.3253C3.94323 18.1065 3.82031 17.8097 3.82031 17.5003V5.83366Z" stroke="white" stroke-width="2.26367" stroke-linecap="round" stroke-linejoin="round"/>
</svg>
