<svg width="14" height="21" viewBox="0 0 14 21" fill="none" xmlns="http://www.w3.org/2000/svg">
<g id="Group">
<path id="Vector" d="M6.53244 9.50141C8.17243 9.50141 9.5019 8.17194 9.5019 6.53196C9.5019 4.89197 8.17243 3.5625 6.53244 3.5625C4.89246 3.5625 3.56299 4.89197 3.56299 6.53196C3.56299 8.17194 4.89246 9.50141 6.53244 9.50141Z" fill="white"/>
<path id="Vector_2" d="M6.5328 0C3.32151 0 0 2.44343 0 6.5328C0 10.2684 5.82872 17.3844 6.07638 17.6825C6.18945 17.8176 6.3565 17.8959 6.5328 17.8959C6.70911 17.8959 6.87615 17.8176 6.98923 17.6825C7.23688 17.3844 13.0656 10.2684 13.0656 6.5328C13.0656 2.93062 10.135 0 6.5328 0ZM6.5328 10.69C4.24074 10.69 2.37556 8.82487 2.37556 6.5328C2.37556 4.24074 4.24074 2.37556 6.5328 2.37556C8.82487 2.37556 10.69 4.24074 10.69 6.5328C10.69 8.82487 8.82487 10.69 6.5328 10.69Z" fill="white"/>
<path id="Vector_3" d="M10.5351 14.959C9.39001 16.6169 8.31946 17.9406 7.90271 18.4421C7.56051 18.851 7.06172 19.0841 6.5328 19.0841C6.00388 19.0841 5.50509 18.851 5.16523 18.445C4.74749 17.9422 3.67623 16.6176 2.53057 14.959C0.993184 15.5023 0 16.3487 0 17.3024C0 18.9424 2.92487 20.2719 6.5328 20.2719C10.1407 20.2719 13.0656 18.9424 13.0656 17.3024C13.0656 16.3487 12.0725 15.5023 10.5351 14.959Z" fill="white"/>
</g>
</svg>
