<svg width="19" height="19" viewBox="0 0 19 19" fill="none" xmlns="http://www.w3.org/2000/svg">
<g id="calendar_ty9r71iu4at0 1" clip-path="url(#clip0_990_4607)">
<path id="Vector" d="M10.0493 13.2295H12.2067V15.6874H10.0493V13.2295Z" fill="white"/>
<path id="Vector_2" d="M6.77881 9.65918H8.93623V12.1171H6.77881V9.65918Z" fill="white"/>
<path id="Vector_3" d="M6.77881 13.2295H8.93623V15.6874H6.77881V13.2295Z" fill="white"/>
<path id="Vector_4" d="M19 5.21633V1.41016H16.5508V0H15.4375V1.41016H13.9531V0H12.8398V1.41016H11.3555V0H10.2422V1.41016H8.75781V0H7.64453V1.41016H6.16016V0H5.04688V1.41016H3.5625V0H2.44922V1.41016H0V5.21633H19Z" fill="white"/>
<path id="Vector_5" d="M3.45166 13.2295H5.66648V15.6874H3.45166V13.2295Z" fill="white"/>
<path id="Vector_6" d="M10.0493 9.65918H12.2067V12.1171H10.0493V9.65918Z" fill="white"/>
<path id="Vector_7" d="M13.3198 13.2295H15.5481V15.6874H13.3198V13.2295Z" fill="white"/>
<path id="Vector_8" d="M3.45166 9.65918H5.66648V12.1171H3.45166V9.65918Z" fill="white"/>
<path id="Vector_9" d="M13.3198 9.65918H15.5481V12.1171H13.3198V9.65918Z" fill="white"/>
<path id="Vector_10" d="M0 6.3291V18.9995H19V6.3291H0ZM16.6621 16.8002H2.33789V8.5445H16.6621V16.8002Z" fill="white"/>
</g>
<defs>
<clipPath id="clip0_990_4607">
<rect width="19" height="19" fill="white"/>
</clipPath>
</defs>
</svg>
