<svg width="20" height="15" viewBox="0 0 20 15" fill="none" xmlns="http://www.w3.org/2000/svg">
<g id="Group 43040">
<path id="Vector" d="M19.1809 0.740234L11.1392 9.04567C10.7443 9.45082 10.2101 9.67822 9.65339 9.67822C9.09663 9.67822 8.56249 9.45082 8.16761 9.04567L0.125914 0.740234C0.0438659 0.914426 0.000832082 1.10544 0 1.29913V13.4302C0.000976612 13.7746 0.133949 14.1046 0.369872 14.3481C0.605795 14.5917 0.925494 14.7289 1.25914 14.7299H18.0476C18.3813 14.7289 18.701 14.5917 18.9369 14.3481C19.1728 14.1046 19.3058 13.7746 19.3068 13.4302V1.29913C19.3059 1.10544 19.2629 0.914426 19.1809 0.740234Z" fill="white"/>
<path id="Vector_2" d="M10.5423 8.43108L18.5882 0.129976C18.4194 0.0452809 18.2344 0.000858923 18.0467 0H1.25823C1.07059 0.000858923 0.885545 0.0452809 0.716797 0.129976L8.76269 8.43108C8.99876 8.67451 9.31879 8.81126 9.65248 8.81126C9.98616 8.81126 10.3062 8.67451 10.5423 8.43108Z" fill="white"/>
</g>
</svg>
