<svg width="29" height="28" viewBox="0 0 29 28" fill="none" xmlns="http://www.w3.org/2000/svg">
<path d="M3.82031 7.58398V5.25065C3.82031 4.70815 3.82031 4.43748 3.86465 4.21232C3.9546 3.75947 4.17688 3.34349 4.50335 3.01702C4.82982 2.69055 5.2458 2.46827 5.69865 2.37832C5.92381 2.33398 6.19448 2.33398 6.73698 2.33398C7.27948 2.33398 7.55015 2.33398 7.77531 2.37832C8.22816 2.46827 8.64414 2.69055 8.97061 3.01702C9.29708 3.34349 9.51936 3.75947 9.60931 4.21232C9.65365 4.43748 9.65365 4.70815 9.65365 5.25065V5.54232H18.987V5.25065C18.987 4.70815 18.987 4.43748 19.0313 4.21232C19.1213 3.75947 19.3435 3.34349 19.67 3.01702C19.9965 2.69055 20.4125 2.46827 20.8653 2.37832C21.0905 2.33398 21.3611 2.33398 21.9036 2.33398C22.4461 2.33398 22.7168 2.33398 22.942 2.37832C23.3948 2.46827 23.8108 2.69055 24.1373 3.01702C24.4637 3.34349 24.686 3.75947 24.776 4.21232C24.8203 4.43748 24.8203 4.70815 24.8203 5.25065V7.58398C24.8203 8.12648 24.8203 8.39715 24.776 8.62232C24.686 9.07517 24.4637 9.49115 24.1373 9.81762C23.8108 10.1441 23.3948 10.3664 22.942 10.4563C22.7168 10.5007 22.4461 10.5007 21.9036 10.5007C21.3611 10.5007 21.0905 10.5007 20.8653 10.4563C20.4125 10.3664 19.9965 10.1441 19.67 9.81762C19.3435 9.49115 19.1213 9.07517 19.0313 8.62232C18.987 8.39715 18.987 8.12648 18.987 7.58398V7.29232H15.1953V20.709H18.987V20.4173C18.987 19.8748 18.987 19.6042 19.0313 19.379C19.1213 18.9261 19.3435 18.5102 19.67 18.1837C19.9965 17.8572 20.4125 17.6349 20.8653 17.545C21.0905 17.5007 21.3611 17.5007 21.9036 17.5007C22.4461 17.5007 22.7168 17.5007 22.942 17.545C23.3948 17.6349 23.8108 17.8572 24.1373 18.1837C24.4637 18.5102 24.686 18.9261 24.776 19.379C24.8203 19.6042 24.8203 19.8748 24.8203 20.4173V22.7507C24.8203 23.2932 24.8203 23.5638 24.776 23.789C24.686 24.2418 24.4637 24.6578 24.1373 24.9843C23.8108 25.3108 23.3948 25.533 22.942 25.623C22.7168 25.6673 22.4461 25.6673 21.9036 25.6673C21.3611 25.6673 21.0905 25.6673 20.8653 25.623C20.4125 25.533 19.9965 25.3108 19.67 24.9843C19.3435 24.6578 19.1213 24.2418 19.0313 23.789C18.987 23.5638 18.987 23.2932 18.987 22.7507V22.459H9.65365V22.7507C9.65365 23.2932 9.65365 23.5638 9.60931 23.789C9.51936 24.2418 9.29708 24.6578 8.97061 24.9843C8.64414 25.3108 8.22816 25.533 7.77531 25.623C7.55015 25.6673 7.27948 25.6673 6.73698 25.6673C6.19448 25.6673 5.92381 25.6673 5.69865 25.623C5.2458 25.533 4.82982 25.3108 4.50335 24.9843C4.17688 24.6578 3.9546 24.2418 3.86465 23.789C3.82031 23.5638 3.82031 23.2932 3.82031 22.7507V20.4173C3.82031 19.8748 3.82031 19.6042 3.86465 19.379C3.9546 18.9261 4.17688 18.5102 4.50335 18.1837C4.82982 17.8572 5.2458 17.6349 5.69865 17.545C5.92381 17.5007 6.19448 17.5007 6.73698 17.5007C7.27948 17.5007 7.55015 17.5007 7.77531 17.545C8.22816 17.6349 8.64414 17.8572 8.97061 18.1837C9.29708 18.5102 9.51936 18.9261 9.60931 19.379C9.65365 19.6042 9.65365 19.8748 9.65365 20.4173V20.709H13.4453V7.29232H9.65365V7.58398C9.65365 8.12648 9.65365 8.39715 9.60931 8.62232C9.51936 9.07517 9.29708 9.49115 8.97061 9.81762C8.64414 10.1441 8.22816 10.3664 7.77531 10.4563C7.55015 10.5007 7.27948 10.5007 6.73698 10.5007C6.19448 10.5007 5.92381 10.5007 5.69865 10.4563C5.2458 10.3664 4.82982 10.1441 4.50335 9.81762C4.17688 9.49115 3.9546 9.07517 3.86465 8.62232C3.82031 8.39715 3.82031 8.12648 3.82031 7.58398Z" fill="white"/>
</svg>
