<svg width="138" height="177" viewBox="0 0 138 177" fill="none" xmlns="http://www.w3.org/2000/svg">
<g id="Group 43013">
<path id="Vector" d="M59.5532 59.9967L77.085 77.5285C77.2113 77.653 77.3115 77.8013 77.3799 77.9648C77.4483 78.1283 77.4836 78.3038 77.4836 78.4811C77.4836 78.6584 77.4483 78.8339 77.3799 78.9974C77.3115 79.161 77.2113 79.3092 77.085 79.4337L31.8874 124.631C32.4729 127.991 32.3231 131.437 31.4483 134.733C30.5736 138.029 28.9947 141.097 26.8204 143.724C26.7666 143.907 26.6692 144.073 26.5366 144.21L-0.703552 171.531C-0.826263 171.657 -0.972851 171.757 -1.1347 171.825C-1.29655 171.893 -1.47039 171.928 -1.64601 171.928C-1.82162 171.928 -1.99546 171.893 -2.15731 171.825C-2.31916 171.757 -2.46575 171.657 -2.58846 171.531L-9.70255 164.417C-9.82818 164.295 -9.92801 164.148 -9.99616 163.986C-10.0643 163.824 -10.0994 163.651 -10.0994 163.475C-10.0994 163.299 -10.0643 163.126 -9.99616 162.964C-9.92801 162.802 -9.82818 162.655 -9.70255 162.532L1.46514 151.345C-2.1951 150.184 -5.52399 148.163 -8.24276 145.451C-10.9615 142.739 -12.9911 139.416 -14.1615 135.758L-25.7548 147.352C-25.8793 147.478 -26.0276 147.578 -26.1911 147.647C-26.3546 147.715 -26.5301 147.75 -26.7074 147.75C-26.8847 147.75 -27.0602 147.715 -27.2237 147.647C-27.3872 147.578 -27.5355 147.478 -27.66 147.352L-34.7538 140.258C-34.88 140.134 -34.9803 139.985 -35.0487 139.822C-35.1171 139.658 -35.1523 139.483 -35.1523 139.305C-35.1523 139.128 -35.1171 138.953 -35.0487 138.789C-34.9803 138.626 -34.88 138.477 -34.7538 138.353L-8.81075 112.248L-8.42566 111.822C-8.28683 111.676 -8.13782 111.541 -7.97976 111.417L-7.5744 111.031C-7.50792 110.953 -7.42484 110.891 -7.3312 110.849C-4.66942 108.496 -1.51567 106.767 1.89972 105.789C5.31511 104.811 8.90591 104.607 12.4098 105.194L57.6075 59.9967C57.7325 59.8642 57.8833 59.7587 58.0506 59.6865C58.2179 59.6144 58.3982 59.5771 58.5803 59.5771C58.7625 59.5771 58.9428 59.6144 59.1101 59.6865C59.2774 59.7587 59.4282 59.8642 59.5532 59.9967ZM74.2475 78.4811L58.6006 62.8342L13.8489 107.586C13.6956 107.748 13.5027 107.866 13.2894 107.93C13.0761 107.994 12.8497 108.001 12.6328 107.951C9.41073 107.317 6.08548 107.442 2.9197 108.314C-0.246071 109.186 -3.16565 110.783 -5.6084 112.977H-5.73001L-6.13536 113.342C-6.23944 113.419 -6.33464 113.507 -6.41914 113.606L-6.70289 113.91L-6.9461 114.193L-31.9568 139.204L-26.7479 144.413L-14.425 132.11C-14.2603 131.934 -14.0492 131.809 -13.816 131.748C-13.5829 131.687 -13.3373 131.693 -13.1076 131.766C-12.8738 131.832 -12.663 131.962 -12.4985 132.141C-12.3339 132.32 -12.2221 132.541 -12.1752 132.779C-11.3072 136.817 -9.28966 140.517 -6.36589 143.433C-3.44211 146.35 0.263008 148.358 4.30264 149.216C4.53899 149.268 4.75735 149.381 4.93515 149.545C5.11295 149.709 5.24372 149.918 5.31397 150.149C5.38423 150.38 5.3914 150.626 5.33475 150.862C5.27811 151.097 5.15969 151.312 4.99175 151.486L-6.90556 163.363L-1.67641 168.593L24.368 142.528C24.4235 142.419 24.4916 142.317 24.5706 142.224C26.6548 139.795 28.155 136.921 28.956 133.822C29.757 130.723 29.8377 127.482 29.1917 124.348C29.1432 124.131 29.1513 123.905 29.2152 123.692C29.2791 123.479 29.3966 123.286 29.5565 123.131L74.2475 78.4811ZM55.2969 80.5079L56.5535 81.7646C57.811 83.0226 58.5174 84.7285 58.5174 86.5073C58.5174 88.286 57.811 89.9919 56.5535 91.25L38.9204 108.883C37.6623 110.141 35.9564 110.847 34.1777 110.847C32.3989 110.847 30.693 110.141 29.435 108.883L28.1783 107.626C26.9209 106.368 26.2145 104.663 26.2145 102.884C26.2145 101.105 26.9209 99.3991 28.1783 98.1411L45.8115 80.5079C47.0722 79.2531 48.7797 78.5503 50.5584 78.5541C52.3371 78.5579 54.0416 79.268 55.2969 80.5282V80.5079ZM31.3401 106.978C32.0988 107.727 33.1218 108.147 34.1878 108.147C35.2538 108.147 36.2768 107.727 37.0354 106.978L54.6686 89.3651C55.4236 88.6056 55.8474 87.5782 55.8474 86.5073C55.8474 85.4364 55.4236 84.409 54.6686 83.6495L53.412 82.4131C52.6534 81.6643 51.6303 81.2444 50.5643 81.2444C49.4984 81.2444 48.4753 81.6643 47.7167 82.4131L30.0835 100.026C29.3286 100.785 28.9048 101.813 28.9048 102.884C28.9048 103.955 29.3286 104.982 30.0835 105.742L31.3401 106.978ZM18.0849 118.977C19.9878 120.882 21.2832 123.309 21.8072 125.951C22.3312 128.592 22.0604 131.33 21.029 133.817C19.9976 136.305 18.2519 138.431 16.0124 139.927C13.773 141.423 11.1405 142.221 8.44744 142.221C5.75444 142.221 3.12186 141.423 0.88245 139.927C-1.35696 138.431 -3.10269 136.305 -4.13411 133.817C-5.16553 131.33 -5.43634 128.592 -4.91231 125.951C-4.38828 123.309 -3.09294 120.882 -1.18999 118.977C1.37273 116.431 4.83941 115.004 8.45162 115.008C12.0638 115.011 15.5275 116.446 18.0849 118.997V118.977ZM0.694942 136.366C2.22596 137.896 4.17614 138.938 6.29895 139.359C8.42176 139.781 10.6219 139.563 12.6213 138.735C14.6206 137.906 16.3294 136.503 17.5316 134.704C18.7338 132.904 19.3755 130.788 19.3755 128.624C19.3755 126.46 18.7338 124.344 17.5316 122.545C16.3294 120.745 14.6206 119.342 12.6213 118.513C10.6219 117.685 8.42176 117.467 6.29895 117.889C4.17614 118.311 2.22596 119.352 0.694942 120.882C-1.35588 122.941 -2.50737 125.728 -2.50737 128.634C-2.50737 131.54 -1.35588 134.328 0.694942 136.387V136.366Z" fill="white"/>
<path id="Vector_2" d="M66.8914 14.8995L122.507 70.4946C122.633 70.619 122.733 70.7673 122.802 70.9309C122.87 71.0944 122.905 71.2699 122.905 71.4472C122.905 71.6244 122.87 71.8 122.802 71.9635C122.733 72.1271 122.633 72.2753 122.507 72.3998L108.319 86.5874C108.173 86.7354 107.994 86.8473 107.797 86.9141C107.6 86.981 107.39 87.001 107.184 86.9725C106.977 86.9421 106.779 86.8641 106.607 86.7445C106.434 86.625 106.292 86.4671 106.191 86.2834L104.671 83.608L101.55 86.7293C99.7043 88.5623 97.2089 89.591 94.6079 89.591C92.0069 89.591 89.5115 88.5623 87.6661 86.7293L50.373 49.4159C48.5351 47.5731 47.5029 45.0767 47.5029 42.4741C47.5029 39.8715 48.5351 37.375 50.373 35.5323L53.474 32.4313L51.1837 31.1139C51.0053 31.0137 50.8521 30.8739 50.7362 30.7052C50.6202 30.5365 50.5445 30.3436 50.5149 30.141C50.4831 29.9348 50.5014 29.7239 50.5685 29.5264C50.6355 29.3288 50.7492 29.1503 50.9 29.006L65.0876 14.8184C65.342 14.5996 65.6704 14.4863 66.0056 14.5013C66.3408 14.5164 66.6576 14.6588 66.8914 14.8995ZM119.588 71.4472L65.878 17.737L53.9199 29.6952L56.2102 31.0328C56.3827 31.1427 56.5297 31.2882 56.6416 31.4594C56.7534 31.6307 56.8274 31.8238 56.8588 32.026C56.8796 32.2286 56.856 32.4333 56.7895 32.6259C56.723 32.8184 56.6152 32.9941 56.4737 33.1407L52.1363 37.4781C51.4672 38.1413 50.936 38.9306 50.5735 39.8003C50.211 40.6699 50.0244 41.6028 50.0244 42.5451C50.0244 43.4873 50.211 44.4201 50.5735 45.2898C50.936 46.1595 51.4672 46.9488 52.1363 47.612L89.4497 84.9254C90.113 85.5946 90.9023 86.1258 91.7719 86.4883C92.6416 86.8508 93.5745 87.0373 94.5167 87.0373C95.4589 87.0373 96.3918 86.8508 97.2615 86.4883C98.1311 86.1258 98.9204 85.5946 99.5837 84.9254L103.941 80.5881C104.081 80.4433 104.253 80.3331 104.443 80.2663C104.633 80.1995 104.836 80.1778 105.036 80.203C105.242 80.2209 105.44 80.2895 105.614 80.4027C105.787 80.5158 105.93 80.67 106.029 80.8515L107.61 83.5472L119.588 71.4472Z" fill="white"/>
<path id="Vector_3" d="M79.3784 2.71562L134.669 58.0067C134.889 58.2322 135.025 58.526 135.055 58.8394C135.084 59.1529 135.005 59.467 134.832 59.7294C134.316 60.4584 133.732 61.137 133.089 61.7562L130.555 64.2695C130.432 64.3952 130.286 64.495 130.124 64.5631C129.962 64.6313 129.788 64.6664 129.613 64.6664C129.437 64.6664 129.263 64.6313 129.101 64.5631C128.939 64.495 128.793 64.3952 128.67 64.2695L73.0548 8.67436C72.9286 8.5499 72.8283 8.40164 72.7599 8.23811C72.6915 8.07457 72.6562 7.89903 72.6562 7.72176C72.6562 7.54449 72.6915 7.369 72.7599 7.20547C72.8283 7.04194 72.9286 6.89367 73.0548 6.76922L75.6288 4.21543C76.2477 3.58366 76.9265 3.01349 77.6556 2.51293C77.9226 2.34425 78.2393 2.27235 78.5529 2.30925C78.8665 2.34614 79.1579 2.4896 79.3784 2.71562ZM131.954 59.0809L78.3447 5.45175L77.5746 6.16114L75.9531 7.78262L129.663 61.4928L131.244 59.9118C131.496 59.6481 131.733 59.3707 131.954 59.0809Z" fill="white"/>
<path id="Vector_4" d="M116.02 21.0801C122.679 27.7388 128.831 34.8863 134.423 42.4628C135.941 44.5287 136.906 46.9471 137.229 49.4898C137.551 52.0326 137.221 54.6156 136.268 56.995C136.18 57.1942 136.046 57.3698 135.876 57.5072C135.707 57.6446 135.508 57.7399 135.295 57.7854C135.078 57.8359 134.852 57.8288 134.638 57.7649C134.425 57.7009 134.232 57.5822 134.079 57.4206L79.943 3.305C79.7906 3.14545 79.6781 2.95213 79.6146 2.74078C79.5512 2.52942 79.5387 2.30602 79.5782 2.08891C79.617 1.87025 79.7123 1.66554 79.8545 1.49493C79.9966 1.32432 80.1808 1.19374 80.3889 1.11608C82.7772 0.138588 85.3776 -0.205247 87.9379 0.117899C90.4982 0.441044 92.9316 1.42021 95.0021 2.96048C102.443 8.47675 109.468 14.533 116.02 21.0801ZM134.403 53.975C134.796 52.2743 134.819 50.5089 134.469 48.7987C134.119 47.0885 133.406 45.4737 132.376 44.064C121.423 29.2224 108.321 16.0935 93.5023 5.10888C92.0887 4.0544 90.4645 3.31672 88.7403 2.946C87.0161 2.57528 85.2323 2.58021 83.5102 2.96048L134.403 53.975Z" fill="white"/>
<path id="Vector_5" d="M73.0527 8.73767L128.668 64.3328C128.794 64.4573 128.895 64.6055 128.963 64.7691C129.031 64.9326 129.067 65.1082 129.067 65.2854C129.067 65.4627 129.031 65.6382 128.963 65.8017C128.895 65.9653 128.794 66.1136 128.668 66.238L124.392 70.4943C124.269 70.6199 124.122 70.7198 123.96 70.7879C123.799 70.8561 123.625 70.8912 123.449 70.8912C123.273 70.8912 123.1 70.8561 122.938 70.7879C122.776 70.7198 122.629 70.6199 122.507 70.4943L66.8913 14.8992C66.765 14.7747 66.6648 14.6264 66.5963 14.4629C66.5279 14.2994 66.4927 14.1238 66.4927 13.9466C66.4927 13.7693 66.5279 13.5938 66.5963 13.4303C66.6648 13.2667 66.765 13.1184 66.8913 12.994L71.1678 8.73767C71.2905 8.61204 71.4371 8.51221 71.599 8.44405C71.7608 8.37589 71.9346 8.34082 72.1103 8.34082C72.2859 8.34082 72.4597 8.37589 72.6216 8.44405C72.7834 8.51221 72.93 8.61204 73.0527 8.73767ZM125.75 65.2854L72.0393 11.5752L69.668 13.9466L123.378 67.6567L125.75 65.2854Z" fill="white"/>
</g>
</svg>
