<svg width="203" height="98" viewBox="0 0 203 98" fill="none" xmlns="http://www.w3.org/2000/svg">
<path d="M85.78 -6.67572e-06C88.3 -6.67572e-06 90.6333 0.559994 92.78 1.68C95.02 2.70666 96.8867 4.15333 98.38 6.02C99.8733 7.79333 100.947 9.84666 101.6 12.18C102.253 14.5133 102.3 16.94 101.74 19.46L88.72 84.84C87.9733 88.76 86.06 91.9333 82.98 94.36C79.9933 96.7867 76.54 98 72.62 98H17.18C14.5667 98 12.14 97.4867 9.9 96.46C7.75333 95.34 5.93333 93.8933 4.44 92.12C3.04 90.2533 2.01333 88.1533 1.36 85.82C0.706667 83.3933 0.613334 80.92 1.08 78.4L14.24 13.16C14.9867 9.24 16.8533 6.06667 19.84 3.64C22.8267 1.21333 26.28 -6.67572e-06 30.2 -6.67572e-06H85.78ZM32.72 73.92C33.3733 74.76 34.2133 75.18 35.24 75.18H58.62C60.3 75.18 61.3733 74.2933 61.84 72.52L70.94 26.74C71.1267 25.7133 70.8933 24.8267 70.24 24.08C69.5867 23.24 68.7467 22.82 67.72 22.82H44.34C43.5933 22.82 42.8933 23.1 42.24 23.66C41.68 24.1267 41.3067 24.7333 41.12 25.48L32.02 71.26C31.8333 72.2867 32.0667 73.1733 32.72 73.92ZM136.134 35.98H169.174L170.854 27.16C171.041 26.04 170.761 25.06 170.014 24.22C169.361 23.2867 168.474 22.82 167.354 22.82H121.574L126.194 -6.67572e-06H185.834C188.354 -6.67572e-06 190.687 0.559994 192.834 1.68C195.074 2.70666 196.941 4.15333 198.434 6.02C199.927 7.79333 201.001 9.84666 201.654 12.18C202.307 14.5133 202.354 16.94 201.794 19.46L194.234 55.58H148.314C147.567 55.58 146.867 55.8133 146.214 56.28C145.654 56.7467 145.281 57.3533 145.094 58.1L141.734 75.18H194.234L189.754 98H107.714L116.954 51.8C117.421 49.4667 118.214 47.3667 119.334 45.5C120.547 43.54 121.994 41.86 123.674 40.46C125.354 39.06 127.267 37.9867 129.414 37.24C131.561 36.4 133.801 35.98 136.134 35.98Z" fill="url(#paint0_linear_990_4267)"/>
<defs>
<linearGradient id="paint0_linear_990_4267" x1="101.5" y1="-23" x2="101.5" y2="170" gradientUnits="userSpaceOnUse">
<stop stop-color="#1C69D4"/>
<stop offset="1"/>
</linearGradient>
</defs>
</svg>
