<svg width="203" height="98" viewBox="0 0 203 98" fill="none" xmlns="http://www.w3.org/2000/svg">
<path d="M85.78 -6.67572e-06C88.3 -6.67572e-06 90.6333 0.559994 92.78 1.68C95.02 2.70666 96.8867 4.15333 98.38 6.02C99.8733 7.79333 100.947 9.84666 101.6 12.18C102.253 14.5133 102.3 16.94 101.74 19.46L88.72 84.84C87.9733 88.76 86.06 91.9333 82.98 94.36C79.9933 96.7867 76.54 98 72.62 98H17.18C14.5667 98 12.14 97.4867 9.9 96.46C7.75333 95.34 5.93333 93.8933 4.44 92.12C3.04 90.2533 2.01333 88.1533 1.36 85.82C0.706667 83.3933 0.613334 80.92 1.08 78.4L14.24 13.16C14.9867 9.24 16.8533 6.06667 19.84 3.64C22.8267 1.21333 26.28 -6.67572e-06 30.2 -6.67572e-06H85.78ZM32.72 73.92C33.3733 74.76 34.2133 75.18 35.24 75.18H58.62C60.3 75.18 61.3733 74.2933 61.84 72.52L70.94 26.74C71.1267 25.7133 70.8933 24.8267 70.24 24.08C69.5867 23.24 68.7467 22.82 67.72 22.82H44.34C43.5933 22.82 42.8933 23.1 42.24 23.66C41.68 24.1267 41.3067 24.7333 41.12 25.48L32.02 71.26C31.8333 72.2867 32.0667 73.1733 32.72 73.92ZM144.674 -6.67572e-06L138.234 32.06C138.047 33.0867 138.281 34.02 138.934 34.86C139.587 35.6067 140.427 35.98 141.454 35.98H163.574C164.321 35.98 164.974 35.7467 165.534 35.28C166.187 34.72 166.607 34.0667 166.794 33.32L173.374 -6.67572e-06H202.774L183.174 98H153.774L162.314 55.58H124.094C118.867 55.58 114.667 53.5733 111.494 49.56C109.254 46.76 108.041 44.4733 107.854 42.7C107.761 40.8333 107.714 39.5267 107.714 38.78C107.714 38.6867 107.807 38.08 107.994 36.96C108.274 35.7467 108.601 34.2533 108.974 32.48C109.347 30.6133 109.721 28.5133 110.094 26.18C110.561 23.8467 111.027 21.4667 111.494 19.04C112.614 13.44 113.874 7.09333 115.274 -6.67572e-06H144.674Z" fill="url(#paint0_linear_990_4251)"/>
<defs>
<linearGradient id="paint0_linear_990_4251" x1="102" y1="-23" x2="102" y2="170" gradientUnits="userSpaceOnUse">
<stop stop-color="#1C69D4"/>
<stop offset="1"/>
</linearGradient>
</defs>
</svg>
