<svg width="201" height="98" viewBox="0 0 201 98" fill="none" xmlns="http://www.w3.org/2000/svg">
<path d="M85.78 -6.67572e-06C88.3 -6.67572e-06 90.6333 0.559994 92.78 1.68C95.02 2.70666 96.8867 4.15333 98.38 6.02C99.8733 7.79333 100.947 9.84666 101.6 12.18C102.253 14.5133 102.3 16.94 101.74 19.46L88.72 84.84C87.9733 88.76 86.06 91.9333 82.98 94.36C79.9933 96.7867 76.54 98 72.62 98H17.18C14.5667 98 12.14 97.4867 9.9 96.46C7.75333 95.34 5.93333 93.8933 4.44 92.12C3.04 90.2533 2.01333 88.1533 1.36 85.82C0.706667 83.3933 0.613334 80.92 1.08 78.4L14.24 13.16C14.9867 9.24 16.8533 6.06667 19.84 3.64C22.8267 1.21333 26.28 -6.67572e-06 30.2 -6.67572e-06H85.78ZM32.72 73.92C33.3733 74.76 34.2133 75.18 35.24 75.18H58.62C60.3 75.18 61.3733 74.2933 61.84 72.52L70.94 26.74C71.1267 25.7133 70.8933 24.8267 70.24 24.08C69.5867 23.24 68.7467 22.82 67.72 22.82H44.34C43.5933 22.82 42.8933 23.1 42.24 23.66C41.68 24.1267 41.3067 24.7333 41.12 25.48L32.02 71.26C31.8333 72.2867 32.0667 73.1733 32.72 73.92ZM164.694 35.98C165.441 35.98 166.094 35.7467 166.654 35.28C167.307 34.72 167.727 34.0667 167.914 33.32L169.174 26.74C169.361 25.7133 169.127 24.8267 168.474 24.08C167.821 23.24 166.981 22.82 165.954 22.82H119.194L123.814 -6.67572e-06H184.014C186.627 -6.67572e-06 189.007 0.559994 191.154 1.68C193.394 2.70666 195.214 4.15333 196.614 6.02C198.107 7.79333 199.181 9.84666 199.834 12.18C200.487 14.5133 200.581 16.94 200.114 19.46L196.894 35.28C196.334 38.2667 194.841 40.7867 192.414 42.84C189.987 44.8 187.234 45.78 184.154 45.78H186.254C188.307 45.78 190.174 46.2467 191.854 47.18C193.627 48.02 195.121 49.1867 196.334 50.68C197.547 52.08 198.387 53.7133 198.854 55.58C199.414 57.4467 199.461 59.36 198.994 61.32L194.234 84.84C193.487 88.76 191.621 91.9333 188.634 94.36C185.647 96.7867 182.194 98 178.274 98H107.714L112.334 75.18H164.134C164.881 75.18 165.534 74.9467 166.094 74.48C166.747 73.92 167.167 73.2667 167.354 72.52L170.014 59.5C170.201 58.4733 169.967 57.5867 169.314 56.84C168.661 56 167.821 55.58 166.794 55.58H121.014L124.934 35.98H164.694Z" fill="url(#paint0_linear_990_4259)"/>
<defs>
<linearGradient id="paint0_linear_990_4259" x1="101" y1="-23" x2="101" y2="170" gradientUnits="userSpaceOnUse">
<stop stop-color="#1C69D4"/>
<stop offset="1"/>
</linearGradient>
</defs>
</svg>
