<svg width="206" height="98" viewBox="0 0 206 98" fill="none" xmlns="http://www.w3.org/2000/svg">
<path d="M85.78 -6.67572e-06C88.3 -6.67572e-06 90.6333 0.559994 92.78 1.68C95.02 2.70666 96.8867 4.15333 98.38 6.02C99.8733 7.79333 100.947 9.84666 101.6 12.18C102.253 14.5133 102.3 16.94 101.74 19.46L88.72 84.84C87.9733 88.76 86.06 91.9333 82.98 94.36C79.9933 96.7867 76.54 98 72.62 98H17.18C14.5667 98 12.14 97.4867 9.9 96.46C7.75333 95.34 5.93333 93.8933 4.44 92.12C3.04 90.2533 2.01333 88.1533 1.36 85.82C0.706667 83.3933 0.613334 80.92 1.08 78.4L14.24 13.16C14.9867 9.24 16.8533 6.06667 19.84 3.64C22.8267 1.21333 26.28 -6.67572e-06 30.2 -6.67572e-06H85.78ZM32.72 73.92C33.3733 74.76 34.2133 75.18 35.24 75.18H58.62C60.3 75.18 61.3733 74.2933 61.84 72.52L70.94 26.74C71.1267 25.7133 70.8933 24.8267 70.24 24.08C69.5867 23.24 68.7467 22.82 67.72 22.82H44.34C43.5933 22.82 42.8933 23.1 42.24 23.66C41.68 24.1267 41.3067 24.7333 41.12 25.48L32.02 71.26C31.8333 72.2867 32.0667 73.1733 32.72 73.92ZM151.954 22.82L149.434 35.98H179.114C181.634 35.98 183.967 36.54 186.114 37.66C188.354 38.6867 190.221 40.0867 191.714 41.86C193.207 43.6333 194.281 45.6867 194.934 48.02C195.587 50.26 195.681 52.64 195.214 55.16L189.054 84.98C188.214 88.8067 186.301 91.9333 183.314 94.36C180.327 96.7867 176.874 98 172.954 98H107.714L112.334 75.18H158.954C159.701 75.18 160.354 74.9467 160.914 74.48C161.567 73.92 161.987 73.2667 162.174 72.52L164.834 59.5C165.021 58.4733 164.787 57.5867 164.134 56.84C163.574 56 162.781 55.58 161.754 55.58H116.394L127.454 -6.67572e-06H205.714L201.094 22.82H151.954Z" fill="url(#paint0_linear_990_4243)"/>
<defs>
<linearGradient id="paint0_linear_990_4243" x1="103.5" y1="-23" x2="103.5" y2="170" gradientUnits="userSpaceOnUse">
<stop stop-color="#1C69D4"/>
<stop offset="1"/>
</linearGradient>
</defs>
</svg>
