<svg width="29" height="30" viewBox="0 0 29 30" fill="none" xmlns="http://www.w3.org/2000/svg">
<path d="M17.8203 21.0944H4.98698C4.67756 21.0944 4.38081 20.966 4.16202 20.7374C3.94323 20.5088 3.82031 20.1988 3.82031 19.8755V5.24869C3.82031 4.92541 3.94323 4.61538 4.16202 4.38679C4.38081 4.1582 4.67756 4.02979 4.98698 4.02979H23.6536C23.9631 4.02979 24.2598 4.1582 24.4786 4.38679C24.6974 4.61538 24.8203 4.92541 24.8203 5.24869V15.6093M3.82031 16.2188H18.987M9.65365 25.97H17.8203M11.987 21.0944L11.4036 25.97M16.6536 21.0944L17.237 25.97M22.487 19.8755V23.5322M22.487 27.1889V27.2011" stroke="white" stroke-width="2.26367" stroke-linecap="round" stroke-linejoin="round"/>
</svg>
