<svg width="137" height="212" viewBox="0 0 137 212" fill="none" xmlns="http://www.w3.org/2000/svg">
<g id="Group 43006">
<path id="Vector" d="M-49 47.2256V211.741H136.533V47.2256H-49ZM-5.97108 181.542C-7.14663 179.231 -8.38295 176.819 -9.7409 174.569C-10.0151 174.081 -10.1025 173.51 -9.98695 172.962C-9.87138 172.414 -9.56065 171.926 -9.1126 171.59C-0.822987 165.185 7.91246 158.335 16.1615 151.099C18.9443 155.248 22.6308 158.713 26.9441 161.233C19.1799 171.118 10.343 180.111 0.59573 188.048C0.334587 188.258 0.0298004 188.407 -0.296314 188.484C-0.622429 188.561 -0.96162 188.564 -1.28918 188.493C-1.61772 188.426 -1.92909 188.292 -2.20436 188.101C-2.47962 187.909 -2.71297 187.663 -2.89031 187.379C-3.98478 185.595 -4.97795 183.568 -5.97108 181.542ZM-0.843342 192.669C0.621498 192.681 2.04834 192.203 3.21025 191.311C13.8479 182.611 23.4564 172.723 31.8489 161.841L33.5312 159.814L31.1396 158.659C25.8319 156.091 21.4236 151.979 18.4924 146.863L17.2155 144.613L15.1887 146.336C6.49374 154.099 -2.87013 161.436 -11.7272 168.307C-12.9962 169.269 -13.8654 170.665 -14.1683 172.229C-14.4713 173.792 -14.1867 175.412 -13.3689 176.779C-12.0921 178.805 -10.8962 181.217 -9.76119 183.467C-9.19368 184.562 -8.60596 185.636 -8.03846 186.71C-20.1272 175.187 -28.0234 159.958 -30.4751 143.438C-29.4632 144.537 -28.1029 145.253 -26.6242 145.465C-21.184 146.128 -15.7078 146.453 -10.2273 146.437C-1.97761 146.362 6.26246 145.855 14.4591 144.917L17.0939 144.634L16.2224 142.141C15.1421 139.053 14.5871 135.805 14.5807 132.534C14.5849 129.937 14.9393 127.353 15.6345 124.852L16.3237 122.359L13.7294 122.197C2.01445 121.528 -9.78152 120.17 -20.8478 118.691C-22.4251 118.472 -24.0273 118.844 -25.3475 119.734C-26.6678 120.624 -27.6131 121.97 -28.0024 123.514C-28.5902 125.926 -29.4009 128.399 -30.1711 130.811C-30.5562 132.007 -30.9007 133.202 -31.2858 134.419C-31.2858 133.79 -31.2858 133.162 -31.2858 132.534C-31.2727 116.46 -26.0691 100.821 -16.4496 87.944C-16.4602 89.4086 -15.9824 90.8349 -15.0917 91.9976C-6.38134 102.632 3.50478 112.246 14.3779 120.657L16.4047 122.319L17.5397 119.927C20.1092 114.625 24.2209 110.224 29.3357 107.3L31.5854 106.023L29.8627 103.996C22.0595 95.2405 14.7429 85.8969 7.89228 77.0803C6.93307 75.8081 5.5378 74.9348 3.97427 74.6281C2.41073 74.3214 0.788937 74.6028 -0.579849 75.4184C-2.70799 76.7155 -5.0387 77.9113 -7.30872 79.0666C-8.38292 79.6138 -9.33555 80.2016 -10.5111 80.7691C1.00176 68.6665 16.2357 60.7677 32.761 58.3324C31.6968 59.3574 31.017 60.717 30.8355 62.1834C29.4592 75.8542 29.6428 89.6373 31.3828 103.267L31.6666 105.901L34.1798 105.03C39.7384 103.062 45.7687 102.857 51.4482 104.442L53.9614 105.111L54.1033 102.537C54.7721 90.9234 56.1301 79.0869 57.6096 67.9597C57.8276 66.3825 57.456 64.7802 56.5659 63.46C55.6758 62.1398 54.3298 61.1944 52.7858 60.8051C50.3739 60.1971 47.881 59.3864 45.4894 58.6162C44.2936 58.2311 43.0977 57.8865 41.9019 57.5217C42.5302 57.5217 43.1382 57.5217 43.7665 57.5217C59.8419 57.5421 75.481 62.7527 88.3561 72.3782C86.89 72.3581 85.4607 72.8369 84.3025 73.7361C73.664 82.4343 64.0493 92.3143 55.6437 103.186L53.9817 105.212L56.3733 106.368C61.6779 108.923 66.0812 113.03 69.0002 118.143L70.2974 120.413L72.2229 118.67C80.9989 110.847 90.3424 103.53 99.1387 96.72C100.411 95.7608 101.284 94.3656 101.591 92.8021C101.898 91.2385 101.616 89.6168 100.801 88.248C99.5036 86.2212 98.3078 83.7688 97.1525 81.4988C96.6053 80.4246 96.0174 79.472 95.4499 78.3167C107.552 89.8214 115.452 105.049 117.887 121.569C116.867 120.508 115.515 119.829 114.056 119.643C100.378 118.263 86.5871 118.453 72.9525 120.211L70.3177 120.474L71.1892 122.987C73.1822 128.541 73.3877 134.579 71.7769 140.256L71.108 142.769L73.7024 142.911C85.4173 143.58 97.193 144.938 108.259 146.417C108.543 146.437 108.827 146.437 109.111 146.417C110.559 146.429 111.971 145.954 113.117 145.069C114.264 144.183 115.08 142.938 115.434 141.533C116.022 139.121 116.833 136.628 117.623 134.196C118.008 133.02 118.333 131.844 118.697 130.649C118.697 131.277 118.697 131.885 118.697 132.513C118.681 148.589 113.47 164.23 103.841 177.103C103.868 175.636 103.388 174.204 102.483 173.049C93.79 162.412 83.9093 152.803 73.0335 144.411L71.0067 142.749L69.8514 145.12C67.3023 150.429 63.1942 154.834 58.0757 157.747L55.8057 159.044L57.5489 160.97C65.3318 169.705 72.6687 179.069 79.499 187.906C80.1137 188.697 80.9002 189.338 81.7991 189.78C82.698 190.223 83.6857 190.455 84.6876 190.46C85.8459 190.469 86.9836 190.153 87.971 189.547C89.9978 188.271 92.43 187.075 94.6797 185.919C95.7742 185.372 96.8485 184.784 97.9227 184.197C86.4023 196.293 71.1731 204.196 54.6504 206.654C55.7494 205.642 56.4653 204.281 56.6772 202.803C58.0575 189.132 57.8671 175.347 56.1098 161.719L55.8463 159.085L53.3331 159.956C47.7743 161.923 41.7444 162.128 36.0647 160.544L33.6731 159.855L33.5312 162.449C32.8624 174.164 31.5045 185.96 30.0249 197.026C29.8069 198.604 30.1785 200.206 31.0686 201.526C31.9587 202.846 33.3048 203.792 34.8487 204.181C37.2403 204.769 39.7332 205.579 42.1451 206.37C43.3409 206.755 44.5368 207.079 45.7326 207.444C45.1043 207.444 44.4963 207.545 43.868 207.545C27.7935 207.54 12.152 202.335 -0.721619 192.709L-0.843342 192.669ZM11.5202 140.884C-0.962593 142.372 -13.5717 142.474 -26.0769 141.188C-26.408 141.141 -26.7253 141.025 -27.0083 140.847C-27.2912 140.669 -27.5333 140.433 -27.7186 140.154C-27.9087 139.876 -28.0361 139.56 -28.0921 139.227C-28.1481 138.895 -28.1314 138.554 -28.043 138.229C-27.4957 136.202 -26.8269 134.074 -26.1378 131.986C-25.3473 129.514 -24.5163 126.96 -23.8678 124.386C-23.7428 123.895 -23.4532 123.463 -23.0473 123.16C-22.6415 122.858 -22.144 122.704 -21.6382 122.724H-21.3343C-10.957 124.041 0.0282097 125.379 11.0945 126.109C10.6925 128.179 10.4889 130.283 10.4865 132.392C10.4563 135.296 10.8038 138.191 11.5202 141.006V140.884ZM-11.1394 85.755C-9.27474 84.6808 -7.32908 83.7282 -5.38335 82.6946C-3.05254 81.519 -0.660889 80.2827 1.60913 78.9045C1.93752 78.7009 2.31721 78.5954 2.70356 78.6004C3.06914 78.6073 3.42847 78.6965 3.75481 78.8615C4.08115 79.0264 4.36621 79.2628 4.58859 79.553C10.973 87.8021 17.8033 96.5173 25.0795 104.827C20.9356 107.607 17.4717 111.286 14.9455 115.59C5.05966 107.826 -3.93359 98.9893 -11.869 89.2411C-12.0807 88.9769 -12.2306 88.6687 -12.3078 88.3391C-12.385 88.0094 -12.3874 87.6667 -12.315 87.3359C-12.241 87.0099 -12.0977 86.7036 -11.8949 86.4378C-11.692 86.172 -11.4344 85.953 -11.1394 85.7956V85.755ZM37.9496 60.6025C39.9764 61.1497 42.0033 61.8388 44.1922 62.5076C46.6649 63.3184 49.2389 64.1494 51.7927 64.7777C52.3358 64.9215 52.8055 65.2633 53.1093 65.7359C53.4131 66.2085 53.5291 66.7776 53.4344 67.3314C52.117 77.7289 50.7793 88.7547 50.0497 99.7602C45.1593 98.7858 40.1101 98.9522 35.2945 100.247C33.8069 87.7638 33.705 75.1548 34.9906 62.6495C35.0347 62.3149 35.1497 61.9935 35.3279 61.7069C35.5062 61.4203 35.7435 61.175 36.0241 60.9875C36.414 60.7261 36.8722 60.5851 37.3416 60.5822C37.5462 60.5716 37.7512 60.5921 37.9496 60.643V60.6025ZM93.484 83.2621C94.6595 85.5929 95.8959 88.0048 97.2741 90.2545C97.5527 90.7419 97.6425 91.3145 97.5267 91.8638C97.4109 92.413 97.0974 92.9006 96.6458 93.2339C88.3764 99.6184 79.6815 106.428 71.3514 113.725C68.5596 109.591 64.8834 106.129 60.5891 103.591C68.3576 93.7096 77.194 84.7169 86.9375 76.7763C87.2066 76.5742 87.5157 76.4317 87.8442 76.3584C88.1727 76.285 88.513 76.2824 88.8425 76.3507C89.1719 76.4086 89.4844 76.5385 89.7577 76.7312C90.031 76.9239 90.2584 77.1747 90.4235 77.4654C91.4977 79.4112 92.4503 81.3569 93.484 83.3026V83.2621ZM75.9927 123.96C88.4749 122.462 101.085 122.36 113.59 123.656C113.926 123.696 114.248 123.81 114.536 123.988C114.823 124.167 115.067 124.406 115.252 124.69C115.443 124.964 115.571 125.277 115.627 125.606C115.683 125.936 115.665 126.273 115.576 126.595C115.029 128.622 114.34 130.649 113.671 132.797C112.88 135.29 112.029 137.864 111.401 140.438C111.257 140.983 110.916 141.454 110.444 141.761C109.972 142.068 109.403 142.189 108.847 142.1C98.4902 140.783 87.505 139.445 76.4184 138.715C76.8371 136.64 77.0476 134.529 77.0467 132.412C77.0649 129.574 76.7105 126.746 75.9927 124.001V123.96ZM98.6523 179.089C96.7877 180.163 94.8419 181.116 92.8961 182.15C90.5856 183.325 88.1738 184.562 85.9241 185.919C85.4379 186.203 84.8638 186.295 84.3133 186.179C83.7628 186.063 83.2751 185.747 82.9446 185.291C76.5399 177.022 69.7096 168.307 62.4537 159.997C66.6063 157.227 70.0723 153.546 72.5877 149.234C82.4688 157.003 91.4615 165.839 99.4022 175.583C99.6033 175.853 99.7467 176.161 99.8234 176.489C99.9001 176.817 99.9086 177.157 99.8482 177.488C99.7815 177.833 99.6398 178.158 99.4331 178.442C99.2265 178.726 98.9599 178.961 98.6523 179.13V179.089ZM49.5834 204.221C47.5566 203.674 45.4286 203.005 43.341 202.316C40.8683 201.526 38.2943 200.675 35.7405 200.067C35.2008 199.915 34.7346 199.572 34.4288 199.102C34.1231 198.633 33.9986 198.068 34.0785 197.513C35.3959 187.156 36.7336 176.15 37.4632 165.084C42.3542 166.05 47.4016 165.884 52.2184 164.598C53.7162 177.08 53.8181 189.69 52.5223 202.195C52.4793 202.527 52.3647 202.846 52.1862 203.129C52.0077 203.413 51.7696 203.654 51.4886 203.836C51.2227 204.045 50.9138 204.191 50.5842 204.264C50.2546 204.338 49.9127 204.337 49.5834 204.262V204.221ZM132.317 207.505H69.0408C86.8685 201.509 101.984 189.371 111.688 173.259C121.392 157.147 125.052 138.109 122.014 119.547C118.976 100.985 109.439 84.1079 95.1054 71.9293C80.7718 59.7507 62.5754 53.0642 43.7665 53.0642C24.9577 53.0642 6.76144 59.7507 -7.57221 71.9293C-21.9059 84.1079 -31.4433 100.985 -34.481 119.547C-37.5187 138.109 -33.8587 157.147 -24.1549 173.259C-14.451 189.371 0.664738 201.509 18.4924 207.505H-44.8045V51.4413H132.317V207.505Z" fill="#E7E7E7"/>
<path id="Vector_2" d="M70.6217 132.452C70.6377 127.131 69.0737 121.925 66.1277 117.493C63.1817 113.061 58.9862 109.604 54.0733 107.559C49.1603 105.515 43.751 104.974 38.5307 106.007C33.3104 107.04 28.5142 109.599 24.7499 113.361C20.9856 117.122 18.4227 121.916 17.386 127.136C16.3493 132.355 16.8855 137.765 18.9265 142.68C20.9676 147.594 24.4217 151.792 28.8511 154.741C33.2805 157.691 38.4857 159.259 43.8072 159.247C50.9104 159.231 57.7184 156.403 62.7431 151.382C67.7677 146.362 70.6003 139.556 70.6217 132.452ZM21.0867 132.452C21.0987 127.971 22.4381 123.594 24.9357 119.873C27.4333 116.152 30.9773 113.255 35.1202 111.546C39.2631 109.838 43.8192 109.395 48.2136 110.274C52.6079 111.152 56.6434 113.313 59.8108 116.483C62.9781 119.654 65.1354 123.691 66.0102 128.086C66.8849 132.481 66.438 137.037 64.7259 141.178C63.0137 145.32 60.1131 148.861 56.39 151.355C52.667 153.85 48.2885 155.185 43.8072 155.193C40.821 155.196 37.8637 154.609 35.1046 153.467C32.3455 152.325 29.8388 150.65 27.7282 148.537C25.6176 146.425 23.9446 143.917 22.805 141.157C21.6653 138.396 21.0814 135.439 21.0867 132.452Z" fill="#E7E7E7"/>
<path id="Vector_3" d="M133.597 35.7316C133.586 32.5921 132.333 29.5846 130.111 27.3665C127.889 25.1485 124.88 23.9004 121.74 23.895H60.2674L59.781 21.4629C59.5238 20.1841 58.8325 19.0335 57.824 18.2061C56.8156 17.3787 55.5522 16.9253 54.2478 16.9229H33.2704C31.9741 16.9243 30.7181 17.3726 29.7138 18.1922C28.7096 19.0118 28.0187 20.1527 27.7575 21.4223L27.2711 23.8545H-34.2017C-37.3428 23.8545 -40.3556 25.1009 -42.5786 27.3201C-44.8016 29.5393 -46.0532 32.5499 -46.0586 35.691V43.4537H133.597V35.7316ZM129.381 39.2987H-41.8631V35.7316C-41.8577 33.7032 -41.0482 31.7597 -39.612 30.3273C-38.1758 28.8949 -36.2301 28.0905 -34.2017 28.0905H31.2436V26.0637C31.2436 25.9218 31.2436 25.7394 31.2436 25.8205L31.9327 22.3749C31.9979 22.0511 32.1723 21.7596 32.4269 21.5492C32.6816 21.3388 33.001 21.2225 33.3312 21.2197H54.3086C54.6413 21.2216 54.9635 21.3372 55.2215 21.5473C55.4796 21.7575 55.658 22.0495 55.7273 22.3749L56.3759 25.5976V28.1716H121.842C123.868 28.1716 125.812 28.9766 127.245 30.4096C128.678 31.8426 129.483 33.7861 129.483 35.8126L129.381 39.2987Z" fill="#E7E7E7"/>
<path id="Vector_4" d="M27.3929 15.5658H60.1256C61.9587 15.5658 63.7166 14.8377 65.0128 13.5415C66.3089 12.2454 67.0371 10.4874 67.0371 8.65444V6.91139C67.0371 5.07837 66.3089 3.32043 65.0128 2.02429C63.7166 0.728158 61.9587 0 60.1256 0H27.3929C25.5599 0 23.8019 0.728158 22.5058 2.02429C21.2096 3.32043 20.4814 5.07837 20.4814 6.91139V8.65444C20.4814 10.4874 21.2096 12.2454 22.5058 13.5415C23.8019 14.8377 25.5599 15.5658 27.3929 15.5658ZM24.6972 6.91139C24.6972 6.19458 24.9805 5.50683 25.4855 4.99808C25.9904 4.48933 26.6761 4.20082 27.3929 4.19547H60.1256C60.4823 4.19547 60.8355 4.26572 61.165 4.40221C61.4945 4.5387 61.7939 4.73875 62.0461 4.99094C62.2982 5.24314 62.4984 5.54255 62.6349 5.87206C62.7714 6.20156 62.8416 6.55473 62.8416 6.91139V8.65444C62.8205 9.3606 62.525 10.0307 62.018 10.5227C61.5109 11.0146 60.8321 11.2896 60.1256 11.2893H27.3929C26.6761 11.2839 25.9904 10.9954 25.4855 10.4867C24.9805 9.97791 24.6972 9.29017 24.6972 8.57336V6.91139Z" fill="#E7E7E7"/>
</g>
</svg>
