<svg width="116" height="161" viewBox="0 0 116 161" fill="none" xmlns="http://www.w3.org/2000/svg">
<g id="Group 43010">
<path id="Vector" d="M89.0785 58.4308C89.6944 58.4308 90.2963 58.2482 90.8084 57.9061C91.3205 57.5639 91.7196 57.0775 91.9552 56.5086C92.1909 55.9396 92.2527 55.3135 92.1325 54.7095C92.0124 54.1055 91.7158 53.5506 91.2803 53.1151C90.8448 52.6797 90.29 52.3831 89.686 52.263C89.082 52.1428 88.4558 52.2045 87.8869 52.4402C87.3179 52.6759 86.8316 53.0749 86.4894 53.587C86.1473 54.0991 85.9646 54.7011 85.9646 55.317C85.9646 56.1428 86.2928 56.9348 86.8767 57.5188C87.4607 58.1027 88.2527 58.4308 89.0785 58.4308Z" fill="#E7E7E7"/>
<path id="Vector_2" d="M70.3495 61.4762C70.0614 61.7747 69.9004 62.1734 69.9004 62.5883C69.9004 63.0031 70.0614 63.4018 70.3495 63.7003C70.6453 63.9937 71.045 64.1584 71.4616 64.1584C71.8782 64.1584 72.2779 63.9937 72.5737 63.7003C72.7827 63.3922 72.8777 63.0208 72.8425 62.6501C72.8073 62.2794 72.644 61.9325 72.3807 61.6692C72.1174 61.4059 71.7705 61.2426 71.3998 61.2074C71.0292 61.1721 70.6577 61.2672 70.3495 61.4762Z" fill="#E7E7E7"/>
<path id="Vector_3" d="M70.3501 96.6846C70.128 96.9049 69.9763 97.1863 69.9143 97.4929C69.8524 97.7996 69.8829 98.1178 70.002 98.4071C70.1212 98.6964 70.3236 98.9438 70.5835 99.1179C70.8435 99.292 71.1493 99.3849 71.4622 99.3849C71.7751 99.3849 72.0809 99.292 72.3409 99.1179C72.6008 98.9438 72.8033 98.6964 72.9224 98.4071C73.0416 98.1178 73.072 97.7996 73.0101 97.4929C72.9481 97.1863 72.7964 96.9049 72.5743 96.6846C72.2785 96.3912 71.8788 96.2266 71.4622 96.2266C71.0456 96.2266 70.6459 96.3912 70.3501 96.6846Z" fill="#E7E7E7"/>
<path id="Vector_4" d="M105.559 96.6846C105.336 96.9049 105.185 97.1863 105.123 97.4929C105.061 97.7996 105.091 98.1178 105.211 98.4071C105.33 98.6964 105.532 98.9438 105.792 99.1179C106.052 99.292 106.358 99.3849 106.671 99.3849C106.984 99.3849 107.289 99.292 107.549 99.1179C107.809 98.9438 108.012 98.6964 108.131 98.4071C108.25 98.1178 108.281 97.7996 108.219 97.4929C108.157 97.1863 108.005 96.9049 107.783 96.6846C107.487 96.3912 107.087 96.2266 106.671 96.2266C106.254 96.2266 105.854 96.3912 105.559 96.6846Z" fill="#E7E7E7"/>
<path id="Vector_5" d="M105.558 61.4762C105.27 61.7747 105.109 62.1734 105.109 62.5883C105.109 63.0031 105.27 63.4018 105.558 63.7003C105.853 63.9937 106.253 64.1584 106.67 64.1584C107.086 64.1584 107.486 63.9937 107.782 63.7003C107.991 63.3922 108.086 63.0208 108.051 62.6501C108.015 62.2794 107.852 61.9325 107.589 61.6692C107.326 61.4059 106.979 61.2426 106.608 61.2074C106.237 61.1721 105.866 61.2672 105.558 61.4762Z" fill="#E7E7E7"/>
<path id="Vector_6" d="M64.1877 77.1123C63.5709 77.1123 62.968 77.2955 62.4555 77.6387C61.9429 77.9818 61.5438 78.4694 61.3088 79.0397C61.0738 79.61 61.0135 80.2372 61.1355 80.8418C61.2574 81.4465 61.5562 82.0013 61.9939 82.4359C62.4316 82.8704 62.9885 83.1653 63.594 83.2829C64.1995 83.4005 64.8263 83.3357 65.3948 83.0966C65.9634 82.8575 66.4481 82.4549 66.7876 81.9399C67.1271 81.4249 67.306 80.8207 67.3016 80.2039C67.2957 79.382 66.965 78.5956 66.3817 78.0165C65.7984 77.4373 65.0097 77.1123 64.1877 77.1123Z" fill="#E7E7E7"/>
<path id="Vector_7" d="M89.0785 101.978C88.4626 101.978 87.8605 102.16 87.3484 102.502C86.8364 102.845 86.4373 103.331 86.2016 103.9C85.9659 104.469 85.9043 105.095 86.0244 105.699C86.1446 106.303 86.4412 106.858 86.8767 107.293C87.3122 107.729 87.867 108.025 88.471 108.145C89.075 108.266 89.7011 108.204 90.2701 107.968C90.8391 107.733 91.3254 107.333 91.6676 106.821C92.0097 106.309 92.1922 105.707 92.1922 105.091C92.1922 104.266 91.8642 103.474 91.2803 102.89C90.6963 102.306 89.9043 101.978 89.0785 101.978Z" fill="#E7E7E7"/>
<path id="Vector_8" d="M113.967 77.1123C113.35 77.1123 112.747 77.2955 112.234 77.6387C111.722 77.9818 111.323 78.4694 111.088 79.0397C110.853 79.61 110.792 80.2372 110.914 80.8418C111.036 81.4465 111.335 82.0013 111.773 82.4359C112.21 82.8704 112.767 83.1653 113.373 83.2829C113.978 83.4005 114.605 83.3357 115.174 83.0966C115.742 82.8575 116.227 82.4549 116.566 81.9399C116.906 81.4249 117.085 80.8207 117.08 80.2039C117.074 79.382 116.744 78.5956 116.161 78.0165C115.577 77.4373 114.789 77.1123 113.967 77.1123Z" fill="#E7E7E7"/>
<path id="Vector_9" d="M89.0784 0.000305306C77.3744 -0.0321487 65.808 2.52318 55.207 7.48338C44.606 12.4436 35.2327 19.686 27.7579 28.6922L19.3728 25.4449C17.2105 24.608 14.8764 24.3119 12.5736 24.5825C10.2708 24.8531 8.06892 25.6821 6.15948 26.9974C4.25004 28.3128 2.69084 30.0746 1.6174 32.1298C0.543953 34.185 -0.0112234 36.4713 0.000171943 38.79V117.971C-0.0112234 120.289 0.543953 122.575 1.6174 124.631C2.69084 126.686 4.25004 128.448 6.15948 129.763C8.06892 131.078 10.2708 131.907 12.5736 132.178C14.8764 132.449 17.2105 132.153 19.3728 131.316L25.4447 128.958C33.7291 139.751 44.6271 148.255 57.11 153.667C69.5929 159.079 83.2491 161.221 96.7896 159.891C110.33 158.56 123.308 153.802 134.499 146.064C145.69 138.326 154.725 127.864 160.751 115.665C166.776 103.466 169.594 89.9335 168.938 76.3436C168.282 62.7537 164.174 49.5552 157.002 37.9936C149.829 26.432 139.829 16.8887 127.945 10.2645C116.06 3.64034 102.684 0.153717 89.0784 0.13375V0.000305306ZM163.255 75.3331C158.716 73.3736 153.818 72.3813 148.874 72.4196C143.93 72.4579 139.049 73.5259 134.541 75.5556C133.41 64.6202 128.376 54.4587 120.361 46.934C112.346 39.4092 101.887 35.0255 90.9023 34.5862C88.4782 30.1852 87.2071 25.2425 87.2071 20.2181C87.2071 15.1936 88.4782 10.2509 90.9023 5.8499C109.454 6.32522 127.159 13.7148 140.545 26.5693C153.93 39.4238 162.029 56.8155 163.255 75.3331ZM89.0784 120.106C81.9456 120.093 74.9455 118.176 68.8024 114.551C62.6592 110.926 57.596 105.725 54.1366 99.4877C53.6918 98.687 53.3137 97.864 52.9133 97.041V63.3671L53.4249 62.2994L54.0254 61.1652C57.392 54.9738 62.3384 49.7845 68.3615 46.1252C74.3845 42.4658 81.2691 40.4669 88.3154 40.3319C95.3616 40.1969 102.318 41.9305 108.477 45.3564C114.635 48.7823 119.777 53.7783 123.378 59.8361C126.98 65.894 128.912 72.7976 128.98 79.8448C129.047 86.892 127.247 93.8313 123.762 99.9569C120.277 106.083 115.232 111.176 109.14 114.719C103.048 118.262 96.1259 120.128 89.0784 120.128V120.106ZM84.1852 6.07229C82.2297 10.6221 81.2454 15.5301 81.2952 20.4821C81.345 25.4342 82.4278 30.3212 84.4744 34.8309C78.2969 35.4565 72.312 37.3354 66.8853 40.3527C61.4587 43.3701 56.7045 47.4624 52.9133 52.3796V50.9339C52.9342 47.2658 51.8362 43.6784 49.7658 40.6503C47.6954 37.6222 44.7511 35.2974 41.3254 33.9857L33.474 30.9608C39.8687 23.6741 47.6412 17.7239 56.3443 13.4525C65.0473 9.18116 74.5091 6.67297 84.1852 6.07229ZM17.2598 125.777C15.9827 126.274 14.6035 126.451 13.2424 126.293C11.8813 126.135 10.5794 125.646 9.45013 124.87C8.32089 124.094 7.3985 123.053 6.76324 121.839C6.12799 120.625 5.79913 119.274 5.8053 117.904V38.7232C5.79634 37.3527 6.12427 36.0011 6.76033 34.7872C7.39638 33.5732 8.32103 32.5342 9.45292 31.7615C10.8472 30.8016 12.4977 30.2824 14.1904 30.2713C15.2424 30.2746 16.2842 30.4784 17.2598 30.8719L39.2124 39.346C41.5493 40.2369 43.5591 41.819 44.9737 43.8814C46.3884 45.9438 47.1408 48.3885 47.1305 50.8894V62.1215V105.76C47.1408 108.261 46.3884 110.705 44.9737 112.768C43.5591 114.83 41.5493 116.412 39.2124 117.303L27.4243 121.863L27.1129 121.463L25.2891 122.686L17.2598 125.777ZM31.0719 126.645L41.3254 122.686C44.4017 121.502 47.0942 119.497 49.11 116.889C51.1258 114.281 52.3874 111.17 52.7576 107.895C56.8397 113.228 62.0476 117.596 68.0102 120.687C73.9728 123.777 80.5436 125.516 87.2546 125.777C89.6787 130.174 90.9499 135.114 90.9499 140.134C90.9499 145.155 89.6787 150.095 87.2546 154.492C76.4269 154.238 65.7865 151.614 56.0832 146.802C46.3798 141.991 37.8498 135.11 31.0942 126.645H31.0719ZM93.9494 154.38C95.9089 149.841 96.9012 144.944 96.8629 140C96.8246 135.056 95.7565 130.174 93.7269 125.666C104.66 124.531 114.819 119.495 122.343 111.481C129.867 103.467 134.252 93.0113 134.696 82.0279C139.084 79.5867 144.018 78.2963 149.039 78.2769C154.06 78.2574 159.004 79.5096 163.41 81.9167C162.963 100.485 155.588 118.214 142.736 131.622C129.883 145.03 112.482 153.148 93.9494 154.38Z" fill="#E7E7E7"/>
<path id="Vector_10" d="M89.0787 66.1904C86.302 66.1904 83.5876 67.0142 81.2792 68.5573C78.9707 70.1004 77.172 72.2936 76.1104 74.8593C75.0488 77.4251 74.7722 80.2481 75.3155 82.9712C75.8588 85.6942 77.1977 88.1949 79.1627 90.1568C81.1277 92.1187 83.6304 93.4535 86.3543 93.9926C89.0782 94.5316 91.9009 94.2505 94.465 93.1848C97.0291 92.1192 99.2193 90.3169 100.759 88.006C102.298 85.6951 103.118 82.9795 103.113 80.2028C103.107 76.4844 101.626 72.9204 98.9948 70.2932C96.3634 67.666 92.7971 66.1904 89.0787 66.1904ZM89.0787 88.4322C87.4511 88.4322 85.86 87.9495 84.5067 87.0453C83.1534 86.141 82.0986 84.8558 81.4758 83.352C80.8529 81.8483 80.6899 80.1936 81.0074 78.5973C81.3249 77.0009 82.1088 75.5346 83.2597 74.3837C84.4106 73.2327 85.8768 72.449 87.4732 72.1315C89.0695 71.8139 90.7242 71.9769 92.2279 72.5997C93.7317 73.2226 95.017 74.2774 95.9212 75.6307C96.8255 76.984 97.3082 78.5751 97.3082 80.2028C97.3082 81.2835 97.0953 82.3536 96.6817 83.352C96.2681 84.3505 95.662 85.2576 94.8978 86.0218C94.1336 86.786 93.2264 87.3922 92.2279 87.8057C91.2295 88.2193 90.1594 88.4322 89.0787 88.4322Z" fill="#E7E7E7"/>
</g>
</svg>
