<svg width="146" height="170" viewBox="0 0 146 170" fill="none" xmlns="http://www.w3.org/2000/svg">
<g id="Group 43009">
<path id="Vector" d="M6.65493 162.947C3.02262 159.318 0.728161 154.564 0.146261 149.462C-0.43564 144.36 0.729431 139.212 3.45113 134.858C6.17283 130.503 10.2903 127.201 15.1314 125.489C19.9724 123.776 25.251 123.756 30.105 125.431L32.1318 118.115C32.4351 117.053 32.9995 116.084 33.7735 115.297L35.1922 113.899C35.795 113.292 36.5119 112.811 37.3015 112.482C38.0911 112.154 38.9379 111.984 39.7931 111.984C40.6483 111.984 41.4951 112.154 42.2847 112.482C43.0743 112.811 43.7911 113.292 44.3939 113.899L55.6427 125.127C56.8581 126.35 57.5403 128.004 57.5403 129.728C57.5403 131.452 56.8581 133.106 55.6427 134.329L54.2239 135.748C53.4458 136.528 52.4839 137.099 51.4269 137.41L44.0899 139.436C45.7536 144.28 45.7307 149.543 44.025 154.372C42.3192 159.201 39.0309 163.311 34.6941 166.034C30.3574 168.758 25.2272 169.935 20.1368 169.375C15.0465 168.814 10.2952 166.549 6.65493 162.947ZM42.5495 115.824C42.1991 115.471 41.7823 115.191 41.3232 115C40.864 114.809 40.3716 114.71 39.8742 114.71C39.3768 114.71 38.8843 114.809 38.4252 115C37.966 115.191 37.5492 115.471 37.1988 115.824L35.78 117.223C35.3332 117.684 35.0061 118.248 34.8274 118.864L32.3142 127.62C32.2558 127.804 32.161 127.974 32.0357 128.12C31.9104 128.266 31.7569 128.386 31.5845 128.471C31.4097 128.552 31.2196 128.593 31.0272 128.593C30.8348 128.593 30.6447 128.552 30.4698 128.471C26.1971 126.663 21.4286 126.396 16.9807 127.717C12.5329 129.037 8.68223 131.862 6.08799 135.709C3.49374 139.555 2.31723 144.184 2.75986 148.803C3.20249 153.421 5.23674 157.742 8.51436 161.026C11.792 164.31 16.1091 166.352 20.7268 166.804C25.3445 167.255 29.9754 166.087 33.827 163.501C37.6785 160.914 40.5111 157.068 41.8398 152.623C43.1685 148.178 42.9107 143.409 41.1105 139.132C41.0358 138.953 40.9973 138.76 40.9973 138.565C40.9973 138.37 41.0358 138.177 41.1105 137.997C41.1988 137.825 41.3219 137.673 41.4719 137.551C41.6219 137.429 41.7956 137.34 41.982 137.288L50.7378 134.775C51.3497 134.588 51.9064 134.254 52.3592 133.802L53.778 132.383C54.131 132.033 54.4112 131.616 54.6023 131.157C54.7935 130.698 54.8919 130.205 54.8919 129.708C54.8919 129.21 54.7935 128.718 54.6023 128.259C54.4112 127.8 54.131 127.383 53.778 127.032L42.5495 115.824ZM13.0191 156.583C11.1058 154.666 9.80367 152.225 9.27731 149.568C8.75095 146.911 9.02395 144.157 10.0618 141.655C11.0996 139.153 12.8558 137.015 15.1083 135.511C17.3608 134.007 20.0087 133.204 22.7173 133.204C25.4259 133.204 28.0738 134.007 30.3263 135.511C32.5789 137.015 34.3349 139.153 35.3728 141.655C36.4106 144.157 36.6836 146.911 36.1573 149.568C35.6309 152.225 34.3288 154.666 32.4155 156.583C29.8392 159.155 26.3476 160.6 22.7072 160.6C19.0668 160.6 15.5752 159.155 12.9988 156.583H13.0191ZM30.4901 139.132C28.9544 137.595 26.997 136.547 24.8657 136.122C22.7344 135.697 20.5249 135.914 18.5167 136.745C16.5086 137.576 14.792 138.984 13.5843 140.79C12.3766 142.597 11.732 144.722 11.732 146.895C11.732 149.068 12.3766 151.193 13.5843 153C14.792 154.806 16.5086 156.215 18.5167 157.046C20.5249 157.877 22.7344 158.093 24.8657 157.668C26.997 157.243 28.9544 156.196 30.4901 154.658C32.5346 152.59 33.6795 149.799 33.6757 146.891C33.6719 143.983 32.5197 141.195 30.4698 139.132H30.4901Z" fill="#E7E7E7"/>
<path id="Vector_2" d="M59.5746 129.017L40.0566 109.499C38.3251 107.756 37.3533 105.399 37.3533 102.943C37.3533 100.486 38.3251 98.1287 40.0566 96.3859L49.0758 87.3666C49.3333 87.1153 49.6788 86.9746 50.0386 86.9746C50.3984 86.9746 50.7439 87.1153 51.0013 87.3666L54.8927 91.2581H98.9351C99.2043 91.2639 99.4661 91.3474 99.689 91.4984C99.9119 91.6494 100.086 91.8615 100.192 92.1093C100.299 92.3559 100.329 92.6289 100.278 92.8928C100.227 93.1567 100.098 93.3993 99.908 93.5889L78.5658 114.931L81.7073 118.073C81.9586 118.33 82.0993 118.676 82.0993 119.035C82.0993 119.395 81.9586 119.741 81.7073 119.998L72.688 129.017C71.8277 129.88 70.8057 130.564 69.6806 131.03C68.5555 131.497 67.3494 131.737 66.1314 131.737C64.9133 131.737 63.7072 131.497 62.5821 131.03C61.457 130.564 60.435 129.88 59.5746 129.017ZM50.0284 90.2649L41.9212 98.3721C40.6972 99.6026 40.01 101.268 40.01 103.003C40.01 104.739 40.6972 106.404 41.9212 107.635L61.4393 127.153C62.6698 128.377 64.3349 129.064 66.0706 129.064C67.8062 129.064 69.4713 128.377 70.7018 127.153L78.809 119.045L75.6674 115.904C75.4161 115.646 75.2755 115.301 75.2755 114.941C75.2755 114.581 75.4161 114.236 75.6674 113.978L95.6517 93.9942H54.3252C54.1443 93.9949 53.965 93.9594 53.7979 93.8898C53.6308 93.8202 53.4794 93.7179 53.3524 93.5889L50.0284 90.2649Z" fill="#E7E7E7"/>
<path id="Vector_3" d="M63.057 83.5148C62.9333 83.3947 62.8366 83.2496 62.7733 83.0892C62.6676 82.8391 62.6381 82.5632 62.6886 82.2964C62.7391 82.0295 62.8672 81.7836 63.057 81.5893L73.941 70.7257C74.068 70.5967 74.2194 70.4944 74.3865 70.4248C74.5535 70.3552 74.7328 70.3196 74.9138 70.3203H119.889C120.156 70.3219 120.417 70.4014 120.64 70.5489C120.864 70.6965 121.039 70.9058 121.145 71.1513C121.243 71.4042 121.267 71.6799 121.213 71.9458C121.159 72.2116 121.03 72.4563 120.841 72.6511L110.018 83.5148C109.896 83.6451 109.749 83.7485 109.585 83.8183C109.421 83.8881 109.244 83.9228 109.065 83.9201H64.0299C63.8489 83.9208 63.6696 83.8853 63.5026 83.8157C63.3355 83.7461 63.184 83.6438 63.057 83.5148ZM75.4611 73.0362L67.3539 81.1434H108.478L116.585 73.0362H75.4611Z" fill="#E7E7E7"/>
<path id="Vector_4" d="M84.0143 62.5781C83.8904 62.4462 83.7878 62.2958 83.7102 62.1322C83.6114 61.8828 83.5875 61.61 83.6415 61.3471C83.6955 61.0843 83.8251 60.843 84.0143 60.6527L94.8982 49.7688C95.0199 49.6385 95.1675 49.5351 95.3315 49.4652C95.4956 49.3954 95.6725 49.3607 95.8508 49.3634H140.825C141.095 49.3667 141.358 49.4492 141.582 49.6005C141.805 49.7518 141.979 49.9654 142.082 50.2147C142.189 50.4613 142.219 50.7343 142.168 50.9982C142.118 51.2621 141.989 51.5046 141.798 51.6942L130.914 62.5781C130.787 62.7071 130.636 62.8094 130.469 62.8791C130.302 62.9487 130.122 62.9842 129.942 62.9835H84.9669C84.6083 62.9795 84.2658 62.8337 84.0143 62.5781ZM96.4183 52.0996L88.3111 60.2068H129.435L137.542 52.0996H96.4183Z" fill="#E7E7E7"/>
<path id="Vector_5" d="M104.952 41.6207C104.823 41.497 104.726 41.3441 104.668 41.1748C104.562 40.9282 104.532 40.6552 104.582 40.3913C104.633 40.1274 104.762 39.8848 104.952 39.6952L118.998 25.6495C120.1 24.548 121.595 23.9292 123.153 23.9292C124.711 23.9292 126.206 24.548 127.308 25.6495L127.774 26.136L135.881 18.0288C135.647 14.5829 136.475 11.148 138.254 8.1875C140.033 5.22701 142.677 2.88333 145.829 1.47259C148.982 0.0618488 152.492 -0.34806 155.884 0.298154C159.277 0.944367 162.39 2.61561 164.804 5.08644C167.217 7.55728 168.814 10.7088 169.38 14.116C169.947 17.5231 169.454 21.0219 167.969 24.1404C166.485 27.2589 164.08 29.847 161.078 31.5557C158.076 33.2644 154.623 34.0114 151.184 33.6959L143.218 41.641C143.091 41.77 142.94 41.8723 142.773 41.9419C142.606 42.0115 142.426 42.047 142.245 42.0464H105.966C105.776 42.05 105.588 42.014 105.414 41.9407C105.239 41.8674 105.082 41.7584 104.952 41.6207ZM125.382 27.575C124.787 26.9907 123.987 26.6634 123.153 26.6634C122.319 26.6634 121.518 26.9907 120.923 27.575L109.209 39.3102H141.637L149.745 31.203C149.894 31.0533 150.076 30.9405 150.277 30.8736C150.477 30.8068 150.691 30.7877 150.9 30.8179C153.826 31.2228 156.806 30.7039 159.424 29.3337C162.041 27.9635 164.166 25.8103 165.501 23.1746C166.836 20.5389 167.315 17.5522 166.87 14.6314C166.426 11.7105 165.081 9.00109 163.023 6.88132C160.965 4.76156 158.297 3.33717 155.39 2.80691C152.484 2.27666 149.484 2.66698 146.81 3.92345C144.136 5.17992 141.921 7.23984 140.474 9.81572C139.027 12.3916 138.421 15.355 138.739 18.2922C138.763 18.4951 138.74 18.7006 138.674 18.8936C138.607 19.0866 138.498 19.2621 138.354 19.407L128.828 28.9329C128.701 29.0758 128.544 29.19 128.37 29.2683C128.195 29.3465 128.006 29.387 127.815 29.387C127.623 29.387 127.434 29.3465 127.259 29.2683C127.085 29.19 126.929 29.0758 126.801 28.9329L125.382 27.575ZM145.367 24.2105C143.916 22.7628 142.928 20.9174 142.527 18.9078C142.126 16.8983 142.33 14.8149 143.113 12.9213C143.896 11.0277 145.224 9.40905 146.927 8.27017C148.631 7.1313 150.634 6.52338 152.683 6.52338C154.733 6.52338 156.736 7.1313 158.439 8.27017C160.143 9.40905 161.47 11.0277 162.254 12.9213C163.037 14.8149 163.241 16.8983 162.84 18.9078C162.439 20.9174 161.45 22.7628 160 24.2105C158.058 26.1487 155.427 27.2373 152.683 27.2373C149.94 27.2373 147.308 26.1487 145.367 24.2105ZM158.075 11.5025C157.009 10.4374 155.651 9.71233 154.173 9.41887C152.695 9.12542 151.163 9.27678 149.771 9.85379C148.378 10.4308 147.189 11.4076 146.352 12.6607C145.515 13.9137 145.068 15.3868 145.068 16.8937C145.068 18.4007 145.515 19.8738 146.352 21.1269C147.189 22.3799 148.378 23.3567 149.771 23.9337C151.163 24.5107 152.695 24.6621 154.173 24.3686C155.651 24.0752 157.009 23.3501 158.075 22.285C159.5 20.853 160.301 18.9145 160.301 16.8937C160.301 14.873 159.5 12.9345 158.075 11.5025Z" fill="#E7E7E7"/>
</g>
</svg>
