<svg width="133" height="189" viewBox="0 0 133 189" fill="none" xmlns="http://www.w3.org/2000/svg">
<g id="Group 43015">
<path id="Vector" d="M94.3679 188.695C75.7069 188.699 57.4636 183.169 41.9456 172.805C26.4276 162.44 14.3317 147.706 7.18767 130.467C0.0436257 113.227 -1.82771 94.2567 1.81042 75.9537C5.44855 57.6507 14.4327 40.8378 27.6266 27.641C40.8206 14.4442 57.6317 5.45645 75.9338 1.81438C94.236 -1.82768 113.207 0.039542 130.448 7.17989C147.689 14.3202 162.425 26.413 172.793 41.9288C183.161 57.4446 188.695 75.6866 188.695 94.3476C188.668 119.358 178.722 143.337 161.039 161.025C143.355 178.712 119.379 188.663 94.3679 188.695ZM94.3679 2.97945C76.2921 2.97945 58.6223 8.3398 43.5931 18.3826C28.5639 28.4254 16.8504 42.6995 9.93407 59.3997C3.0177 76.1 1.20905 94.4762 4.73693 112.204C8.26482 129.932 16.9707 146.216 29.7536 158.996C42.5366 171.776 58.8223 180.479 76.5513 184.003C94.2802 187.527 112.656 185.714 129.355 178.794C146.053 171.874 160.325 160.157 170.364 145.126C180.404 130.094 185.76 112.423 185.756 94.3476C185.708 70.1341 176.061 46.9275 158.93 29.8154C141.799 12.7033 118.581 3.08195 94.3679 3.06054V2.97945Z" fill="#E7E7E7"/>
<path id="Vector_2" d="M94.3691 163.36C80.7397 163.36 67.4164 159.318 56.084 151.746C44.7516 144.174 35.9191 133.411 30.7034 120.82C25.4877 108.228 24.1229 94.3719 26.7819 81.0045C29.4408 67.637 36.0041 55.3582 45.6415 45.7208C55.2789 36.0834 67.5576 29.5202 80.9251 26.8612C94.2925 24.2023 108.148 25.567 120.74 30.7827C133.332 35.9984 144.095 44.831 151.667 56.1634C159.239 67.4958 163.28 80.819 163.28 94.4483C163.28 112.725 156.02 130.253 143.097 143.176C130.173 156.099 112.645 163.36 94.3691 163.36ZM94.3691 28.476C81.3201 28.476 68.5642 32.3458 57.7147 39.5958C46.8652 46.8458 38.4093 57.1504 33.4166 69.2065C28.4239 81.2625 27.1187 94.5285 29.6659 107.326C32.2131 120.124 38.4983 131.879 47.7267 141.105C56.9551 150.331 68.7122 156.612 81.5109 159.156C94.3096 161.699 107.575 160.389 119.63 155.393C131.684 150.397 141.986 141.938 149.233 131.086C156.48 120.234 160.345 107.477 160.341 94.4281C160.293 76.9571 153.323 60.2174 140.958 47.8749C128.593 35.5325 111.84 28.5934 94.3691 28.5774V28.476Z" fill="#E7E7E7"/>
<path id="Vector_3" d="M94.3672 105.837C92.1104 105.837 89.9042 105.168 88.0277 103.914C86.1512 102.66 84.6886 100.878 83.8249 98.7933C82.9612 96.7082 82.7353 94.4139 83.1756 92.2004C83.6159 89.9869 84.7027 87.9537 86.2985 86.3578C87.8944 84.762 89.9275 83.6752 92.141 83.2349C94.3545 82.7946 96.6489 83.0206 98.7339 83.8842C100.819 84.7479 102.601 86.2105 103.855 88.087C105.109 89.9635 105.778 92.1697 105.778 94.4265C105.773 97.4512 104.569 100.351 102.43 102.489C100.291 104.628 97.392 105.832 94.3672 105.837ZM94.3672 85.9748C92.6956 85.9748 91.0615 86.4705 89.6716 87.3991C88.2817 88.3278 87.1985 89.6478 86.5588 91.1922C85.9191 92.7365 85.7517 94.4359 86.0778 96.0754C86.4039 97.7149 87.2089 99.2208 88.3909 100.403C89.5729 101.585 91.0789 102.39 92.7184 102.716C94.3579 103.042 96.0572 102.875 97.6015 102.235C99.1459 101.595 100.466 100.512 101.395 99.1221C102.323 97.7322 102.819 96.0981 102.819 94.4265C102.819 92.185 101.928 90.0352 100.343 88.4502C98.7585 86.8652 96.6088 85.9748 94.3672 85.9748Z" fill="#E7E7E7"/>
<path id="Vector_4" d="M94.3681 85.977C93.9757 85.977 93.5992 85.8212 93.3218 85.5437C93.0443 85.2662 92.8884 84.8899 92.8884 84.4975V26.9972C92.8884 26.6048 93.0443 26.2285 93.3218 25.951C93.5992 25.6735 93.9757 25.5176 94.3681 25.5176C94.7605 25.5176 95.1368 25.6735 95.4143 25.951C95.6917 26.2285 95.8476 26.6048 95.8476 26.9972V84.4975C95.8476 84.8899 95.6917 85.2662 95.4143 85.5437C95.1368 85.8212 94.7605 85.977 94.3681 85.977Z" fill="#E7E7E7"/>
<path id="Vector_5" d="M84.9216 92.847C84.7743 92.8759 84.6229 92.8759 84.4757 92.847L29.7521 75.072C29.5488 75.0292 29.3569 74.9441 29.1887 74.8222C29.0204 74.7003 28.8797 74.5444 28.7757 74.3646C28.6718 74.1847 28.6069 73.985 28.5852 73.7784C28.5636 73.5718 28.5856 73.3629 28.65 73.1654C28.7144 72.9679 28.8198 72.7862 28.9591 72.6321C29.0983 72.4779 29.2685 72.3549 29.4585 72.2709C29.6485 72.1869 29.854 72.1438 30.0618 72.1445C30.2695 72.1452 30.4748 72.1897 30.6642 72.275L85.3878 90.0298C85.7092 90.1531 85.9782 90.3833 86.15 90.6816C86.3217 90.98 86.3857 91.3283 86.3311 91.6681C86.2764 92.008 86.1065 92.3187 85.8498 92.5481C85.5932 92.7775 85.2654 92.9117 84.9216 92.9281V92.847Z" fill="#E7E7E7"/>
<path id="Vector_6" d="M54.7248 150.467C54.4174 150.47 54.1176 150.37 53.8735 150.183C53.5645 149.956 53.356 149.617 53.2917 149.239C53.2274 148.861 53.3125 148.473 53.5289 148.156L87.336 101.54C87.5671 101.223 87.9148 101.01 88.3025 100.95C88.6902 100.889 89.0862 100.984 89.4033 101.216C89.7205 101.447 89.9328 101.794 89.9937 102.182C90.0545 102.57 89.9587 102.966 89.7276 103.283L55.9206 149.798C55.7925 150 55.6162 150.167 55.4074 150.284C55.1986 150.401 54.964 150.464 54.7248 150.467Z" fill="#E7E7E7"/>
<path id="Vector_7" d="M134.012 150.47C133.778 150.471 133.548 150.417 133.34 150.311C133.132 150.205 132.952 150.051 132.816 149.861L99.0087 103.346C98.795 103.031 98.7096 102.645 98.7698 102.269C98.8301 101.892 99.0315 101.553 99.3331 101.32C99.6455 101.096 100.034 101.004 100.413 101.065C100.792 101.126 101.133 101.334 101.36 101.644L135.167 148.26C135.385 148.574 135.474 148.961 135.413 149.339C135.353 149.717 135.148 150.057 134.842 150.287C134.591 150.433 134.301 150.497 134.012 150.47Z" fill="#E7E7E7"/>
<path id="Vector_8" d="M103.812 92.8461C103.454 92.8526 103.106 92.7291 102.832 92.4984C102.559 92.2678 102.378 91.9456 102.323 91.5917C102.269 91.2378 102.344 90.8762 102.536 90.5739C102.728 90.2716 103.023 90.0491 103.367 89.9477L158.09 72.193C158.28 72.1077 158.485 72.0632 158.692 72.0625C158.9 72.0618 159.106 72.1049 159.296 72.1889C159.486 72.2729 159.656 72.3959 159.795 72.55C159.935 72.7042 160.04 72.8859 160.104 73.0834C160.169 73.2809 160.191 73.4898 160.169 73.6964C160.147 73.903 160.083 74.1027 159.979 74.2825C159.875 74.4624 159.734 74.6183 159.566 74.7402C159.398 74.8621 159.205 74.9472 159.002 74.99L104.279 92.765C104.13 92.8213 103.972 92.8488 103.812 92.8461Z" fill="#E7E7E7"/>
<path id="Vector_9" d="M94.3683 109.77C91.3338 109.77 88.3673 108.87 85.8442 107.184C83.3211 105.498 81.3546 103.102 80.1933 100.298C79.0321 97.4947 78.7282 94.4098 79.3202 91.4336C79.9122 88.4573 81.3734 85.7235 83.5192 83.5778C85.6649 81.4321 88.3988 79.9708 91.375 79.3788C94.3512 78.7868 97.4362 79.0906 100.24 80.2519C103.043 81.4132 105.439 83.3797 107.125 85.9028C108.811 88.4259 109.711 91.3923 109.711 94.4268C109.706 98.4944 108.088 102.394 105.211 105.27C102.335 108.146 98.4358 109.764 94.3683 109.77ZM94.3683 81.5972C91.826 81.5972 89.3407 82.3514 87.2271 83.7642C85.1135 85.1771 83.4666 87.1852 82.4946 89.5344C81.5226 91.8836 81.2693 94.4683 81.7667 96.9615C82.2642 99.4547 83.49 101.744 85.2891 103.541C87.0883 105.337 89.3798 106.559 91.8738 107.053C94.3677 107.546 96.9521 107.289 99.2997 106.313C101.647 105.337 103.653 103.687 105.062 101.571C106.472 99.4556 107.222 96.9692 107.218 94.4268C107.213 91.0223 105.857 87.7591 103.447 85.3537C101.038 82.9482 97.7728 81.5972 94.3683 81.5972Z" fill="#E7E7E7"/>
</g>
</svg>
