<svg width="138" height="184" viewBox="0 0 138 184" fill="none" xmlns="http://www.w3.org/2000/svg">
<g id="Group 43014">
<path id="Vector" d="M39.2327 183.152H25.0709C24.8203 183.15 24.5788 183.057 24.3911 182.891C24.2034 182.725 24.0821 182.496 24.0498 182.248L23.5811 178.096L20.7521 181.126C20.5822 181.311 20.35 181.428 20.0998 181.452C19.8496 181.477 19.599 181.409 19.3962 181.26L7.92952 172.89C7.72764 172.74 7.58744 172.521 7.53508 172.274C7.48273 172.028 7.52176 171.771 7.64492 171.551L9.70392 167.935L5.60267 168.755C5.35664 168.813 5.09807 168.773 4.88012 168.646C4.66217 168.518 4.50144 168.312 4.43093 168.069L0.0450845 154.594C-0.0276762 154.353 -0.0119702 154.094 0.0893245 153.864C0.190619 153.634 0.370861 153.447 0.597523 153.338L4.39741 151.664L0.597523 149.99C0.370861 149.881 0.190619 149.695 0.0893245 149.465C-0.0119702 149.234 -0.0276762 148.976 0.0450845 148.735L4.43093 135.343C4.50486 135.102 4.66548 134.896 4.88186 134.767C5.09823 134.637 5.355 134.592 5.60267 134.64L9.70392 135.477L7.64492 131.844C7.52176 131.625 7.48273 131.368 7.53508 131.121C7.58744 130.875 7.72764 130.656 7.92952 130.505L19.3962 122.135C19.5976 121.983 19.8491 121.913 20.1003 121.937C20.3516 121.962 20.5843 122.081 20.7521 122.269L23.5811 125.349L24.0498 121.198C24.0784 120.946 24.198 120.714 24.386 120.544C24.5741 120.375 24.8177 120.28 25.0709 120.277H39.2327C39.4859 120.28 39.7295 120.375 39.9176 120.544C40.1057 120.714 40.2253 120.946 40.2539 121.198L40.7393 125.349L43.5516 122.269C43.7222 122.08 43.9578 121.96 44.2119 121.936C44.4659 121.911 44.7201 121.982 44.9242 122.135L56.3742 130.505C56.579 130.654 56.7216 130.873 56.7741 131.12C56.8267 131.368 56.7856 131.626 56.6587 131.844L54.6165 135.477L58.701 134.64C58.9508 134.591 59.21 134.636 59.4291 134.765C59.6483 134.895 59.8121 135.1 59.8895 135.343L64.2586 148.735C64.3388 148.975 64.3266 149.237 64.2245 149.469C64.1224 149.701 63.9376 149.887 63.7061 149.99L59.923 151.664L63.7061 153.338C63.9376 153.442 64.1224 153.627 64.2245 153.859C64.3266 154.091 64.3388 154.353 64.2586 154.594L59.8895 168.069C59.8089 168.309 59.6437 168.51 59.4249 168.637C59.206 168.763 58.9487 168.805 58.701 168.755L54.6165 167.935L56.6587 171.551C56.7856 171.77 56.8267 172.028 56.7741 172.275C56.7216 172.523 56.579 172.742 56.3742 172.89L44.9242 181.26C44.7174 181.406 44.465 181.473 44.213 181.449C43.9609 181.424 43.7262 181.31 43.5516 181.126L40.7393 178.046L40.2539 182.197C40.2368 182.457 40.1217 182.699 39.9321 182.877C39.7424 183.054 39.4923 183.152 39.2327 183.152ZM25.9581 181.126H38.2785L38.831 176.355C38.853 176.158 38.9331 175.971 39.0613 175.819C39.1894 175.667 39.3598 175.557 39.5508 175.502L40.0697 175.301C40.259 175.236 40.463 175.229 40.6565 175.28C40.8499 175.33 41.0242 175.437 41.1578 175.585L44.422 179.134L54.3822 171.886L52.0386 167.734C51.9311 167.567 51.874 167.372 51.874 167.174C51.874 166.975 51.9311 166.78 52.0386 166.613L52.1725 166.429L52.3734 166.178C52.4853 166.013 52.6438 165.885 52.8286 165.81C53.0135 165.736 53.2162 165.718 53.4112 165.759L58.1486 166.73L61.9485 155.012L57.5627 153.02C57.3822 152.935 57.2297 152.799 57.123 152.63C57.0163 152.462 56.9598 152.266 56.96 152.066L58.0146 151.798L56.9768 151.714C56.9596 151.489 57.0053 151.263 57.1087 151.062C57.2122 150.862 57.3693 150.693 57.5627 150.576L61.9485 148.567L58.1486 136.85L53.4112 137.804C53.2179 137.842 53.0177 137.825 52.8339 137.754C52.6501 137.683 52.4904 137.561 52.3734 137.402L52.1725 137.134L52.0386 136.967C51.9331 136.799 51.8771 136.604 51.8771 136.406C51.8771 136.208 51.9331 136.013 52.0386 135.845L54.4156 131.627L44.4555 124.395L41.1913 127.944C41.0552 128.089 40.8809 128.193 40.6883 128.244C40.4958 128.294 40.2929 128.289 40.1032 128.229L39.5843 128.028C39.392 127.97 39.2211 127.856 39.093 127.701C38.965 127.546 38.8855 127.357 38.8644 127.157L38.312 122.403H25.9581L25.4225 127.157C25.4002 127.359 25.3182 127.55 25.187 127.705C25.0558 127.86 24.8813 127.972 24.6859 128.028L24.167 128.229C23.9772 128.289 23.7744 128.294 23.5819 128.244C23.3893 128.193 23.2149 128.089 23.0789 127.944L19.8314 124.395L9.7876 131.627L12.1647 135.845C12.2741 136.012 12.3324 136.207 12.3324 136.406C12.3324 136.605 12.2741 136.8 12.1647 136.967L12.0307 137.134L11.8466 137.402C11.7269 137.562 11.5642 137.685 11.3775 137.756C11.1908 137.827 10.9878 137.844 10.792 137.804L6.07138 136.85L2.25474 148.567L6.64053 150.576C6.85086 150.678 7.02199 150.847 7.12778 151.055C7.23357 151.264 7.26821 151.501 7.22643 151.731V152.083C7.22552 152.28 7.16836 152.473 7.06162 152.639C6.95489 152.805 6.80301 152.937 6.62382 153.02L2.23798 155.012L6.05463 166.73L10.7752 165.759C10.9727 165.719 11.1775 165.737 11.3648 165.811C11.5521 165.886 11.7136 166.013 11.8298 166.178L12.014 166.429L12.1479 166.613C12.2573 166.779 12.3157 166.974 12.3157 167.174C12.3157 167.373 12.2573 167.568 12.1479 167.734L9.77084 171.936L19.8147 179.184L23.0622 175.635C23.197 175.488 23.3714 175.383 23.5643 175.333C23.7573 175.283 23.9607 175.289 24.1503 175.351L24.6859 175.552C24.8758 175.609 25.045 175.72 25.1729 175.872C25.3007 176.023 25.3816 176.209 25.4058 176.406L25.9581 181.126ZM32.1183 162.93C29.9034 162.93 27.7382 162.273 25.8966 161.043C24.0549 159.812 22.6196 158.063 21.7719 156.017C20.9243 153.971 20.7026 151.719 21.1347 149.546C21.5668 147.374 22.6334 145.379 24.1996 143.812C25.7658 142.246 27.7612 141.18 29.9336 140.748C32.1059 140.315 34.3576 140.537 36.4039 141.385C38.4503 142.232 40.1993 143.668 41.4298 145.509C42.6604 147.351 43.3172 149.516 43.3172 151.731C43.304 154.688 42.1234 157.521 40.0323 159.612C37.9413 161.703 35.109 162.883 32.1518 162.897L32.1183 162.93ZM32.1183 142.591C30.3106 142.591 28.5435 143.127 27.0405 144.132C25.5374 145.136 24.366 146.563 23.6742 148.234C22.9824 149.904 22.8014 151.741 23.1541 153.514C23.5068 155.287 24.3772 156.916 25.6555 158.194C26.9337 159.472 28.5623 160.343 30.3352 160.695C32.1082 161.048 33.9459 160.867 35.616 160.175C37.2861 159.484 38.7136 158.312 39.7179 156.809C40.7222 155.306 41.2582 153.539 41.2582 151.731C41.2451 149.32 40.2814 147.012 38.5765 145.307C36.8715 143.602 34.5629 142.638 32.1518 142.625L32.1183 142.591Z" fill="#E7E7E7"/>
<path id="Vector_2" d="M143.821 103.769H120.135C119.884 103.767 119.643 103.675 119.455 103.509C119.267 103.342 119.146 103.114 119.114 102.865L118.16 94.4956L112.418 100.773C112.243 100.956 112.008 101.071 111.756 101.095C111.504 101.12 111.252 101.053 111.045 100.907L91.895 86.9795C91.6874 86.8336 91.5415 86.6156 91.4858 86.368C91.4301 86.1204 91.4685 85.861 91.5937 85.6403L95.7786 78.258L87.4087 79.932C87.1589 79.981 86.8998 79.9365 86.6806 79.8069C86.4615 79.6772 86.2976 79.4715 86.2202 79.229L78.905 56.7141C78.8248 56.4736 78.8369 56.2118 78.939 55.9798C79.0411 55.7477 79.2259 55.5619 79.4574 55.4586L87.1744 51.9265L79.4574 48.4112C79.2259 48.3079 79.0411 48.1221 78.939 47.89C78.8369 47.658 78.8248 47.3962 78.905 47.1557L86.2202 24.5571C86.3008 24.3177 86.466 24.1158 86.6848 23.9895C86.9037 23.8631 87.161 23.8209 87.4087 23.8708L95.7786 25.5448L91.5937 18.1459C91.4722 17.9242 91.4359 17.6659 91.4913 17.4193C91.5468 17.1728 91.6903 16.9549 91.895 16.8067L111.045 2.89598C111.252 2.74979 111.504 2.68289 111.756 2.70748C112.008 2.73207 112.243 2.84648 112.418 3.02988L118.16 9.29056L119.114 0.920714C119.142 0.669097 119.262 0.436599 119.45 0.267024C119.638 0.0974485 119.882 0.00246661 120.135 0H143.821C144.075 0.00246661 144.318 0.0974485 144.506 0.267024C144.694 0.436599 144.814 0.669097 144.843 0.920714L145.814 9.29056L151.555 3.02988C151.725 2.84455 151.957 2.72846 152.208 2.70375C152.458 2.67904 152.708 2.74747 152.911 2.89598L172.078 16.8067C172.28 16.9573 172.42 17.1763 172.472 17.4227C172.525 17.6691 172.486 17.9261 172.363 18.1459L168.178 25.5448L176.548 23.8708C176.793 23.8217 177.048 23.8644 177.264 23.991C177.48 24.1175 177.642 24.319 177.719 24.5571L184.984 47.0888C185.06 47.3314 185.043 47.5933 184.938 47.8246C184.833 48.056 184.647 48.2409 184.415 48.3442L176.698 51.8596L184.415 55.3917C184.647 55.495 184.833 55.6799 184.938 55.9113C185.043 56.1427 185.06 56.4045 184.984 56.6472L177.652 79.162C177.578 79.4033 177.418 79.6086 177.201 79.7384C176.985 79.8683 176.728 79.9134 176.481 79.8651L168.111 78.1911L172.296 85.5733C172.419 85.7931 172.458 86.0501 172.406 86.2965C172.353 86.5429 172.213 86.7618 172.011 86.9125L152.911 100.773C152.721 100.953 152.47 101.054 152.208 101.054C151.946 101.054 151.695 100.953 151.505 100.773L145.763 94.5123L144.792 102.882C144.761 103.121 144.646 103.341 144.469 103.503C144.291 103.665 144.062 103.76 143.821 103.769ZM121.056 101.71H142.901L143.888 93.1229C143.908 92.9246 143.988 92.7369 144.116 92.5846C144.245 92.4322 144.416 92.3223 144.608 92.2692L145.044 92.1018L145.479 91.9344C145.671 91.8709 145.877 91.8639 146.073 91.9144C146.269 91.9648 146.446 92.0706 146.584 92.219L152.442 98.6135L170.12 85.7072L165.834 78.1242C165.729 77.9561 165.673 77.7618 165.673 77.5634C165.673 77.365 165.729 77.1706 165.834 77.0026L166.018 76.7682L166.387 76.2828C166.503 76.1182 166.664 75.991 166.852 75.9166C167.039 75.8423 167.244 75.8242 167.441 75.8643L175.945 77.5383L182.641 56.7643L174.941 53.2825C174.761 53.1997 174.61 53.0675 174.503 52.9015C174.396 52.7354 174.339 52.5424 174.338 52.345C174.33 52.2392 174.33 52.1328 174.338 52.027V51.7089C174.33 51.6031 174.33 51.4967 174.338 51.3909C174.339 51.1935 174.396 51.0004 174.503 50.8344C174.61 50.6684 174.761 50.5362 174.941 50.4534L182.842 46.8544L176.146 26.0805L167.642 27.7544C167.445 27.7968 167.239 27.7796 167.051 27.7051C166.864 27.6306 166.702 27.5022 166.587 27.3359L166.236 26.8672L166.035 26.5994C165.928 26.4321 165.87 26.2375 165.87 26.0386C165.87 25.8398 165.928 25.6451 166.035 25.4778L170.32 17.9115L152.643 5.07212L146.784 11.4667C146.645 11.6117 146.467 11.7151 146.272 11.7654C146.077 11.8156 145.872 11.8108 145.68 11.7513L145.244 11.5671L144.792 11.4165C144.602 11.3575 144.434 11.2432 144.308 11.0882C144.183 10.9332 144.107 10.7445 144.089 10.546L143.102 1.97532H121.056L120.085 10.546C120.06 10.7444 119.979 10.9316 119.851 11.0858C119.724 11.2399 119.555 11.3546 119.365 11.4165L118.93 11.5671L118.478 11.7513C118.288 11.8114 118.085 11.8165 117.892 11.7662C117.7 11.7158 117.526 11.612 117.39 11.4667L111.514 5.07212L93.8368 17.9115L98.1221 25.4778C98.2316 25.6444 98.2899 25.8393 98.2899 26.0386C98.2899 26.2379 98.2316 26.4328 98.1221 26.5994L97.5697 27.3359C97.4578 27.5008 97.2993 27.6286 97.1145 27.7031C96.9297 27.7776 96.7269 27.7955 96.5319 27.7544L88.0114 26.0805L81.3155 46.8544L89.1999 50.4534C89.3844 50.5289 89.5413 50.6594 89.6491 50.8271C89.7569 50.9948 89.8105 51.1916 89.8025 51.3909V52.3283C89.8116 52.5298 89.7587 52.7293 89.6509 52.8999C89.5432 53.0705 89.3858 53.204 89.1999 53.2825L81.1983 56.8815L87.8942 77.6554L96.4147 75.9815C96.608 75.9387 96.8097 75.954 96.9944 76.0255C97.179 76.0969 97.3384 76.2214 97.4525 76.3832L98.005 77.1198C98.1144 77.2863 98.1727 77.4812 98.1727 77.6805C98.1727 77.8798 98.1144 78.0748 98.005 78.2413L93.8368 85.7072L111.514 98.5466L117.39 92.152C117.523 92.0033 117.697 91.897 117.891 91.8464C118.084 91.7958 118.288 91.8031 118.478 91.8674L118.913 92.0348L119.365 92.2022C119.555 92.2593 119.724 92.3704 119.852 92.522C119.98 92.6736 120.061 92.8592 120.085 93.056L121.056 101.71ZM131.987 76.4C127.133 76.4 122.388 74.9607 118.353 72.2641C114.317 69.5676 111.172 65.7349 109.314 61.2508C107.457 56.7666 106.971 51.8324 107.918 47.072C108.865 42.3116 111.202 37.9389 114.634 34.5069C118.066 31.0749 122.439 28.7377 127.199 27.7908C131.959 26.8439 136.894 27.3298 141.378 29.1872C145.862 31.0446 149.695 34.19 152.391 38.2257C155.088 42.2613 156.527 47.0059 156.527 51.8596C156.518 58.3654 153.93 64.6022 149.329 69.2025C144.729 73.8028 138.492 76.3911 131.987 76.4ZM131.987 29.3949C127.539 29.3916 123.19 30.7077 119.49 33.1767C115.791 35.6458 112.907 39.1567 111.203 43.2653C109.499 47.3739 109.053 51.8956 109.92 56.2581C110.786 60.6207 112.928 64.628 116.073 67.7731C119.218 70.9181 123.225 73.0596 127.588 73.9266C131.951 74.7935 136.472 74.3468 140.581 72.6432C144.689 70.9396 148.2 68.0555 150.669 64.3559C153.138 60.6562 154.455 56.3074 154.451 51.8596C154.442 45.9043 152.073 40.1955 147.862 35.9845C143.651 31.7734 137.942 29.4037 131.987 29.3949Z" fill="#E7E7E7"/>
<path id="Vector_3" d="M8.766 131.977C8.54555 131.979 8.33169 131.902 8.16335 131.759C8.05362 131.68 7.96082 131.579 7.89035 131.464C7.81988 131.348 7.77318 131.219 7.75293 131.085C7.73267 130.951 7.73928 130.815 7.77239 130.683C7.8055 130.552 7.8644 130.428 7.94572 130.32L15.2945 120.393C15.4625 120.188 15.7028 120.055 15.966 120.021C16.2292 119.987 16.4952 120.056 16.7095 120.212C16.9238 120.369 17.0701 120.601 17.1182 120.862C17.1664 121.123 17.1128 121.393 16.9684 121.615L9.61969 131.559C9.5201 131.69 9.39097 131.797 9.24268 131.87C9.0944 131.942 8.93114 131.979 8.766 131.977Z" fill="#E7E7E7"/>
<path id="Vector_4" d="M18.7764 118.435C18.5543 118.433 18.3381 118.363 18.157 118.234C18.0486 118.153 17.9573 118.052 17.8884 117.935C17.8195 117.819 17.7743 117.69 17.7556 117.556C17.737 117.422 17.7451 117.286 17.7795 117.155C17.8139 117.024 17.874 116.902 17.9562 116.794L21.9402 111.421C22.0197 111.311 22.1203 111.218 22.236 111.148C22.3518 111.077 22.4804 111.031 22.6144 111.01C22.7484 110.99 22.8851 110.997 23.0165 111.03C23.1479 111.063 23.2714 111.122 23.3798 111.203C23.5977 111.367 23.7427 111.609 23.7834 111.879C23.8241 112.148 23.7573 112.422 23.5974 112.643L19.6134 118.033C19.5137 118.16 19.3865 118.261 19.2415 118.331C19.0964 118.401 18.9373 118.436 18.7764 118.435Z" fill="#E7E7E7"/>
<path id="Vector_5" d="M26.7457 107.67C26.5288 107.668 26.318 107.598 26.1431 107.469C26.0334 107.39 25.9406 107.289 25.8701 107.174C25.7996 107.058 25.7529 106.929 25.7327 106.795C25.7124 106.661 25.719 106.524 25.7521 106.393C25.7852 106.262 25.8442 106.138 25.9255 106.03L41.8617 84.4857C42.0297 84.2804 42.27 84.1473 42.5332 84.1136C42.7964 84.08 43.0624 84.1484 43.2767 84.3048C43.491 84.4613 43.6373 84.6938 43.6855 84.9548C43.7336 85.2157 43.68 85.4851 43.5356 85.7078L27.6329 107.252C27.53 107.388 27.3955 107.497 27.241 107.57C27.0864 107.643 26.9165 107.678 26.7457 107.67ZM45.3603 82.5607C45.1378 82.5607 44.921 82.4904 44.7409 82.3598C44.523 82.1964 44.378 81.9539 44.3373 81.6846C44.2966 81.4152 44.3634 81.1407 44.5233 80.9202L48.5073 75.53C48.6733 75.3157 48.9155 75.1734 49.1836 75.1329C49.4516 75.0924 49.725 75.1567 49.9469 75.3124C50.0572 75.3935 50.1504 75.4955 50.2211 75.6127C50.2917 75.7299 50.3386 75.8599 50.3588 75.9953C50.379 76.1306 50.3722 76.2687 50.3389 76.4014C50.3056 76.5342 50.2463 76.659 50.1645 76.7688L46.1805 82.1422C46.0835 82.2662 45.9587 82.3656 45.8163 82.4325C45.6738 82.4993 45.5176 82.5318 45.3603 82.5272V82.5607ZM53.3284 71.7971C53.1328 71.8003 52.9402 71.7481 52.773 71.6466C52.6057 71.5452 52.4705 71.3985 52.383 71.2235C52.2955 71.0485 52.2593 70.8524 52.2785 70.6577C52.2976 70.463 52.3715 70.2777 52.4914 70.1231L68.4443 48.5791C68.5256 48.4692 68.6278 48.3764 68.7451 48.306C68.8623 48.2356 68.9922 48.1889 69.1274 48.1687C69.2627 48.1485 69.4005 48.1551 69.5332 48.1882C69.6659 48.2213 69.7907 48.2802 69.9007 48.3615C70.0106 48.4429 70.1034 48.545 70.1738 48.6623C70.2442 48.7795 70.2909 48.9094 70.3111 49.0446C70.3313 49.1799 70.3246 49.3177 70.2916 49.4504C70.2585 49.5831 70.1996 49.7079 70.1183 49.8179L54.1654 71.3618C54.0675 71.4902 53.9406 71.5935 53.7951 71.6633C53.6497 71.7332 53.4897 71.7676 53.3284 71.7636V71.7971ZM71.9261 46.6875C71.7037 46.6876 71.4869 46.6173 71.3068 46.4867C71.0889 46.3233 70.9439 46.0808 70.9032 45.8114C70.8625 45.5421 70.9293 45.2676 71.0892 45.047L75.09 39.6569C75.258 39.4515 75.4983 39.3184 75.7615 39.2848C76.0247 39.2511 76.2907 39.3195 76.505 39.476C76.7193 39.6324 76.8656 39.865 76.9137 40.1259C76.9619 40.3868 76.9083 40.6563 76.7639 40.8789L72.8301 46.2021C72.7246 46.3398 72.5872 46.4499 72.4297 46.5228C72.2723 46.5957 72.0994 46.6292 71.9261 46.6206V46.6875Z" fill="#E7E7E7"/>
<path id="Vector_6" d="M79.8932 35.8421C79.6763 35.8397 79.4655 35.7695 79.2905 35.6412C79.1808 35.5617 79.088 35.4611 79.0175 35.3454C78.9471 35.2296 78.9004 35.101 78.8801 34.967C78.8599 34.833 78.8665 34.6963 78.8996 34.5649C78.9327 34.4335 78.9916 34.31 79.073 34.2016L86.4217 24.2749C86.4984 24.1565 86.5986 24.0551 86.7159 23.9766C86.8333 23.8982 86.9654 23.8446 87.1042 23.819C87.243 23.7934 87.3855 23.7963 87.5231 23.8277C87.6607 23.859 87.7904 23.9181 87.9044 24.0013C88.0184 24.0845 88.1142 24.1901 88.186 24.3116C88.2578 24.4331 88.3041 24.568 88.322 24.708C88.3399 24.848 88.329 24.9902 88.2901 25.1258C88.2512 25.2615 88.185 25.3877 88.0956 25.497L80.7302 35.4905C80.6264 35.6087 80.4972 35.7018 80.3522 35.7627C80.2072 35.8236 80.0502 35.8507 79.8932 35.8421Z" fill="#E7E7E7"/>
<path id="Vector_7" d="M51.621 176.185C51.4622 176.188 51.3052 176.153 51.1626 176.083C51.02 176.013 50.896 175.911 50.8007 175.784C50.7181 175.675 50.6577 175.551 50.6231 175.419C50.5884 175.287 50.5802 175.149 50.5988 175.014C50.6175 174.879 50.6627 174.748 50.7318 174.63C50.8009 174.513 50.8926 174.41 51.0016 174.327L60.9115 166.945C61.1347 166.784 61.4119 166.717 61.6839 166.758C61.956 166.798 62.2015 166.944 62.3679 167.163C62.5278 167.383 62.5946 167.658 62.5539 167.927C62.5132 168.196 62.3682 168.439 62.1502 168.602L52.2404 175.985C52.0603 176.115 51.8434 176.185 51.621 176.185Z" fill="#E7E7E7"/>
<path id="Vector_8" d="M65.1455 166.059C64.9868 166.061 64.8297 166.026 64.6871 165.956C64.5445 165.887 64.4205 165.784 64.3253 165.657C64.2431 165.549 64.183 165.427 64.1486 165.296C64.1142 165.165 64.1061 165.029 64.1248 164.895C64.1435 164.761 64.1886 164.632 64.2575 164.516C64.3264 164.399 64.4177 164.298 64.5262 164.217L69.9498 160.166C70.0582 160.085 70.1817 160.026 70.3131 159.993C70.4445 159.96 70.5812 159.953 70.7152 159.973C70.8492 159.994 70.9778 160.04 71.0936 160.111C71.2093 160.181 71.3099 160.274 71.3895 160.384C71.5511 160.602 71.6207 160.875 71.5831 161.145C71.5456 161.414 71.4039 161.658 71.1885 161.823L65.7649 165.858C65.5848 165.988 65.368 166.059 65.1455 166.059Z" fill="#E7E7E7"/>
<path id="Vector_9" d="M75.9932 158.04C75.8309 158.039 75.6709 158.001 75.5257 157.929C75.3806 157.856 75.2541 157.751 75.1562 157.622C75.0749 157.513 75.0159 157.39 74.9828 157.258C74.9497 157.127 74.9431 156.99 74.9634 156.856C74.9836 156.722 75.0303 156.594 75.1008 156.478C75.1713 156.362 75.2641 156.261 75.3738 156.182L97.1354 140.028C97.2446 139.939 97.3709 139.873 97.5066 139.834C97.6422 139.795 97.7844 139.784 97.9244 139.802C98.0643 139.82 98.1992 139.866 98.3207 139.938C98.4422 140.01 98.5478 140.105 98.631 140.219C98.7142 140.333 98.7733 140.463 98.8047 140.601C98.836 140.738 98.839 140.881 98.8134 141.02C98.7878 141.158 98.7341 141.291 98.6557 141.408C98.5773 141.525 98.4758 141.625 98.3574 141.702L76.6795 157.856C76.4795 157.996 76.2365 158.061 75.9932 158.04ZM101.287 139.275C101.127 139.276 100.969 139.238 100.826 139.165C100.683 139.092 100.56 138.986 100.467 138.856C100.385 138.748 100.326 138.624 100.293 138.493C100.26 138.362 100.254 138.225 100.274 138.091C100.294 137.957 100.341 137.828 100.411 137.713C100.482 137.597 100.575 137.496 100.684 137.417L106.091 133.382C106.201 133.301 106.326 133.242 106.459 133.209C106.591 133.176 106.729 133.169 106.864 133.19C107 133.21 107.13 133.256 107.247 133.327C107.364 133.397 107.466 133.49 107.547 133.6C107.629 133.71 107.688 133.835 107.721 133.968C107.754 134.1 107.761 134.238 107.74 134.373C107.72 134.509 107.673 134.639 107.603 134.756C107.533 134.873 107.44 134.975 107.33 135.056L101.906 139.091C101.724 139.215 101.507 139.28 101.287 139.275ZM112.134 131.206C111.972 131.204 111.813 131.166 111.668 131.093C111.523 131.021 111.396 130.916 111.297 130.788C111.137 130.567 111.07 130.293 111.111 130.023C111.152 129.754 111.297 129.512 111.515 129.348L133.193 113.194C133.301 113.113 133.425 113.054 133.556 113.021C133.687 112.988 133.824 112.981 133.958 113.002C134.092 113.022 134.221 113.069 134.336 113.139C134.452 113.209 134.553 113.302 134.632 113.412C134.794 113.63 134.864 113.904 134.826 114.173C134.788 114.442 134.647 114.686 134.431 114.852L112.67 131.005C112.5 131.094 112.309 131.135 112.117 131.123L112.134 131.206ZM137.428 112.357C137.265 112.361 137.103 112.325 136.958 112.252C136.812 112.179 136.686 112.071 136.591 111.939C136.431 111.718 136.364 111.444 136.405 111.175C136.446 110.905 136.591 110.663 136.808 110.499L142.232 106.465C142.341 106.384 142.464 106.325 142.595 106.292C142.727 106.259 142.864 106.252 142.998 106.272C143.132 106.292 143.26 106.339 143.376 106.41C143.492 106.48 143.592 106.573 143.672 106.683C143.832 106.903 143.898 107.178 143.858 107.447C143.817 107.716 143.672 107.959 143.454 108.122L138.03 112.157C137.841 112.259 137.625 112.3 137.411 112.274L137.428 112.357Z" fill="#E7E7E7"/>
</g>
</svg>
