<svg width="165" height="266" viewBox="0 0 165 266" fill="none" xmlns="http://www.w3.org/2000/svg">
<g id="Group 43007">
<path id="Vector" d="M80.4738 216.971C66.4317 225.12 50.5621 229.597 34.3318 229.989C18.1015 230.38 2.03436 226.674 -12.3844 219.213C-18.1799 216.27 -23.6443 212.717 -28.6845 208.613C-38.1032 201.121 -46.0167 191.912 -52.0066 181.473C-64.8672 159.198 -68.3523 132.726 -61.6951 107.881C-55.038 83.0364 -38.7839 61.8537 -16.5086 48.993C5.76671 36.1324 32.2386 32.6473 57.0835 39.3044C81.9284 45.9616 103.111 62.2157 115.972 84.491C122.008 94.9041 126.02 106.365 127.797 118.269C128.841 124.684 129.186 131.194 128.826 137.684C128.083 153.9 123.262 169.666 114.81 183.524C106.359 197.383 94.5493 208.886 80.4738 216.971ZM-14.2487 52.9073C-35.4744 65.1867 -50.9631 85.3834 -57.3176 109.067C-63.672 132.751 -60.3733 157.989 -48.145 179.244C-42.4302 189.201 -34.8811 197.985 -25.8968 205.132C-21.0911 209.044 -15.8803 212.43 -10.3533 215.231C3.41006 222.319 18.7324 225.838 34.209 225.466C49.6856 225.094 64.8212 220.843 78.2282 213.102C91.6352 205.362 102.885 194.38 110.945 181.162C119.006 167.945 123.619 152.916 124.363 137.453C124.7 131.266 124.373 125.06 123.388 118.942C121.685 107.582 117.85 96.6471 112.083 86.7131C99.8006 65.483 79.5964 49.9939 55.9054 43.6459C32.2143 37.2979 6.97241 40.6098 -14.2791 52.8546L-14.2487 52.9073Z" fill="#E7E7E7"/>
<path id="Vector_2" d="M73.8864 205.562C61.7487 212.596 48.0327 216.453 34.0081 216.778C19.9836 217.102 6.10391 213.883 -6.34594 207.418C-11.3557 204.87 -16.0838 201.803 -20.4523 198.267C-28.5944 191.79 -35.4324 183.825 -40.6032 174.796C-51.301 155.583 -54.0144 132.933 -48.1578 111.736C-42.3011 90.5398 -28.344 72.4963 -9.29937 61.5009C9.74529 50.5054 32.35 47.44 53.6352 52.9663C74.9204 58.4925 93.1787 72.1673 104.469 91.0386C109.703 100.033 113.176 109.942 114.703 120.235C115.604 125.781 115.903 131.408 115.592 137.017C114.966 151.028 110.816 164.655 103.526 176.636C96.236 188.617 86.0417 198.566 73.8864 205.562ZM-7.62138 64.387C-25.8132 74.9148 -39.0863 92.2286 -44.5289 112.53C-49.9715 132.832 -47.1391 154.463 -36.6531 172.679C-31.7561 181.209 -25.2904 188.736 -17.5965 194.863C-13.4722 198.225 -8.99908 201.135 -4.25403 203.542C7.53951 209.623 20.6713 212.643 33.9362 212.328C47.2012 212.012 60.1743 208.37 71.6653 201.736C83.1563 195.101 92.7971 185.687 99.7029 174.357C106.609 163.027 110.558 150.145 111.189 136.891C111.477 131.578 111.193 126.249 110.344 120.996C108.895 111.26 105.612 101.886 100.668 93.3734C90.1387 75.1786 72.8209 61.9042 52.5152 56.4633C32.2095 51.0224 10.5747 53.8594 -7.64164 64.3519L-7.62138 64.387Z" fill="#E7E7E7"/>
<path id="Vector_3" d="M73.8883 205.565C61.797 212.554 48.1508 216.41 34.1901 216.783L31.3973 216.851L31.9637 214.184C33.4384 206.632 36.5149 199.484 40.9858 193.222C45.4567 186.96 51.218 181.729 57.8816 177.881C64.5452 174.034 71.9562 171.66 79.6149 170.919C87.2736 170.178 95.002 171.088 102.279 173.587L104.89 174.42L103.435 176.805C96.1364 188.704 85.9797 198.59 73.8883 205.565ZM36.9273 212.16C49.1278 211.301 60.9725 207.676 71.5646 201.561C82.1567 195.445 91.2183 187 98.0631 176.864C91.7305 175.091 85.1077 174.602 78.5835 175.424C72.0592 176.246 65.7649 178.364 60.0701 181.652C54.3752 184.939 49.3946 189.332 45.4205 194.571C41.4463 199.81 38.5588 205.79 36.9273 212.16Z" fill="#E7E7E7"/>
<path id="Vector_4" d="M44.6515 154.922C42.2914 156.29 39.5786 156.926 36.8567 156.75C34.1347 156.575 31.526 155.596 29.3608 153.937C27.1957 152.278 25.5714 150.014 24.6937 147.432C23.816 144.849 23.7244 142.064 24.4303 139.43C25.1363 136.795 26.6081 134.429 28.6594 132.631C30.7108 130.834 33.2495 129.685 35.954 129.331C38.6585 128.977 41.4073 129.433 43.8523 130.643C46.2973 131.852 48.3285 133.759 49.6888 136.123C51.5083 139.285 51.9998 143.04 51.0555 146.564C50.1113 150.088 47.8084 153.094 44.6515 154.922ZM33.1191 134.948C31.5256 135.868 30.2408 137.239 29.427 138.89C28.6132 140.54 28.307 142.394 28.5472 144.218C28.7873 146.043 29.5631 147.755 30.7762 149.138C31.9894 150.521 33.5855 151.514 35.3628 151.99C37.1401 152.466 39.0186 152.405 40.7609 151.813C42.5033 151.222 44.0311 150.127 45.1512 148.668C46.2713 147.208 46.9334 145.449 47.0537 143.613C47.174 141.777 46.7472 139.946 45.8273 138.353C44.5898 136.22 42.5579 134.664 40.1763 134.026C37.7946 133.388 35.2571 133.719 33.1191 134.948Z" fill="#E7E7E7"/>
<path id="Vector_5" d="M113.405 112.679L108.656 110.249C94.8942 103.16 79.5734 99.6398 64.098 100.011C48.6226 100.382 33.488 104.632 20.082 112.372C6.67613 120.112 -4.57208 131.094 -12.631 144.31C-20.6899 157.527 -25.3015 172.555 -26.0431 188.017L-26.3135 193.346L-29.936 189.422C-33.9968 184.972 -37.5599 180.092 -40.562 174.869C-51.2598 155.655 -53.9732 133.006 -48.1166 111.809C-42.2599 90.6122 -28.3028 72.5688 -9.25816 61.5733C9.7865 50.5779 32.3912 47.5124 53.6764 53.0387C74.9616 58.565 93.22 72.2397 104.51 91.1111C107.506 96.3424 109.921 101.885 111.713 107.641L113.405 112.679ZM17.846 108.499C31.0896 100.822 45.9678 96.4034 61.2545 95.6058C76.5412 94.8083 91.7985 97.6551 105.769 103.912C101.576 93.3196 95.15 83.7555 86.9283 75.8704C78.7065 67.9854 68.8822 61.9646 58.1242 58.218C47.3663 54.4713 35.9274 53.0867 24.5863 54.1586C13.2451 55.2305 2.26807 58.7337 -7.59743 64.4295C-17.4629 70.1253 -25.9852 77.8801 -32.584 87.1659C-39.1829 96.4517 -43.7034 107.05 -45.8376 118.24C-47.9719 129.43 -47.6698 140.949 -44.952 152.012C-42.2342 163.074 -37.1646 173.422 -30.0882 182.349C-28.5228 167.121 -23.3602 152.484 -15.026 139.644C-6.69176 126.804 4.57525 116.129 17.846 108.499Z" fill="#E7E7E7"/>
</g>
</svg>
