<svg width="171" height="217" viewBox="0 0 171 217" fill="none" xmlns="http://www.w3.org/2000/svg">
<g id="Group 43011">
<path id="Vector" d="M53.3581 180.005L36.2604 162.907C32.4595 159.106 30.3241 153.951 30.3241 148.576C30.3241 143.2 32.4595 138.045 36.2604 134.244L55.6082 114.896L101.34 160.629L81.9927 179.976C78.1966 183.772 73.0497 185.907 67.6813 185.913C62.3129 185.918 57.1617 183.794 53.3581 180.005ZM55.6082 119.196L38.4102 136.394C35.1843 139.627 33.3726 144.008 33.3726 148.576C33.3726 153.143 35.1843 157.524 38.4102 160.758L55.5078 177.855C58.7413 181.081 63.1223 182.893 67.6898 182.893C72.2572 182.893 76.6381 181.081 79.8716 177.855L97.0696 160.657L55.6082 119.196Z" fill="#E7E7E7"/>
<path id="Vector_2" d="M25.7541 196.26L20.0214 190.527C18.8013 189.307 18.1159 187.652 18.1159 185.927C18.1159 184.201 18.8014 182.546 20.0215 181.326L23.3751 177.973C23.6988 177.649 23.9555 177.265 24.1307 176.842C24.3059 176.419 24.3961 175.965 24.3961 175.508C24.3961 175.05 24.3059 174.596 24.1307 174.173C23.9555 173.75 23.6987 173.366 23.375 173.043C22.7709 172.438 22.2917 171.721 21.9647 170.932C21.6378 170.142 21.4695 169.296 21.4695 168.442C21.4695 167.588 21.6378 166.742 21.9647 165.952C22.2917 165.163 22.7709 164.446 23.375 163.842L29.3943 157.822L58.4876 186.916L52.4683 192.935C51.2482 194.155 49.5933 194.84 47.8678 194.84C46.1423 194.84 44.4875 194.155 43.2673 192.935C42.9436 192.611 42.5594 192.354 42.1364 192.179C41.7134 192.004 41.2601 191.914 40.8023 191.914C40.3445 191.914 39.8912 192.004 39.4683 192.179C39.0453 192.354 38.661 192.611 38.3373 192.935L34.9837 196.288C34.3772 196.895 33.6566 197.376 32.8636 197.703C32.0706 198.03 31.2207 198.197 30.3629 198.194C29.5051 198.191 28.6563 198.019 27.8653 197.687C27.0744 197.355 26.3569 196.87 25.7541 196.26ZM29.38 162.05L25.4961 165.934C24.8473 166.59 24.4834 167.476 24.4834 168.399C24.4834 169.322 24.8472 170.208 25.4961 170.864C26.7162 172.084 27.4017 173.739 27.4017 175.465C27.4017 177.19 26.7162 178.845 25.4961 180.065L22.1425 183.419C21.4937 184.075 21.1298 184.961 21.1298 185.884C21.1298 186.807 21.4937 187.692 22.1426 188.349L27.8752 194.081C28.529 194.735 29.4157 195.102 30.3402 195.102C31.2648 195.102 32.1515 194.735 32.8053 194.081L36.1589 190.728C36.763 190.124 37.4802 189.644 38.2696 189.317C39.0589 188.99 39.9049 188.822 40.7593 188.822C41.6137 188.822 42.4597 188.99 43.2491 189.317C44.0384 189.644 44.7557 190.124 45.3598 190.728C46.0136 191.382 46.9002 191.749 47.8248 191.749C48.7494 191.749 49.6361 191.382 50.2898 190.728L54.1737 186.844L29.38 162.05Z" fill="#E7E7E7"/>
<path id="Vector_3" d="M103.419 158.579L57.6865 112.847L61.0258 109.508C62.2528 108.289 63.887 107.566 65.6144 107.479C67.3418 107.391 69.0406 107.946 70.3843 109.035L70.6136 108.805L69.2808 107.473L72.62 104.133C73.7324 103.025 75.1856 102.323 76.7456 102.141C78.3055 101.959 79.8812 102.307 81.2189 103.13L79.6855 101.597L83.0248 98.2573C84.3362 96.946 86.1147 96.2092 87.9692 96.2092C89.8237 96.2092 91.6022 96.946 92.9136 98.2573L95.049 100.393L97.9154 97.5265L118.725 118.336L115.859 121.202L118.008 123.352C118.657 124.001 119.171 124.771 119.522 125.619C119.872 126.466 120.052 127.375 120.05 128.292C120.049 129.21 119.867 130.118 119.514 130.964C119.161 131.811 118.644 132.58 117.994 133.226L114.655 136.566L113.136 135.047C113.958 136.384 114.307 137.96 114.125 139.52C113.943 141.08 113.241 142.533 112.132 143.646L108.793 146.985L107.46 145.652L107.231 145.881C108.32 147.225 108.874 148.924 108.787 150.651C108.7 152.379 107.977 154.013 106.758 155.24L103.419 158.579ZM61.9573 112.847L103.419 154.308L104.623 153.104C105.352 152.338 105.752 151.317 105.739 150.259C105.725 149.202 105.299 148.191 104.551 147.444L103.017 145.91L107.503 141.424L108.836 142.757L110.04 141.553C110.769 140.787 111.17 139.766 111.156 138.708C111.143 137.65 110.716 136.64 109.968 135.892L108.893 134.817L113.035 130.675L114.64 132.281L115.844 131.077C116.592 130.329 117.019 129.319 117.032 128.261C117.045 127.203 116.645 126.182 115.916 125.416L111.616 121.116L114.483 118.25L97.9871 101.754L95.1207 104.621L90.8212 100.321C90.061 99.5609 89.03 99.1338 87.9549 99.1338C86.8798 99.1338 85.8488 99.5609 85.0886 100.321L83.8847 101.525L85.5471 103.187L81.4053 107.329L80.3448 106.269C79.5971 105.521 78.5865 105.094 77.5288 105.081C76.4712 105.067 75.4502 105.468 74.6838 106.197L73.4799 107.401L74.8127 108.734L70.3269 113.22L68.7647 111.657C68.017 110.909 67.0066 110.483 65.9489 110.47C64.8912 110.456 63.8702 110.857 63.1038 111.586L61.9573 112.847Z" fill="#E7E7E7"/>
<path id="Vector_4" d="M117.435 113.779L102.473 98.817L166.492 34.7976C167.189 34.1083 168.131 33.7228 169.111 33.7255C170.091 33.7282 171.03 34.1189 171.723 34.812C171.786 34.8741 171.859 34.9233 171.94 34.957C172.022 34.9906 172.109 35.0079 172.196 35.0079C172.284 35.0079 172.371 34.9906 172.452 34.9569C172.534 34.9233 172.607 34.874 172.669 34.8119L186.37 21.1109C187.063 20.4178 188.003 20.0272 188.983 20.0245C189.963 20.0218 190.905 20.4072 191.601 21.0965L195.156 24.6508C195.5 24.9953 195.773 25.4041 195.96 25.8541C196.146 26.3041 196.242 26.7865 196.242 27.2735C196.242 27.7606 196.146 28.2429 195.96 28.6929C195.773 29.1429 195.5 29.5517 195.156 29.8962L181.455 43.5972C181.393 43.6593 181.343 43.7331 181.31 43.8142C181.276 43.8954 181.259 43.9824 181.259 44.0702C181.259 44.158 181.276 44.245 181.31 44.3261C181.343 44.4073 181.393 44.481 181.455 44.5431C182.146 45.2349 182.535 46.1731 182.535 47.1515C182.535 48.1298 182.146 49.0681 181.455 49.7599L117.435 113.779ZM106.672 98.7454L117.364 109.437L179.248 47.5528C179.373 47.4274 179.443 47.2572 179.443 47.0798C179.443 46.9024 179.373 46.7323 179.248 46.6069C178.561 45.9125 178.175 44.9752 178.175 43.9985C178.175 43.0218 178.561 42.0845 179.248 41.3902L192.949 27.6891C193.013 27.6251 193.063 27.5492 193.098 27.4656C193.133 27.382 193.15 27.2923 193.15 27.2018C193.15 27.1113 193.133 27.0217 193.098 26.9381C193.063 26.8545 193.013 26.7785 192.949 26.7145L189.394 23.1603C189.264 23.0373 189.091 22.97 188.911 22.9727C188.732 22.9754 188.561 23.0478 188.434 23.1746L174.733 36.8757C174.039 37.5625 173.101 37.9478 172.125 37.9478C171.148 37.9478 170.211 37.5625 169.516 36.8757C169.39 36.7488 169.218 36.6764 169.039 36.6737C168.86 36.671 168.687 36.7384 168.556 36.8614L106.672 98.7454Z" fill="#E7E7E7"/>
</g>
</svg>
