<svg width="98" height="204" viewBox="0 0 98 204" fill="none" xmlns="http://www.w3.org/2000/svg">
<path d="M71.4005 203.213H-6.65158C-13.6473 203.181 -20.3458 200.381 -25.283 195.424C-30.2202 190.468 -32.9947 183.759 -33 176.763V88.638C-33.0055 84.5172 -32.0503 80.452 -30.2103 76.7648C-28.3702 73.0777 -25.696 69.8703 -22.3998 67.3972L52.7539 11.7007V9.18751C52.7593 6.78097 53.7176 4.47451 55.4193 2.77282C57.121 1.07114 59.4274 0.112776 61.834 0.107422H78.2105C80.617 0.112776 82.9235 1.07114 84.6252 2.77282C86.3268 4.47451 87.2852 6.78097 87.2906 9.18751V9.65366C90.564 12.1175 93.2213 15.3071 95.0536 18.9717C96.8858 22.6362 97.8432 26.6758 97.8502 30.7729V176.702C97.8555 180.18 97.1755 183.625 95.8489 186.84C94.5223 190.055 92.5752 192.977 90.1188 195.439C87.6625 197.901 84.745 199.854 81.5332 201.188C78.3214 202.522 74.8783 203.21 71.4005 203.213ZM61.834 3.85701C60.4452 3.86238 59.1152 4.41779 58.1352 5.40167C57.1551 6.38554 56.6048 7.71769 56.6048 9.10642V13.5451L-20.1095 70.3968C-22.951 72.5131 -25.2576 75.2651 -26.8449 78.4326C-28.4322 81.6001 -29.256 85.0951 -29.2504 88.638V176.763C-29.2451 182.757 -26.863 188.504 -22.6267 192.744C-18.3903 196.984 -12.6454 199.372 -6.65158 199.382H71.4005C77.3942 199.372 83.1392 196.984 87.3755 192.744C91.6119 188.504 93.9939 182.757 93.9993 176.763V30.8337C93.9959 27.1838 93.1093 23.589 91.4152 20.3561C89.7211 17.1232 87.2698 14.3483 84.2706 12.2682L83.4599 11.7007V9.24831C83.4599 7.85608 82.9068 6.52087 81.9224 5.53642C80.9379 4.55196 79.6027 3.9989 78.2105 3.9989L61.834 3.85701ZM63.2122 192.349H1.55696C-10.3809 192.349 -19.7447 186.046 -19.7447 178V103.981C-19.7447 95.8737 -10.3809 89.6312 1.55696 89.6312C5.81543 89.5874 10.0307 90.4872 13.9002 92.266L75.5554 121.594C81.1494 124.249 84.4936 128.627 84.4936 133.309V178C84.4936 186.046 75.15 192.349 63.2122 192.349ZM1.55696 93.4821C-7.90819 93.4821 -15.8938 98.2856 -15.8938 103.981V178C-15.8938 183.695 -7.90819 188.498 1.55696 188.498H63.2122C72.6773 188.498 80.6629 183.695 80.6629 178V133.309C80.6629 130.147 78.1294 127.066 73.9137 125.06L12.2585 95.7318C8.89699 94.2137 5.24517 93.446 1.55696 93.4821Z" fill="#E7E7E7"/>
</svg>
