<svg width="134" height="177" viewBox="0 0 134 177" fill="none" xmlns="http://www.w3.org/2000/svg">
<g id="Group 43013">
<path id="Vector" d="M55.5532 59.9957L73.085 77.5275C73.2113 77.652 73.3115 77.8003 73.3799 77.9638C73.4483 78.1274 73.4836 78.3029 73.4836 78.4801C73.4836 78.6574 73.4483 78.8329 73.3799 78.9965C73.3115 79.16 73.2113 79.3083 73.085 79.4327L27.8874 124.63C28.4729 127.99 28.3231 131.436 27.4483 134.732C26.5736 138.029 24.9947 141.096 22.8204 143.723C22.7666 143.906 22.6692 144.073 22.5366 144.209L-4.70355 171.53C-4.82626 171.656 -4.97285 171.756 -5.1347 171.824C-5.29655 171.892 -5.47039 171.927 -5.64601 171.927C-5.82162 171.927 -5.99546 171.892 -6.15731 171.824C-6.31916 171.756 -6.46575 171.656 -6.58846 171.53L-13.7025 164.416C-13.8282 164.294 -13.928 164.147 -13.9962 163.985C-14.0643 163.823 -14.0994 163.65 -14.0994 163.474C-14.0994 163.298 -14.0643 163.125 -13.9962 162.963C-13.928 162.801 -13.8282 162.654 -13.7025 162.531L-2.53486 151.344C-6.1951 150.183 -9.52399 148.162 -12.2428 145.45C-14.9615 142.738 -16.9911 139.415 -18.1615 135.757L-29.7548 147.351C-29.8793 147.477 -30.0276 147.577 -30.1911 147.646C-30.3546 147.714 -30.5301 147.749 -30.7074 147.749C-30.8847 147.749 -31.0602 147.714 -31.2237 147.646C-31.3872 147.577 -31.5355 147.477 -31.66 147.351L-38.7538 140.257C-38.88 140.133 -38.9803 139.984 -39.0487 139.821C-39.1171 139.657 -39.1523 139.482 -39.1523 139.304C-39.1523 139.127 -39.1171 138.952 -39.0487 138.788C-38.9803 138.625 -38.88 138.476 -38.7538 138.352L-12.8108 112.247L-12.4257 111.821C-12.2868 111.675 -12.1378 111.54 -11.9798 111.416L-11.5744 111.031C-11.5079 110.952 -11.4248 110.89 -11.3312 110.848C-8.66942 108.495 -5.51567 106.766 -2.10028 105.788C1.31511 104.81 4.90591 104.606 8.40984 105.193L53.6075 59.9957C53.7325 59.8632 53.8833 59.7577 54.0506 59.6855C54.2179 59.6134 54.3982 59.5762 54.5803 59.5762C54.7625 59.5762 54.9428 59.6134 55.1101 59.6855C55.2774 59.7577 55.4282 59.8632 55.5532 59.9957ZM70.2475 78.4801L54.6006 62.8332L9.84885 107.585C9.69558 107.747 9.50272 107.865 9.28939 107.929C9.07607 107.993 8.8497 108 8.63279 107.95C5.41073 107.316 2.08548 107.441 -1.0803 108.313C-4.24607 109.185 -7.16565 110.782 -9.6084 112.976H-9.73001L-10.1354 113.341C-10.2394 113.418 -10.3346 113.506 -10.4191 113.605L-10.7029 113.909L-10.9461 114.192L-35.9568 139.203L-30.7479 144.412L-18.425 132.109C-18.2603 131.933 -18.0492 131.808 -17.816 131.747C-17.5829 131.686 -17.3373 131.692 -17.1076 131.765C-16.8738 131.831 -16.663 131.961 -16.4985 132.14C-16.3339 132.319 -16.2221 132.54 -16.1752 132.778C-15.3072 136.816 -13.2897 140.516 -10.3659 143.432C-7.44211 146.349 -3.73699 148.357 0.302643 149.215C0.538994 149.267 0.757355 149.38 0.935154 149.544C1.11295 149.708 1.24372 149.917 1.31397 150.148C1.38423 150.379 1.3914 150.625 1.33475 150.861C1.27811 151.096 1.15969 151.311 0.991749 151.485L-10.9056 163.362L-5.67641 168.592L20.368 142.527C20.4235 142.418 20.4916 142.316 20.5706 142.223C22.6548 139.794 24.155 136.92 24.956 133.821C25.757 130.722 25.8377 127.481 25.1917 124.347C25.1432 124.13 25.1513 123.904 25.2152 123.691C25.2791 123.478 25.3966 123.285 25.5565 123.131L70.2475 78.4801ZM51.2969 80.5069L52.5535 81.7636C53.811 83.0216 54.5174 84.7276 54.5174 86.5063C54.5174 88.285 53.811 89.991 52.5535 91.249L34.9204 108.882C33.6623 110.14 31.9564 110.846 30.1777 110.846C28.3989 110.846 26.693 110.14 25.435 108.882L24.1783 107.626C22.9209 106.367 22.2145 104.662 22.2145 102.883C22.2145 101.104 22.9209 99.3981 24.1783 98.1401L41.8115 80.5069C43.0722 79.2521 44.7797 78.5494 46.5584 78.5532C48.3371 78.557 50.0416 79.267 51.2969 80.5272V80.5069ZM27.3401 106.977C28.0988 107.726 29.1218 108.146 30.1878 108.146C31.2538 108.146 32.2768 107.726 33.0354 106.977L50.6686 89.3641C51.4236 88.6046 51.8474 87.5772 51.8474 86.5063C51.8474 85.4354 51.4236 84.408 50.6686 83.6485L49.412 82.4121C48.6534 81.6633 47.6303 81.2434 46.5643 81.2434C45.4984 81.2434 44.4753 81.6633 43.7167 82.4121L26.0835 100.025C25.3286 100.785 24.9048 101.812 24.9048 102.883C24.9048 103.954 25.3286 104.981 26.0835 105.741L27.3401 106.977ZM14.0849 118.976C15.9878 120.881 17.2832 123.308 17.8072 125.95C18.3312 128.591 18.0604 131.329 17.029 133.816C15.9976 136.304 14.2519 138.43 12.0124 139.926C9.77303 141.422 7.14045 142.22 4.44744 142.22C1.75444 142.22 -0.878139 141.422 -3.11755 139.926C-5.35696 138.43 -7.10269 136.304 -8.13411 133.816C-9.16553 131.329 -9.43634 128.591 -8.91231 125.95C-8.38828 123.308 -7.09294 120.881 -5.18999 118.976C-2.62727 116.43 0.839409 115.003 4.45162 115.007C8.06384 115.01 11.5275 116.445 14.0849 118.996V118.976ZM-3.30506 136.366C-1.77404 137.895 0.176136 138.937 2.29895 139.358C4.42176 139.78 6.62191 139.563 8.62126 138.734C10.6206 137.905 12.3294 136.502 13.5316 134.703C14.7338 132.903 15.3755 130.787 15.3755 128.623C15.3755 126.459 14.7338 124.343 13.5316 122.544C12.3294 120.744 10.6206 119.341 8.62126 118.512C6.62191 117.684 4.42176 117.466 2.29895 117.888C0.176136 118.31 -1.77404 119.351 -3.30506 120.881C-5.35588 122.94 -6.50737 125.727 -6.50737 128.633C-6.50737 131.539 -5.35588 134.327 -3.30506 136.386V136.366Z" fill="#E7E7E7"/>
<path id="Vector_2" d="M62.8914 14.8995L118.507 70.4946C118.633 70.619 118.733 70.7673 118.802 70.9309C118.87 71.0944 118.905 71.2699 118.905 71.4472C118.905 71.6244 118.87 71.8 118.802 71.9635C118.733 72.1271 118.633 72.2753 118.507 72.3998L104.319 86.5874C104.173 86.7354 103.994 86.8473 103.797 86.9141C103.6 86.981 103.39 87.001 103.184 86.9725C102.977 86.9421 102.779 86.8641 102.607 86.7445C102.434 86.625 102.292 86.4671 102.191 86.2834L100.671 83.608L97.5497 86.7293C95.7043 88.5623 93.2089 89.591 90.6079 89.591C88.0069 89.591 85.5115 88.5623 83.6661 86.7293L46.373 49.4159C44.5351 47.5731 43.5029 45.0767 43.5029 42.4741C43.5029 39.8715 44.5351 37.375 46.373 35.5323L49.474 32.4313L47.1837 31.1139C47.0053 31.0137 46.8521 30.8739 46.7362 30.7052C46.6202 30.5365 46.5445 30.3436 46.5149 30.141C46.4831 29.9348 46.5014 29.7239 46.5685 29.5264C46.6355 29.3288 46.7492 29.1503 46.9 29.006L61.0876 14.8184C61.342 14.5996 61.6704 14.4863 62.0056 14.5013C62.3408 14.5164 62.6576 14.6588 62.8914 14.8995ZM115.588 71.4472L61.878 17.737L49.9199 29.6952L52.2102 31.0328C52.3827 31.1427 52.5297 31.2882 52.6416 31.4594C52.7534 31.6307 52.8274 31.8238 52.8588 32.026C52.8796 32.2286 52.856 32.4333 52.7895 32.6259C52.723 32.8184 52.6152 32.9941 52.4737 33.1407L48.1363 37.4781C47.4672 38.1413 46.936 38.9306 46.5735 39.8003C46.211 40.6699 46.0244 41.6028 46.0244 42.5451C46.0244 43.4873 46.211 44.4201 46.5735 45.2898C46.936 46.1595 47.4672 46.9488 48.1363 47.612L85.4497 84.9254C86.113 85.5946 86.9023 86.1258 87.7719 86.4883C88.6416 86.8508 89.5745 87.0373 90.5167 87.0373C91.4589 87.0373 92.3918 86.8508 93.2615 86.4883C94.1311 86.1258 94.9204 85.5946 95.5837 84.9254L99.9413 80.5881C100.081 80.4433 100.253 80.3331 100.443 80.2663C100.633 80.1995 100.836 80.1778 101.036 80.203C101.242 80.2209 101.44 80.2895 101.614 80.4027C101.787 80.5158 101.93 80.67 102.029 80.8515L103.61 83.5472L115.588 71.4472Z" fill="#E7E7E7"/>
<path id="Vector_3" d="M75.3784 2.7166L130.669 58.0077C130.889 58.2332 131.025 58.527 131.055 58.8404C131.084 59.1539 131.005 59.4679 130.832 59.7304C130.316 60.4594 129.732 61.138 129.089 61.7572L126.555 64.2705C126.432 64.3961 126.286 64.496 126.124 64.5641C125.962 64.6323 125.788 64.6673 125.613 64.6673C125.437 64.6673 125.263 64.6323 125.101 64.5641C124.939 64.496 124.793 64.3961 124.67 64.2705L69.0548 8.67533C68.9286 8.55088 68.8283 8.40262 68.7599 8.23908C68.6915 8.07555 68.6562 7.9 68.6562 7.72273C68.6562 7.54546 68.6915 7.36998 68.7599 7.20645C68.8283 7.04291 68.9286 6.89465 69.0548 6.7702L71.6288 4.21641C72.2477 3.58464 72.9265 3.01446 73.6556 2.51391C73.9226 2.34523 74.2393 2.27333 74.5529 2.31022C74.8665 2.34712 75.1579 2.49058 75.3784 2.7166ZM127.954 59.0819L74.3447 5.45273L73.5746 6.16212L71.9531 7.7836L125.663 61.4938L127.244 59.9128C127.496 59.6491 127.733 59.3717 127.954 59.0819Z" fill="#E7E7E7"/>
<path id="Vector_4" d="M112.02 21.0801C118.679 27.7388 124.831 34.8863 130.423 42.4628C131.941 44.5287 132.906 46.9471 133.229 49.4898C133.551 52.0326 133.221 54.6156 132.268 56.995C132.18 57.1942 132.046 57.3698 131.876 57.5072C131.707 57.6446 131.508 57.7399 131.295 57.7854C131.078 57.8359 130.852 57.8288 130.638 57.7649C130.425 57.7009 130.232 57.5822 130.079 57.4206L75.943 3.305C75.7906 3.14545 75.6781 2.95213 75.6146 2.74078C75.5512 2.52942 75.5387 2.30602 75.5782 2.08891C75.617 1.87025 75.7123 1.66554 75.8545 1.49493C75.9966 1.32432 76.1808 1.19374 76.3889 1.11608C78.7772 0.138588 81.3776 -0.205247 83.9379 0.117899C86.4982 0.441044 88.9316 1.42021 91.0021 2.96048C98.443 8.47675 105.468 14.533 112.02 21.0801ZM130.403 53.975C130.796 52.2743 130.819 50.5089 130.469 48.7987C130.119 47.0885 129.406 45.4737 128.376 44.064C117.423 29.2224 104.321 16.0935 89.5023 5.10888C88.0887 4.0544 86.4645 3.31672 84.7403 2.946C83.0161 2.57528 81.2323 2.58021 79.5102 2.96048L130.403 53.975Z" fill="#E7E7E7"/>
<path id="Vector_5" d="M69.0527 8.73669L124.668 64.3319C124.794 64.4563 124.895 64.6046 124.963 64.7681C125.031 64.9316 125.067 65.1072 125.067 65.2845C125.067 65.4617 125.031 65.6372 124.963 65.8007C124.895 65.9643 124.794 66.1126 124.668 66.2371L120.392 70.4933C120.269 70.6189 120.122 70.7188 119.96 70.787C119.799 70.8551 119.625 70.8902 119.449 70.8902C119.273 70.8902 119.1 70.8551 118.938 70.787C118.776 70.7188 118.629 70.6189 118.507 70.4933L62.8913 14.8982C62.765 14.7737 62.6648 14.6255 62.5963 14.4619C62.5279 14.2984 62.4927 14.1229 62.4927 13.9456C62.4927 13.7683 62.5279 13.5928 62.5963 13.4293C62.6648 13.2658 62.765 13.1174 62.8913 12.993L67.1678 8.73669C67.2905 8.61106 67.4371 8.51124 67.599 8.44308C67.7608 8.37492 67.9346 8.33984 68.1103 8.33984C68.2859 8.33984 68.4597 8.37492 68.6216 8.44308C68.7834 8.51124 68.93 8.61106 69.0527 8.73669ZM121.75 65.2845L68.0393 11.5743L65.668 13.9456L119.378 67.6558L121.75 65.2845Z" fill="#E7E7E7"/>
</g>
</svg>
