<svg width="150" height="182" viewBox="0 0 150 182" fill="none" xmlns="http://www.w3.org/2000/svg">
<g id="Group 43012">
<path id="Vector" d="M60.4553 81.1614C60.2469 81.8228 60.2393 82.5312 60.4334 83.197C60.6276 83.8627 61.0147 84.456 61.5461 84.9017C62.0774 85.3474 62.7288 85.6255 63.4182 85.7009C64.1076 85.7763 64.8039 85.6456 65.419 85.3253C66.0341 85.005 66.5403 84.5095 66.8738 83.9015C67.2073 83.2934 67.3531 82.6001 67.2926 81.9093C67.232 81.2185 66.9679 80.561 66.5338 80.0202C66.0996 79.4795 65.5149 79.0796 64.8535 78.8711C63.9665 78.5916 63.0049 78.6759 62.18 79.1054C61.3552 79.5349 60.7349 80.2744 60.4553 81.1614Z" fill="#E7E7E7"/>
<path id="Vector_2" d="M64.124 104.49C64.3694 104.864 64.7451 105.133 65.1782 105.246C65.6112 105.359 66.0707 105.306 66.4673 105.099C66.864 104.892 67.1695 104.545 67.3245 104.125C67.4795 103.705 67.4729 103.243 67.306 102.828C67.2121 102.594 67.0702 102.382 66.8895 102.207C66.7089 102.031 66.4934 101.895 66.257 101.808C66.0207 101.721 65.7687 101.684 65.5173 101.7C65.2658 101.716 65.0205 101.785 64.7972 101.901C64.5738 102.018 64.3774 102.18 64.2206 102.377C64.0637 102.574 63.9499 102.802 63.8864 103.046C63.823 103.29 63.8114 103.544 63.8523 103.793C63.8932 104.042 63.9858 104.279 64.124 104.49Z" fill="#E7E7E7"/>
<path id="Vector_3" d="M102.066 116.385C102.171 116.597 102.317 116.785 102.496 116.939C102.675 117.092 102.884 117.209 103.109 117.281C103.333 117.352 103.571 117.378 103.806 117.357C104.041 117.335 104.269 117.267 104.477 117.155C104.797 116.994 105.061 116.74 105.236 116.428C105.411 116.116 105.489 115.759 105.461 115.402C105.432 115.045 105.298 114.705 105.075 114.425C104.853 114.144 104.552 113.937 104.211 113.828C103.87 113.719 103.505 113.714 103.161 113.813C102.817 113.913 102.511 114.112 102.281 114.387C102.051 114.661 101.907 114.997 101.869 115.353C101.831 115.709 101.899 116.068 102.066 116.385Z" fill="#E7E7E7"/>
<path id="Vector_4" d="M113.961 78.4025C114.07 78.6128 114.219 78.7995 114.401 78.952C114.582 79.1045 114.791 79.2198 115.017 79.2914C115.243 79.3629 115.481 79.3892 115.717 79.3689C115.953 79.3485 116.183 79.2819 116.393 79.1727C116.814 78.9484 117.13 78.5683 117.274 78.1137C117.418 77.6591 117.378 77.1662 117.163 76.7405C116.943 76.3159 116.563 75.9962 116.107 75.8518C115.65 75.7073 115.156 75.7499 114.731 75.9703C114.306 76.1907 113.987 76.5708 113.842 77.0269C113.698 77.483 113.74 77.9779 113.961 78.4025Z" fill="#E7E7E7"/>
<path id="Vector_5" d="M76.0189 66.546C76.1833 66.8627 76.4378 67.1235 76.7504 67.2954C77.063 67.4674 77.4195 67.5428 77.7749 67.5122C78.1304 67.4815 78.4688 67.3461 78.7473 67.1232C79.0258 66.9002 79.2319 66.5997 79.3396 66.2596C79.4473 65.9195 79.4517 65.5551 79.3523 65.2124C79.2529 64.8698 79.0542 64.5643 78.7812 64.3347C78.5082 64.105 78.1732 63.9614 77.8186 63.9221C77.464 63.8828 77.1058 63.9496 76.7891 64.1139C76.3683 64.3382 76.0521 64.7184 75.9081 65.173C75.7641 65.6276 75.8039 66.1204 76.0189 66.546Z" fill="#E7E7E7"/>
<path id="Vector_6" d="M78.859 116.407C78.6505 117.069 78.6428 117.777 78.8369 118.443C79.0311 119.109 79.4184 119.702 79.9497 120.148C80.481 120.593 81.1325 120.871 81.8219 120.947C82.5112 121.022 83.2075 120.891 83.8225 120.571C84.4376 120.251 84.944 119.755 85.2775 119.147C85.6109 118.539 85.7566 117.846 85.6961 117.155C85.6355 116.464 85.3715 115.807 84.9374 115.266C84.5032 114.725 83.9185 114.325 83.2571 114.117C82.3701 113.843 81.4109 113.93 80.5875 114.359C79.7641 114.787 79.1431 115.524 78.859 116.407Z" fill="#E7E7E7"/>
<path id="Vector_7" d="M114.126 98.0026C113.918 98.664 113.91 99.3723 114.104 100.038C114.298 100.704 114.685 101.297 115.217 101.743C115.748 102.189 116.4 102.467 117.089 102.542C117.778 102.617 118.475 102.487 119.09 102.166C119.705 101.846 120.211 101.351 120.545 100.743C120.878 100.135 121.024 99.4413 120.963 98.7505C120.903 98.0596 120.639 97.4022 120.205 96.8614C119.77 96.3206 119.186 95.9207 118.524 95.7123C118.085 95.5711 117.622 95.5184 117.163 95.5574C116.703 95.5963 116.256 95.726 115.847 95.939C115.438 96.152 115.075 96.4441 114.78 96.7983C114.484 97.1525 114.262 97.5619 114.126 98.0026Z" fill="#E7E7E7"/>
<path id="Vector_8" d="M95.6993 62.7567C95.4961 63.418 95.4931 64.1247 95.6907 64.7877C95.8883 65.4507 96.2776 66.0405 96.8096 66.4828C97.3417 66.925 97.9926 67.2 98.6806 67.2731C99.3685 67.3461 100.063 67.2141 100.676 66.8935C101.289 66.5729 101.793 66.0781 102.126 65.4713C102.458 64.8646 102.604 64.1731 102.544 63.4839C102.485 62.7946 102.222 62.1384 101.791 61.5979C101.359 61.0573 100.777 60.6566 100.118 60.4462C99.2253 60.1669 98.2586 60.2534 97.43 60.6866C96.6015 61.1199 95.979 61.8645 95.6993 62.7567Z" fill="#E7E7E7"/>
<path id="Vector_9" d="M139.988 106.11C136.929 115.856 131.049 124.475 123.092 130.879C115.135 137.283 105.457 141.183 95.2832 142.087C85.1091 142.991 74.8955 140.857 65.934 135.956C56.9726 131.055 49.6658 123.606 44.9377 114.553C40.2095 105.499 38.2722 95.2461 39.371 85.0913C40.4698 74.9364 44.5552 65.3355 51.1106 57.5025C57.666 49.6696 66.3969 43.9565 76.1993 41.0857C86.0017 38.2149 96.4352 38.3153 106.181 41.3743C119.238 45.4899 130.131 54.6167 136.468 66.7525C142.806 78.8884 144.072 93.0426 139.988 106.11ZM47.7073 77.127C45.0379 85.6331 44.9508 94.7397 47.4569 103.295C49.963 111.851 54.9498 119.471 61.7868 125.193C68.6237 130.914 77.0038 134.48 85.8671 135.439C94.7305 136.397 103.679 134.706 111.582 130.58C119.484 126.453 125.985 120.075 130.263 112.253C134.541 104.432 136.403 95.5171 135.615 86.637C134.826 77.7568 131.422 69.3099 125.833 62.3644C120.244 55.4189 112.72 50.2867 104.214 47.6168C92.7971 44.0341 80.4245 45.1296 69.8142 50.6628C59.2039 56.1959 51.2237 65.7142 47.6263 77.127H47.7073Z" fill="#E7E7E7"/>
<path id="Vector_10" d="M177.116 117.785C171.747 134.889 161.426 150.017 147.46 161.255C133.493 172.493 116.507 179.338 98.6501 180.922C80.7934 182.507 62.8678 178.761 47.1402 170.157C31.4126 161.554 18.5895 148.48 10.2924 132.589C1.99527 116.698 -1.40316 98.7028 0.526906 80.8801C2.45697 63.0574 9.62892 46.2073 21.1356 32.4607C32.6423 18.714 47.9669 8.6883 65.1716 3.65132C82.3763 -1.38566 100.688 -1.20764 117.792 4.16285C140.713 11.3825 159.833 27.4015 170.955 48.7037C182.077 70.006 184.293 94.8509 177.116 117.785ZM10.412 65.4532C5.43491 81.3182 5.27386 98.3027 9.94935 114.259C14.6248 130.216 23.9269 144.427 36.6791 155.097C49.4314 165.767 65.0611 172.416 81.5921 174.203C98.123 175.991 114.813 172.836 129.551 165.138C144.289 157.44 156.413 145.545 164.391 130.957C172.369 116.368 175.842 99.7418 174.371 83.1797C172.899 66.6176 166.55 50.8637 156.126 37.9101C145.701 24.9564 131.67 15.3847 115.806 10.4054C94.5295 3.75555 71.4845 5.81667 51.7262 16.1366C31.968 26.4565 17.11 44.1923 10.412 65.4532Z" fill="#E7E7E7"/>
<path id="Vector_11" d="M105.756 95.3878C104.813 98.3773 103.006 101.02 100.562 102.983C98.1172 104.945 95.146 106.138 92.0235 106.412C88.9009 106.686 85.7673 106.027 83.0189 104.52C80.2705 103.013 78.0305 100.725 76.5825 97.9451C75.1344 95.1652 74.5432 92.0183 74.8835 88.9023C75.2238 85.7863 76.4804 82.8412 78.4943 80.4393C80.5083 78.0374 83.1892 76.2867 86.1981 75.4084C89.2071 74.5301 92.4089 74.5637 95.3988 75.5049C99.4061 76.7721 102.747 79.5772 104.689 83.3047C106.63 87.0322 107.014 91.3777 105.756 95.3878ZM81.7585 87.8481C81.2065 89.6029 81.1871 91.482 81.7029 93.2478C82.2187 95.0136 83.2464 96.5868 84.6561 97.7686C86.0659 98.9504 87.7944 99.6878 89.6231 99.8874C91.4518 100.087 93.2986 99.7401 94.9302 98.8903C96.5617 98.0406 97.9048 96.7262 98.7894 95.1133C99.6741 93.5004 100.061 91.6615 99.9004 89.8289C99.7402 87.9963 99.0402 86.2524 97.889 84.8176C96.7378 83.3827 95.1871 82.3214 93.4328 81.7677C92.2671 81.3998 91.0402 81.2652 89.8224 81.3717C88.6045 81.4782 87.4197 81.8237 86.3355 82.3884C85.2512 82.9531 84.2889 83.7259 83.5036 84.6628C82.7182 85.5996 82.1252 86.682 81.7585 87.8481Z" fill="#E7E7E7"/>
<path id="Vector_12" d="M45.2552 79.3362C38.0079 81.1754 30.3917 80.9629 23.2583 78.7223C16.1248 76.4816 9.75515 72.3013 4.86108 66.6484L9.80648 62.3516C13.9106 67.0838 19.2487 70.5827 25.2253 72.458C31.202 74.3333 37.582 74.5113 43.6539 72.972L45.2552 79.3362Z" fill="#E7E7E7"/>
<path id="Vector_13" d="M78.7164 158.016C76.4798 165.15 72.3046 171.521 66.6569 176.419L62.3398 171.474C67.0758 167.373 70.5775 162.035 72.4531 156.057C74.3287 150.08 74.5043 143.698 72.9603 137.627L79.3447 136.025C81.1665 143.273 80.949 150.884 78.7164 158.016Z" fill="#E7E7E7"/>
<path id="Vector_14" d="M176.468 114.62L171.482 118.938C167.378 114.198 162.038 110.693 156.057 108.814C150.076 106.935 143.691 106.756 137.614 108.297L136.033 101.933C143.287 100.09 150.91 100.301 158.05 102.541C165.191 104.782 171.567 108.964 176.468 114.62Z" fill="#E7E7E7"/>
<path id="Vector_15" d="M108.309 43.6425L101.945 45.2437C100.106 37.9964 100.319 30.3804 102.559 23.2469C104.8 16.1134 108.98 9.74367 114.633 4.84961L118.93 9.79497C114.196 13.8976 110.696 19.2356 108.82 25.2128C106.945 31.1899 106.768 37.5708 108.309 43.6425Z" fill="#E7E7E7"/>
</g>
</svg>
