<svg width="130" height="192" viewBox="0 0 130 192" fill="none" xmlns="http://www.w3.org/2000/svg">
<path d="M33.9284 191.816C14.9579 191.82 -3.58776 186.198 -19.3629 175.661C-35.138 165.124 -47.4339 150.146 -54.6955 132.62C-61.9571 115.094 -63.8581 95.8087 -60.1581 77.2024C-56.4581 58.5962 -47.3233 41.5051 -33.9091 28.0909C-20.4949 14.6767 -3.40381 5.54189 15.2024 1.8419C33.8087 -1.85809 53.0943 0.0429245 70.62 7.3045C88.1458 14.5661 103.124 26.862 113.661 42.6371C124.198 58.4122 129.82 76.9579 129.816 95.9285C129.784 121.35 119.671 145.72 101.696 163.696C83.7205 181.671 59.3496 191.784 33.9284 191.816ZM33.9284 3.79016C15.7052 3.79016 -2.10874 9.19397 -17.2608 19.3183C-32.4129 29.4425 -44.2225 43.8326 -51.1962 60.6687C-58.1699 77.5047 -59.9946 96.0307 -56.4394 113.904C-52.8843 131.777 -44.1089 148.194 -31.2231 161.08C-18.3374 173.966 -1.91987 182.741 15.9532 186.296C33.8263 189.852 52.3522 188.027 69.1883 181.053C86.0243 174.079 100.414 162.27 110.539 147.118C120.663 131.966 126.067 114.152 126.067 95.9285C126.051 71.4931 116.34 48.0625 99.0649 30.7803C81.7902 13.498 58.3638 3.77646 33.9284 3.74962V3.79016ZM33.9284 169.238C19.4292 169.238 5.25568 164.938 -6.79998 156.883C-18.8556 148.828 -28.2519 137.378 -33.8005 123.983C-39.3491 110.587 -40.8009 95.8472 -37.9722 81.6265C-35.1436 67.4059 -28.1615 54.3434 -17.909 44.0909C-7.65653 33.8384 5.40591 26.8564 19.6265 24.0277C33.8472 21.1991 48.5872 22.6509 61.9827 28.1995C75.3783 33.7481 86.8277 43.1443 94.883 55.2C102.938 67.2556 107.238 81.4293 107.238 95.9285C107.206 115.358 99.4704 133.981 85.728 147.716C71.9856 161.451 53.3577 169.176 33.9284 169.197V169.238ZM33.9284 26.3687C20.17 26.3647 6.71938 30.4409 -4.72234 38.0818C-16.164 45.7227 -25.0829 56.585 -30.3508 69.2951C-35.6187 82.0051 -36.9991 95.9919 -34.3175 109.486C-31.6358 122.981 -25.0124 135.377 -15.2851 145.107C-5.5578 154.838 6.83654 161.465 20.3304 164.15C33.8242 166.836 47.8113 165.459 60.5229 160.195C73.2345 154.931 84.0995 146.015 91.7437 134.576C99.3879 123.136 103.468 109.687 103.468 95.9285C103.457 77.4831 96.1293 59.7955 83.0922 46.7469C70.0551 33.6984 52.3738 26.355 33.9284 26.3282V26.3687Z" fill="#E7E7E7"/>
<path d="M38.8532 104.666C37.867 105.653 36.6102 106.325 35.2418 106.598C33.8735 106.87 32.4552 106.731 31.1661 106.197C29.877 105.663 28.7752 104.759 28 103.599C27.2248 102.439 26.811 101.075 26.811 99.6802C26.811 98.285 27.2248 96.9212 28 95.7612C28.7752 94.6012 29.877 93.6972 31.1661 93.1634C32.4552 92.6297 33.8735 92.4903 35.2418 92.7628C36.6102 93.0353 37.867 93.7075 38.8532 94.6943C40.1701 96.0195 40.9092 97.8119 40.9092 99.6802C40.9092 101.548 40.1701 103.341 38.8532 104.666Z" fill="#E7E7E7"/>
<path d="M35.408 99.9632C35.163 99.9641 34.9204 99.9161 34.6942 99.8221C34.468 99.7282 34.2627 99.5901 34.0905 99.416C33.9115 99.2422 33.7693 99.0342 33.6721 98.8045C33.575 98.5747 33.5249 98.3278 33.5249 98.0783C33.5249 97.8288 33.575 97.5819 33.6721 97.3521C33.7693 97.1224 33.9115 96.9144 34.0905 96.7406L52.7371 78.0941C53.0913 77.7496 53.5666 77.558 54.0607 77.5606C54.5548 77.5631 55.0281 77.7595 55.3788 78.1076C55.7295 78.4556 55.9296 78.9274 55.9359 79.4215C55.9421 79.9155 55.7542 80.3923 55.4125 80.7492L36.7456 99.416C36.5696 99.5907 36.3608 99.729 36.1313 99.8229C35.9017 99.9168 35.656 99.9645 35.408 99.9632Z" fill="#E7E7E7"/>
<path d="M-5.47564 136.082C-5.72239 136.087 -5.96771 136.043 -6.19734 135.953C-6.42697 135.862 -6.63633 135.727 -6.81334 135.555C-14.8944 127.567 -20.4496 117.38 -22.7882 106.261C-25.1269 95.141 -24.1459 83.5793 -19.9672 73.0128C-15.7886 62.4463 -8.5965 53.3409 0.714918 46.8285C10.0263 40.3162 21.0464 36.6841 32.4052 36.3838H33.9456C45.2375 36.3928 56.2811 39.6997 65.7196 45.8984C75.1581 52.097 82.5806 60.9175 87.0754 71.2763C91.5703 81.6351 92.9417 93.0812 91.0213 104.209C89.1009 115.336 83.9721 125.66 76.2652 133.913C75.9238 134.279 75.4512 134.494 74.9514 134.511C74.4516 134.528 73.9654 134.346 73.5999 134.005C73.2344 133.663 73.0194 133.191 73.0023 132.691C72.9852 132.191 73.1674 131.705 73.5087 131.339C80.7786 123.556 85.5931 113.802 87.3503 103.298C89.1076 92.7935 87.7297 82.0041 83.3889 72.2784C79.0481 62.5527 71.9369 54.3222 62.9442 48.6157C53.9516 42.9092 43.4764 39.9798 32.8281 40.1938C22.1798 40.4077 11.8308 43.7555 3.07461 49.8187C-5.68154 55.8819 -12.4563 64.3914 -16.403 74.2836C-20.3496 84.1758 -21.2929 95.0119 -19.1151 105.437C-16.9373 115.863 -11.7349 125.415 -4.15823 132.9C-3.80796 133.253 -3.61139 133.73 -3.61139 134.228C-3.61139 134.725 -3.80796 135.202 -4.15823 135.555C-4.51953 135.884 -4.98735 136.071 -5.47564 136.082Z" fill="#E7E7E7"/>
<path d="M33.9273 55.3118C33.679 55.3145 33.4327 55.2676 33.2028 55.1738C32.9729 55.0801 32.764 54.9413 32.5884 54.7658C32.4128 54.5902 32.274 54.3813 32.1803 54.1514C32.0865 53.9215 32.0396 53.6752 32.0423 53.4269V38.2461C32.015 37.9836 32.0432 37.7182 32.125 37.4672C32.2067 37.2161 32.3403 36.9851 32.517 36.789C32.6938 36.5929 32.9097 36.4361 33.1509 36.3288C33.3921 36.2215 33.6532 36.166 33.9172 36.166C34.1812 36.166 34.4423 36.2215 34.6835 36.3288C34.9247 36.4361 35.1406 36.5929 35.3173 36.789C35.4941 36.9851 35.6276 37.2161 35.7094 37.4672C35.7911 37.7182 35.8193 37.9836 35.792 38.2461V53.4269C35.7947 53.6734 35.7484 53.9181 35.6559 54.1467C35.5634 54.3752 35.4264 54.5832 35.253 54.7585C35.0796 54.9338 34.8732 55.073 34.6456 55.1679C34.4181 55.2629 34.1738 55.3118 33.9273 55.3118Z" fill="#E7E7E7"/>
<path d="M7.59929 64.7372C7.32477 64.7398 7.05312 64.6811 6.80417 64.5654C6.55521 64.4497 6.33518 64.2799 6.16021 64.0683L-3.60891 52.4345C-3.9395 52.0528 -4.10496 51.5555 -4.06885 51.0518C-4.03274 50.5482 -3.79808 50.0796 -3.41643 49.749C-3.03477 49.4184 -2.5374 49.2529 -2.03376 49.2891C-1.53013 49.3252 -1.06148 49.5599 -0.730893 49.9415L9.0383 61.5753C9.19873 61.7628 9.31991 61.9805 9.39469 62.2156C9.46947 62.4508 9.4963 62.6985 9.47362 62.9442C9.45094 63.1899 9.37919 63.4285 9.26264 63.6459C9.14608 63.8634 8.98712 64.0553 8.79509 64.2102C8.47751 64.5308 8.0502 64.7191 7.59929 64.7372Z" fill="#E7E7E7"/>
<path d="M-14.96 124.04C-15.3724 124.038 -15.7727 123.901 -16.0998 123.65C-16.4268 123.399 -16.6624 123.047 -16.7705 122.649C-16.8786 122.251 -16.8532 121.829 -16.6983 121.447C-16.5434 121.065 -16.2674 120.744 -15.9126 120.534L-2.73845 112.933C-2.3094 112.731 -1.81978 112.697 -1.36729 112.84C-0.914804 112.983 -0.53274 113.291 -0.297356 113.703C-0.0619717 114.115 0.00940132 114.6 -0.0974464 115.062C-0.204296 115.525 -0.481546 115.93 -0.873827 116.196L-14.0277 123.797C-14.3144 123.952 -14.6342 124.035 -14.96 124.04Z" fill="#E7E7E7"/>
<path d="M58.9367 64.7363C58.4908 64.7395 58.0588 64.5811 57.7207 64.2904C57.5325 64.1324 57.3772 63.9388 57.2641 63.7206C57.1509 63.5025 57.082 63.2642 57.0613 63.0193C57.0406 62.7745 57.0685 62.5279 57.1433 62.2939C57.2182 62.0598 57.3386 61.8429 57.4976 61.6555L67.2668 49.9406C67.4164 49.726 67.6091 49.545 67.8325 49.4089C68.056 49.2728 68.3052 49.1847 68.5645 49.1502C68.8238 49.1158 69.0876 49.1356 69.3388 49.2086C69.59 49.2815 69.8232 49.406 70.0237 49.574C70.2242 49.742 70.3876 49.95 70.5034 50.1845C70.6191 50.4191 70.6848 50.6752 70.6962 50.9366C70.7076 51.1979 70.6644 51.4588 70.5695 51.7026C70.4746 51.9463 70.3301 52.1677 70.145 52.3525L60.4568 64.1282C60.2655 64.3373 60.0295 64.5006 59.7663 64.6059C59.5031 64.7112 59.2195 64.7557 58.9367 64.7363Z" fill="#E7E7E7"/>
<path d="M73.0437 88.8757C72.5826 88.861 72.1429 88.6778 71.8079 88.3607C71.4729 88.0436 71.2658 87.6146 71.2258 87.1551C71.1859 86.6955 71.3158 86.2372 71.591 85.867C71.8663 85.4968 72.2677 85.2405 72.7193 85.1464L87.6771 82.5116C88.1573 82.4517 88.6423 82.5788 89.0313 82.8665C89.4204 83.1543 89.6839 83.5806 89.7673 84.0573C89.8506 84.534 89.7474 85.0245 89.479 85.4272C89.2107 85.8299 88.7978 86.114 88.3257 86.2206L73.3679 88.8555L73.0437 88.8757Z" fill="#E7E7E7"/>
<path d="M81.4946 124.039C81.1619 124.038 80.8347 123.954 80.5419 123.796L67.388 116.196C67.1665 116.076 66.9714 115.913 66.814 115.716C66.6566 115.519 66.5403 115.293 66.4718 115.051C66.4034 114.808 66.3842 114.555 66.4154 114.305C66.4466 114.055 66.5276 113.814 66.6536 113.595C66.7795 113.377 66.948 113.187 67.1489 113.035C67.3498 112.883 67.5791 112.773 67.8233 112.711C68.0675 112.649 68.3215 112.637 68.5705 112.675C68.8195 112.713 69.0583 112.801 69.2729 112.933L82.4269 120.533C82.6431 120.655 82.8328 120.819 82.9849 121.015C83.1369 121.211 83.2484 121.435 83.3126 121.675C83.3767 121.915 83.3923 122.165 83.3586 122.411C83.3248 122.657 83.2424 122.893 83.116 123.107C82.9502 123.39 82.7134 123.625 82.429 123.789C82.1447 123.952 81.8226 124.038 81.4946 124.039Z" fill="#E7E7E7"/>
<path d="M33.9271 46.7796C33.678 46.7797 33.4387 46.6821 33.2606 46.5078C33.0825 46.3335 32.9799 46.0964 32.9746 45.8473V38.7535C33.0079 38.5273 33.1214 38.3206 33.2944 38.1711C33.4674 38.0217 33.6885 37.9395 33.9171 37.9395C34.1458 37.9395 34.3667 38.0217 34.5397 38.1711C34.7128 38.3206 34.8263 38.5273 34.8595 38.7535V45.8878C34.8443 46.1263 34.74 46.3504 34.5673 46.5156C34.3946 46.6807 34.1661 46.775 33.9271 46.7796Z" fill="#E7E7E7"/>
<path d="M25.5143 47.9136C25.2937 47.913 25.0802 47.8359 24.9102 47.6954C24.7402 47.555 24.6241 47.3599 24.5819 47.1434L23.2848 39.8064C23.2645 39.6853 23.2683 39.5613 23.2961 39.4417C23.3239 39.322 23.375 39.209 23.4466 39.1092C23.5182 39.0094 23.6088 38.9247 23.7132 38.86C23.8176 38.7953 23.9337 38.7519 24.0549 38.7322C24.1765 38.7027 24.3031 38.6991 24.4262 38.7216C24.5492 38.7442 24.6661 38.7924 24.7693 38.8632C24.8725 38.9339 24.9598 39.0255 25.0253 39.1322C25.0907 39.2388 25.1331 39.358 25.1495 39.4821L26.4465 46.8191C26.4878 47.0662 26.4302 47.3195 26.2861 47.5244C26.1419 47.7292 25.9229 47.8691 25.6764 47.9136H25.5143Z" fill="#E7E7E7"/>
<path d="M17.3083 50.0414C17.1184 50.0409 16.9331 49.9824 16.7774 49.8737C16.6216 49.7651 16.5028 49.6114 16.4367 49.4334L13.8424 42.4207C13.8007 42.3049 13.7822 42.182 13.7882 42.0591C13.7942 41.9362 13.8244 41.8157 13.8771 41.7046C13.9299 41.5934 14.0042 41.4938 14.0956 41.4114C14.1871 41.3291 14.2939 41.2657 14.4099 41.2248C14.5242 41.1797 14.6464 41.1582 14.7691 41.1615C14.8919 41.1647 15.0127 41.1928 15.1244 41.2439C15.236 41.295 15.3362 41.3681 15.419 41.4589C15.5017 41.5496 15.5652 41.6562 15.6058 41.7721L18.1595 48.7848C18.2013 48.9006 18.2197 49.0234 18.2137 49.1463C18.2078 49.2692 18.1775 49.3897 18.1248 49.5009C18.072 49.6121 17.9978 49.7117 17.9064 49.794C17.8149 49.8764 17.7081 49.9398 17.592 49.9806C17.5018 50.0174 17.4057 50.038 17.3083 50.0414Z" fill="#E7E7E7"/>
<path d="M9.62401 53.6309C9.45979 53.6314 9.29833 53.5886 9.15596 53.5068C9.0136 53.4249 8.89534 53.3069 8.81324 53.1647L5.08393 46.6992C4.9603 46.4842 4.92716 46.2289 4.99177 45.9894C5.05639 45.7499 5.2135 45.5459 5.42852 45.4223C5.64353 45.2987 5.89882 45.2655 6.13828 45.3302C6.37774 45.3948 6.58178 45.5519 6.70541 45.7669L10.4347 52.2324C10.5167 52.3743 10.5597 52.5354 10.5596 52.6993C10.5595 52.8633 10.5161 53.0243 10.4338 53.1661C10.3516 53.308 10.2335 53.4256 10.0913 53.5072C9.94911 53.5888 9.78794 53.6314 9.62401 53.6309Z" fill="#E7E7E7"/>
<path d="M40.4328 47.915H40.1896C40.0669 47.8958 39.9494 47.8517 39.8443 47.7854C39.7393 47.7191 39.6488 47.632 39.5786 47.5295C39.5084 47.427 39.4599 47.3113 39.436 47.1894C39.4121 47.0675 39.4133 46.942 39.4397 46.8206L40.7369 39.4836C40.7473 39.3589 40.7849 39.2381 40.8473 39.1297C40.9097 39.0213 40.9953 38.928 41.0978 38.8564C41.2004 38.7848 41.3175 38.7367 41.4408 38.7155C41.564 38.6942 41.6904 38.7005 41.811 38.7336C41.9322 38.7533 42.0484 38.7968 42.1528 38.8615C42.2572 38.9262 42.3478 39.0109 42.4194 39.1107C42.491 39.2105 42.542 39.3235 42.5698 39.4431C42.5976 39.5628 42.6015 39.6867 42.5812 39.8078L41.284 47.1651C41.2413 47.3649 41.1356 47.5456 40.9823 47.6806C40.829 47.8156 40.6363 47.8978 40.4328 47.915Z" fill="#E7E7E7"/>
<path d="M48.6395 50.0429C48.5322 50.0622 48.4225 50.0622 48.3152 50.0429C48.1992 50.002 48.0923 49.9386 48.0009 49.8562C47.9094 49.7739 47.8352 49.6743 47.7824 49.5631C47.7297 49.452 47.6994 49.3315 47.6935 49.2086C47.6875 49.0856 47.7059 48.9628 47.7477 48.847L50.3217 41.8343C50.4125 41.6021 50.5907 41.4147 50.818 41.3124C51.0454 41.2101 51.3038 41.201 51.5378 41.2871C51.7685 41.3736 51.9557 41.548 52.0582 41.7721C52.1607 41.9961 52.1704 42.2517 52.085 42.4829L49.5313 49.4956C49.4567 49.6673 49.3312 49.8119 49.1716 49.9098C49.0121 50.0077 48.8263 50.0542 48.6395 50.0429Z" fill="#E7E7E7"/>
<path d="M56.4029 53.628C56.2389 53.6286 56.0777 53.5859 55.9355 53.5043C55.7933 53.4228 55.6752 53.3051 55.593 53.1633C55.5108 53.0214 55.4674 52.8604 55.4673 52.6965C55.4671 52.5326 55.5101 52.3715 55.5921 52.2295L59.3215 45.764C59.3824 45.6573 59.4638 45.5636 59.5611 45.4885C59.6584 45.4133 59.7696 45.3582 59.8883 45.3261C60.007 45.2941 60.1307 45.2859 60.2526 45.3019C60.3745 45.3179 60.492 45.3579 60.5984 45.4195C60.7072 45.4784 60.8028 45.5588 60.8795 45.6558C60.9563 45.7529 61.0125 45.8645 61.0447 45.9839C61.0769 46.1034 61.0846 46.2281 61.0671 46.3506C61.0496 46.4731 61.0073 46.5907 60.9429 46.6964L57.2338 53.1618C57.1469 53.3043 57.0249 53.422 56.8794 53.5036C56.7339 53.5853 56.5697 53.6281 56.4029 53.628Z" fill="#E7E7E7"/>
<path d="M69.2726 64.4953C69.1342 64.4937 68.9981 64.4599 68.8749 64.3966C68.7518 64.3333 68.6451 64.2422 68.5633 64.1305C68.3876 63.9522 68.2891 63.7119 68.2891 63.4616C68.2891 63.2113 68.3876 62.971 68.5633 62.7928L74.3802 58.0501C74.574 57.8895 74.8236 57.8122 75.0742 57.835C75.3249 57.8578 75.5563 57.9788 75.718 58.1717C75.7969 58.266 75.8563 58.375 75.8929 58.4924C75.9295 58.6098 75.9426 58.7332 75.9313 58.8557C75.9199 58.9781 75.8846 59.0971 75.8271 59.2058C75.7696 59.3146 75.6911 59.4108 75.5963 59.4891L69.8808 64.2723C69.7995 64.3483 69.7038 64.4072 69.5994 64.4455C69.4949 64.4838 69.3838 64.5007 69.2726 64.4953Z" fill="#E7E7E7"/>
<path d="M74.1588 71.4445C73.9919 71.4446 73.8278 71.4017 73.6823 71.3201C73.5368 71.2385 73.4147 71.1208 73.3277 70.9783C73.2087 70.7623 73.1781 70.5085 73.2424 70.2703C73.3067 70.0322 73.4608 69.8282 73.6724 69.7014L80.1379 65.9721C80.3529 65.8485 80.6081 65.8153 80.8476 65.88C81.087 65.9446 81.2911 66.1017 81.4148 66.3167C81.5384 66.5317 81.5716 66.787 81.5069 67.0265C81.4423 67.2659 81.2852 67.4699 81.0701 67.5936L74.6452 71.3229C74.4972 71.4071 74.329 71.4491 74.1588 71.4445Z" fill="#E7E7E7"/>
<path d="M77.7475 79.1474C77.5524 79.1466 77.3622 79.0859 77.2027 78.9735C77.0432 78.8612 76.9221 78.7025 76.8557 78.5191C76.8139 78.4033 76.7954 78.2805 76.8014 78.1576C76.8073 78.0347 76.8376 77.9142 76.8903 77.803C76.9431 77.6918 77.0174 77.5922 77.1088 77.5099C77.2002 77.4275 77.3071 77.3641 77.4231 77.3233L84.4156 74.7695C84.6524 74.6899 84.9108 74.7044 85.1372 74.81C85.3636 74.9157 85.5406 75.1044 85.6316 75.337C85.6734 75.4528 85.6919 75.5756 85.686 75.6985C85.68 75.8214 85.6498 75.9419 85.597 76.0531C85.5443 76.1643 85.47 76.2639 85.3785 76.3462C85.2871 76.4286 85.1803 76.492 85.0642 76.5328L78.0717 79.0866L77.7475 79.1474Z" fill="#E7E7E7"/>
<path d="M88.1234 95.7865H80.7255C80.6014 95.7892 80.478 95.7671 80.3625 95.7215C80.2471 95.6758 80.1419 95.6076 80.0531 95.5207C79.9644 95.4339 79.8938 95.3302 79.8457 95.2157C79.7976 95.1013 79.7729 94.9784 79.7729 94.8542C79.7783 94.6051 79.8809 94.368 80.059 94.1937C80.237 94.0194 80.4763 93.9218 80.7255 93.9219H88.1638C88.413 93.9218 88.6523 94.0194 88.8303 94.1937C89.0084 94.368 89.1112 94.6051 89.1165 94.8542C89.1167 94.9819 89.0907 95.1083 89.0401 95.2256C88.9895 95.3429 88.9153 95.4485 88.8222 95.5359C88.729 95.6233 88.619 95.6907 88.4988 95.7338C88.3786 95.7769 88.2508 95.7949 88.1234 95.7865Z" fill="#E7E7E7"/>
<path d="M87.2727 105.536H87.1106L79.7736 104.239C79.5296 104.189 79.3137 104.049 79.1704 103.845C79.0271 103.641 78.9674 103.391 79.0034 103.144C79.0198 103.02 79.062 102.901 79.1275 102.794C79.193 102.688 79.2802 102.596 79.3834 102.525C79.4867 102.455 79.6036 102.406 79.7267 102.384C79.8498 102.361 79.9762 102.365 80.0978 102.394L87.4348 103.671C87.6789 103.72 87.8948 103.861 88.038 104.065C88.1813 104.269 88.2411 104.519 88.205 104.766C88.1665 104.984 88.0515 105.181 87.8807 105.322C87.7098 105.464 87.4943 105.539 87.2727 105.536Z" fill="#E7E7E7"/>
<path d="M84.7794 115.003C84.6722 115.022 84.5624 115.022 84.4552 115.003L77.4627 112.449C77.3466 112.408 77.2398 112.345 77.1483 112.262C77.0569 112.18 76.9826 112.08 76.9299 111.969C76.8771 111.858 76.8469 111.737 76.8409 111.615C76.835 111.492 76.8534 111.369 76.8951 111.253C76.9862 111.02 77.1633 110.832 77.3897 110.726C77.6161 110.62 77.8745 110.606 78.1113 110.686L85.1036 113.239C85.3232 113.305 85.511 113.448 85.6312 113.643C85.7515 113.838 85.7959 114.071 85.7558 114.296C85.7157 114.522 85.594 114.724 85.4139 114.866C85.2338 115.007 85.008 115.078 84.7794 115.063V115.003Z" fill="#E7E7E7"/>
<path d="M80.604 123.859C80.4407 123.86 80.2799 123.818 80.1379 123.737L73.6724 120.008C73.4608 119.881 73.3067 119.677 73.2424 119.439C73.1781 119.201 73.2087 118.947 73.3277 118.731C73.4583 118.518 73.6659 118.363 73.9074 118.299C74.1489 118.235 74.4058 118.266 74.6249 118.386L81.0701 122.116C81.1769 122.177 81.2706 122.258 81.3458 122.355C81.4209 122.453 81.476 122.564 81.5081 122.683C81.5401 122.801 81.5483 122.925 81.5323 123.047C81.5163 123.169 81.4764 123.286 81.4148 123.393C81.3343 123.536 81.2163 123.655 81.0736 123.738C80.9309 123.82 80.7686 123.862 80.604 123.859Z" fill="#E7E7E7"/>
<path d="M74.99 131.884C74.7683 131.878 74.5548 131.8 74.3819 131.661L68.6663 126.959C68.4906 126.781 68.3921 126.54 68.3921 126.29C68.3921 126.04 68.4906 125.799 68.6663 125.621C68.8411 125.447 69.0781 125.349 69.3251 125.349C69.5721 125.349 69.809 125.447 69.9838 125.621L75.6994 130.404C75.8923 130.566 76.0132 130.798 76.036 131.048C76.0588 131.299 75.9816 131.548 75.821 131.742C75.6997 131.822 75.5633 131.875 75.4203 131.9C75.2773 131.924 75.1308 131.919 74.99 131.884Z" fill="#E7E7E7"/>
<path d="M55.371 149.6H14.835C13.565 149.72 12.284 149.573 11.0739 149.169C9.86391 148.766 8.75154 148.114 7.8081 147.255C6.86465 146.396 6.11094 145.35 5.59518 144.183C5.07943 143.017 4.81299 141.755 4.81299 140.479C4.81299 139.204 5.07943 137.942 5.59518 136.776C6.11094 135.609 6.86465 134.563 7.8081 133.704C8.75154 132.845 9.86391 132.193 11.0739 131.79C12.284 131.386 13.565 131.239 14.835 131.359H55.371C57.6415 131.573 59.7506 132.627 61.2856 134.313C62.8206 136 63.6713 138.199 63.6713 140.479C63.6713 142.76 62.8206 144.959 61.2856 146.646C59.7506 148.332 57.6415 149.386 55.371 149.6ZM14.835 135.027C14.0978 134.982 13.3592 135.088 12.6647 135.339C11.9701 135.59 11.3342 135.981 10.7963 136.487C10.2583 136.993 9.82967 137.604 9.53664 138.282C9.24361 138.96 9.09241 139.69 9.09241 140.429C9.09241 141.167 9.24361 141.898 9.53664 142.576C9.82967 143.254 10.2583 143.865 10.7963 144.371C11.3342 144.877 11.9701 145.267 12.6647 145.518C13.3592 145.769 14.0978 145.875 14.835 145.83H55.371C56.1081 145.875 56.8467 145.769 57.5413 145.518C58.2358 145.267 58.8718 144.877 59.4097 144.371C59.9477 143.865 60.3764 143.254 60.6694 142.576C60.9624 141.898 61.1135 141.167 61.1135 140.429C61.1135 139.69 60.9624 138.96 60.6694 138.282C60.3764 137.604 59.9477 136.993 59.4097 136.487C58.8718 135.981 58.2358 135.59 57.5413 135.339C56.8467 135.088 56.1081 134.982 55.371 135.027H14.835Z" fill="#E7E7E7"/>
</svg>
