<svg width="136" height="212" viewBox="0 0 136 212" fill="none" xmlns="http://www.w3.org/2000/svg">
<g id="Group 43006">
<path id="Vector" d="M-50 47.2266V211.742H135.533V47.2266H-50ZM-6.97108 181.543C-8.14663 179.232 -9.38295 176.82 -10.7409 174.57C-11.0151 174.082 -11.1025 173.511 -10.9869 172.963C-10.8714 172.414 -10.5607 171.927 -10.1126 171.591C-1.82299 165.186 6.91246 158.336 15.1615 151.1C17.9443 155.249 21.6308 158.714 25.9441 161.234C18.1799 171.119 9.34302 180.112 -0.40427 188.049C-0.665413 188.259 -0.9702 188.408 -1.29631 188.485C-1.62243 188.562 -1.96162 188.565 -2.28918 188.494C-2.61772 188.427 -2.92909 188.293 -3.20436 188.102C-3.47962 187.91 -3.71297 187.664 -3.89031 187.38C-4.98478 185.596 -5.97795 183.569 -6.97108 181.543ZM-1.84334 192.67C-0.378502 192.682 1.04834 192.204 2.21025 191.312C12.8479 182.612 22.4564 172.724 30.8489 161.842L32.5312 159.815L30.1396 158.66C24.8319 156.092 20.4236 151.98 17.4924 146.864L16.2155 144.614L14.1887 146.337C5.49374 154.1 -3.87013 161.437 -12.7272 168.308C-13.9962 169.27 -14.8654 170.666 -15.1683 172.23C-15.4713 173.793 -15.1867 175.413 -14.3689 176.78C-13.0921 178.806 -11.8962 181.218 -10.7612 183.468C-10.1937 184.562 -9.60596 185.637 -9.03846 186.711C-21.1272 175.188 -29.0234 159.959 -31.4751 143.439C-30.4632 144.538 -29.1029 145.254 -27.6242 145.466C-22.184 146.129 -16.7078 146.454 -11.2273 146.438C-2.97761 146.363 5.26246 145.856 13.4591 144.918L16.0939 144.635L15.2224 142.142C14.1421 139.054 13.5871 135.806 13.5807 132.535C13.5849 129.938 13.9393 127.354 14.6345 124.853L15.3237 122.36L12.7294 122.198C1.01445 121.529 -10.7815 120.171 -21.8478 118.692C-23.4251 118.473 -25.0273 118.845 -26.3475 119.735C-27.6678 120.625 -28.6131 121.971 -29.0024 123.515C-29.5902 125.927 -30.4009 128.4 -31.1711 130.812C-31.5562 132.008 -31.9007 133.203 -32.2858 134.419C-32.2858 133.791 -32.2858 133.163 -32.2858 132.535C-32.2727 116.461 -27.0691 100.822 -17.4496 87.945C-17.4602 89.4096 -16.9824 90.8359 -16.0917 91.9986C-7.38134 102.633 2.50478 112.247 13.3779 120.658L15.4047 122.319L16.5397 119.928C19.1092 114.626 23.2209 110.225 28.3357 107.301L30.5854 106.024L28.8627 103.997C21.0595 95.2414 13.7429 85.8979 6.89228 77.0813C5.93307 75.8091 4.5378 74.9358 2.97427 74.6291C1.41073 74.3224 -0.211063 74.6038 -1.57985 75.4193C-3.70799 76.7165 -6.0387 77.9123 -8.30872 79.0676C-9.38292 79.6148 -10.3355 80.2026 -11.5111 80.7701C0.00175858 68.6675 15.2357 60.7687 31.761 58.3334C30.6968 59.3584 30.017 60.7179 29.8355 62.1843C28.4592 75.8552 28.6428 89.6382 30.3828 103.268L30.6666 105.902L33.1798 105.031C38.7384 103.063 44.7687 102.858 50.4482 104.443L52.9614 105.112L53.1033 102.538C53.7721 90.9244 55.1301 79.0878 56.6096 67.9607C56.8276 66.3834 56.456 64.7812 55.5659 63.461C54.6758 62.1408 53.3298 61.1954 51.7858 60.8061C49.3739 60.1981 46.881 59.3874 44.4894 58.6172C43.2936 58.2321 42.0977 57.8875 40.9019 57.5227C41.5302 57.5227 42.1382 57.5227 42.7665 57.5227C58.8419 57.5431 74.481 62.7537 87.3561 72.3791C85.89 72.3591 84.4607 72.8379 83.3025 73.7371C72.664 82.4353 63.0493 92.3153 54.6437 103.186L52.9817 105.213L55.3733 106.369C60.6779 108.924 65.0812 113.031 68.0002 118.144L69.2974 120.414L71.2229 118.671C79.9989 110.848 89.3424 103.531 98.1387 96.721C99.411 95.7618 100.284 94.3666 100.591 92.803C100.898 91.2395 100.616 89.6178 99.8007 88.249C98.5036 86.2222 97.3078 83.7698 96.1525 81.4997C95.6053 80.4255 95.0174 79.4729 94.4499 78.3177C106.552 89.8224 114.452 105.05 116.887 121.57C115.867 120.509 114.515 119.83 113.056 119.644C99.378 118.264 85.5871 118.454 71.9525 120.212L69.3177 120.475L70.1892 122.988C72.1822 128.542 72.3877 134.58 70.7769 140.257L70.108 142.77L72.7024 142.912C84.4173 143.581 96.193 144.939 107.259 146.418C107.543 146.438 107.827 146.438 108.111 146.418C109.559 146.43 110.971 145.955 112.117 145.07C113.264 144.184 114.08 142.939 114.434 141.534C115.022 139.122 115.833 136.629 116.623 134.197C117.008 133.021 117.333 131.845 117.697 130.65C117.697 131.278 117.697 131.886 117.697 132.514C117.681 148.59 112.47 164.231 102.841 177.104C102.868 175.637 102.388 174.205 101.483 173.05C92.79 162.413 82.9093 152.804 72.0335 144.412L70.0067 142.75L68.8514 145.121C66.3023 150.43 62.1942 154.835 57.0757 157.748L54.8057 159.045L56.5489 160.971C64.3318 169.706 71.6687 179.07 78.499 187.907C79.1137 188.698 79.9002 189.339 80.7991 189.781C81.698 190.224 82.6857 190.456 83.6876 190.46C84.8459 190.47 85.9836 190.154 86.971 189.548C88.9978 188.272 91.43 187.076 93.6797 185.92C94.7742 185.373 95.8485 184.785 96.9227 184.198C85.4023 196.294 70.1731 204.197 53.6504 206.655C54.7494 205.643 55.4653 204.282 55.6772 202.804C57.0575 189.133 56.8671 175.348 55.1098 161.72L54.8463 159.086L52.3331 159.957C46.7743 161.924 40.7444 162.129 35.0647 160.545L32.6731 159.856L32.5312 162.45C31.8624 174.165 30.5045 185.961 29.0249 197.027C28.8069 198.605 29.1785 200.207 30.0686 201.527C30.9587 202.847 32.3048 203.793 33.8487 204.182C36.2403 204.77 38.7332 205.58 41.1451 206.371C42.3409 206.756 43.5368 207.08 44.7326 207.445C44.1043 207.445 43.4963 207.546 42.868 207.546C26.7935 207.541 11.152 202.336 -1.72162 192.71L-1.84334 192.67ZM10.5202 140.885C-1.96259 142.373 -14.5717 142.475 -27.0769 141.189C-27.408 141.142 -27.7253 141.026 -28.0083 140.848C-28.2912 140.67 -28.5333 140.434 -28.7186 140.155C-28.9087 139.877 -29.0361 139.561 -29.0921 139.228C-29.1481 138.896 -29.1314 138.555 -29.043 138.23C-28.4957 136.203 -27.8269 134.075 -27.1378 131.987C-26.3473 129.515 -25.5163 126.961 -24.8678 124.387C-24.7428 123.896 -24.4532 123.464 -24.0473 123.161C-23.6415 122.859 -23.144 122.705 -22.6382 122.725H-22.3343C-11.957 124.042 -0.97179 125.38 10.0945 126.11C9.69251 128.18 9.48893 130.284 9.48652 132.393C9.45628 135.297 9.80377 138.192 10.5202 141.007V140.885ZM-12.1394 85.756C-10.2747 84.6818 -8.32908 83.7292 -6.38335 82.6956C-4.05254 81.52 -1.66089 80.2837 0.609127 78.9054C0.937515 78.7018 1.31721 78.5964 1.70356 78.6014C2.06914 78.6083 2.42847 78.6975 2.75481 78.8624C3.08115 79.0274 3.36621 79.2638 3.58859 79.554C9.97301 87.8031 16.8033 96.5183 24.0795 104.828C19.9356 107.608 16.4717 111.287 13.9455 115.591C4.05966 107.827 -4.93359 98.9903 -12.869 89.2421C-13.0807 88.9779 -13.2306 88.6697 -13.3078 88.34C-13.385 88.0104 -13.3874 87.6676 -13.315 87.3369C-13.241 87.0109 -13.0977 86.7046 -12.8949 86.4388C-12.692 86.173 -12.4344 85.954 -12.1394 85.7966V85.756ZM36.9496 60.6034C38.9764 61.1507 41.0033 61.8398 43.1922 62.5086C45.6649 63.3193 48.2389 64.1503 50.7927 64.7786C51.3358 64.9225 51.8055 65.2643 52.1093 65.7369C52.4131 66.2095 52.5291 66.7786 52.4344 67.3324C51.117 77.7299 49.7793 88.7557 49.0497 99.7612C44.1593 98.7868 39.1101 98.9532 34.2945 100.248C32.8069 87.7648 32.705 75.1557 33.9906 62.6505C34.0347 62.3159 34.1497 61.9945 34.3279 61.7079C34.5062 61.4213 34.7435 61.176 35.0241 60.9885C35.414 60.727 35.8722 60.5861 36.3416 60.5832C36.5462 60.5726 36.7512 60.5931 36.9496 60.644V60.6034ZM92.484 83.2631C93.6595 85.5939 94.8959 88.0058 96.2741 90.2555C96.5527 90.7428 96.6425 91.3155 96.5267 91.8647C96.4109 92.414 96.0974 92.9016 95.6458 93.2349C87.3764 99.6193 78.6815 106.429 70.3514 113.726C67.5596 109.592 63.8834 106.13 59.5891 103.592C67.3576 93.7106 76.194 84.7179 85.9375 76.7773C86.2066 76.5752 86.5157 76.4327 86.8442 76.3593C87.1727 76.2859 87.513 76.2833 87.8425 76.3517C88.1719 76.4096 88.4844 76.5395 88.7577 76.7322C89.031 76.9249 89.2584 77.1756 89.4235 77.4664C90.4977 79.4121 91.4503 81.3579 92.484 83.3036V83.2631ZM74.9927 123.961C87.4749 122.463 100.085 122.361 112.59 123.657C112.926 123.697 113.248 123.811 113.536 123.989C113.823 124.168 114.067 124.407 114.252 124.691C114.443 124.965 114.571 125.278 114.627 125.607C114.683 125.937 114.665 126.274 114.576 126.596C114.029 128.623 113.34 130.65 112.671 132.798C111.88 135.291 111.029 137.865 110.401 140.439C110.257 140.983 109.916 141.455 109.444 141.762C108.972 142.069 108.403 142.19 107.847 142.101C97.4902 140.784 86.505 139.446 75.4184 138.716C75.8371 136.641 76.0476 134.53 76.0467 132.413C76.0649 129.575 75.7105 126.747 74.9927 124.002V123.961ZM97.6523 179.09C95.7877 180.164 93.8419 181.117 91.8961 182.151C89.5856 183.326 87.1738 184.563 84.9241 185.92C84.4379 186.204 83.8638 186.296 83.3133 186.18C82.7628 186.064 82.2751 185.747 81.9446 185.292C75.5399 177.023 68.7096 168.308 61.4537 159.998C65.6063 157.228 69.0723 153.547 71.5877 149.235C81.4688 157.004 90.4615 165.84 98.4022 175.584C98.6033 175.854 98.7467 176.162 98.8234 176.49C98.9001 176.818 98.9086 177.158 98.8482 177.489C98.7815 177.834 98.6398 178.159 98.4331 178.443C98.2265 178.727 97.9599 178.962 97.6523 179.131V179.09ZM48.5834 204.222C46.5566 203.675 44.4286 203.006 42.341 202.317C39.8683 201.527 37.2943 200.676 34.7405 200.068C34.2008 199.916 33.7346 199.573 33.4288 199.103C33.1231 198.634 32.9986 198.069 33.0785 197.514C34.3959 187.157 35.7336 176.151 36.4632 165.085C41.3542 166.051 46.4016 165.885 51.2184 164.599C52.7162 177.081 52.8181 189.691 51.5223 202.196C51.4793 202.528 51.3647 202.847 51.1862 203.13C51.0077 203.414 50.7696 203.655 50.4886 203.837C50.2227 204.046 49.9138 204.192 49.5842 204.265C49.2546 204.339 48.9127 204.338 48.5834 204.263V204.222ZM131.317 207.506H68.0408C85.8685 201.51 100.984 189.372 110.688 173.26C120.392 157.148 124.052 138.11 121.014 119.548C117.976 100.986 108.439 84.1089 94.1054 71.9303C79.7718 59.7516 61.5754 53.0652 42.7665 53.0652C23.9577 53.0652 5.76144 59.7516 -8.57221 71.9303C-22.9059 84.1089 -32.4433 100.986 -35.481 119.548C-38.5187 138.11 -34.8587 157.148 -25.1549 173.26C-15.451 189.372 -0.335262 201.51 17.4924 207.506H-45.8045V51.4423H131.317V207.506Z" fill="#E7E7E7"/>
<path id="Vector_2" d="M69.6217 132.452C69.6377 127.131 68.0737 121.925 65.1277 117.493C62.1817 113.061 57.9862 109.604 53.0733 107.559C48.1603 105.515 42.751 104.974 37.5307 106.007C32.3104 107.04 27.5142 109.599 23.7499 113.361C19.9856 117.122 17.4227 121.916 16.386 127.136C15.3493 132.355 15.8855 137.765 17.9265 142.68C19.9676 147.594 23.4217 151.792 27.8511 154.741C32.2805 157.691 37.4857 159.259 42.8072 159.247C49.9104 159.231 56.7184 156.403 61.7431 151.382C66.7677 146.362 69.6003 139.556 69.6217 132.452ZM20.0867 132.452C20.0987 127.971 21.4381 123.594 23.9357 119.873C26.4333 116.152 29.9773 113.255 34.1202 111.546C38.2631 109.838 42.8192 109.395 47.2136 110.274C51.6079 111.152 55.6434 113.313 58.8108 116.483C61.9781 119.654 64.1354 123.691 65.0102 128.086C65.8849 132.481 65.438 137.037 63.7259 141.178C62.0137 145.32 59.1131 148.861 55.39 151.355C51.667 153.85 47.2885 155.185 42.8072 155.193C39.821 155.196 36.8637 154.609 34.1046 153.467C31.3455 152.325 28.8388 150.65 26.7282 148.537C24.6176 146.425 22.9446 143.917 21.805 141.157C20.6653 138.396 20.0814 135.439 20.0867 132.452Z" fill="#E7E7E7"/>
<path id="Vector_3" d="M132.597 35.7325C132.586 32.5931 131.333 29.5856 129.111 27.3675C126.889 25.1495 123.88 23.9014 120.74 23.896H59.2674L58.781 21.4639C58.5238 20.185 57.8325 19.0344 56.824 18.207C55.8156 17.3796 54.5522 16.9263 53.2478 16.9238H32.2704C30.9741 16.9252 29.7181 17.3735 28.7138 18.1932C27.7096 19.0128 27.0187 20.1536 26.7575 21.4233L26.2711 23.8555H-35.2017C-38.3428 23.8555 -41.3556 25.1019 -43.5786 27.3211C-45.8016 29.5403 -47.0532 32.5509 -47.0586 35.692V43.4546H132.597V35.7325ZM128.381 39.2997H-42.8631V35.7325C-42.8577 33.7041 -42.0482 31.7607 -40.612 30.3283C-39.1758 28.8959 -37.2301 28.0915 -35.2017 28.0915H30.2436V26.0647C30.2436 25.9228 30.2436 25.7404 30.2436 25.8215L30.9327 22.3759C30.9979 22.0521 31.1723 21.7605 31.4269 21.5502C31.6816 21.3398 32.001 21.2235 32.3312 21.2206H53.3086C53.6413 21.2226 53.9635 21.3382 54.2215 21.5483C54.4796 21.7584 54.658 22.0505 54.7273 22.3759L55.3759 25.5985V28.1726H120.842C122.868 28.1726 124.812 28.9776 126.245 30.4106C127.678 31.8435 128.483 33.7871 128.483 35.8136L128.381 39.2997Z" fill="#E7E7E7"/>
<path id="Vector_4" d="M26.3929 15.5658H59.1256C60.9587 15.5658 62.7166 14.8377 64.0128 13.5415C65.3089 12.2454 66.0371 10.4874 66.0371 8.65444V6.91139C66.0371 5.07837 65.3089 3.32043 64.0128 2.02429C62.7166 0.728158 60.9587 0 59.1256 0H26.3929C24.5599 0 22.8019 0.728158 21.5058 2.02429C20.2096 3.32043 19.4814 5.07837 19.4814 6.91139V8.65444C19.4814 10.4874 20.2096 12.2454 21.5058 13.5415C22.8019 14.8377 24.5599 15.5658 26.3929 15.5658ZM23.6972 6.91139C23.6972 6.19458 23.9805 5.50683 24.4855 4.99808C24.9904 4.48933 25.6761 4.20082 26.3929 4.19547H59.1256C59.4823 4.19547 59.8355 4.26572 60.165 4.40221C60.4945 4.5387 60.7939 4.73875 61.0461 4.99094C61.2982 5.24314 61.4984 5.54255 61.6349 5.87206C61.7714 6.20156 61.8416 6.55473 61.8416 6.91139V8.65444C61.8205 9.3606 61.525 10.0307 61.018 10.5227C60.5109 11.0146 59.8321 11.2896 59.1256 11.2893H26.3929C25.6761 11.2839 24.9904 10.9954 24.4855 10.4867C23.9805 9.97791 23.6972 9.29017 23.6972 8.57336V6.91139Z" fill="#E7E7E7"/>
</g>
</svg>
